<?xml version="1.0" standalone="no"?>
<!DOCTYPE svg PUBLIC "-//W3C//DTD SVG 1.1//EN" "http://www.w3.org/Graphics/SVG/1.1/DTD/svg11.dtd" >
<svg xmlns="http://www.w3.org/2000/svg" xmlns:xlink="http://www.w3.org/1999/xlink" version="1.1">
<metadata>
Created by FontForge 20161003 at Wed Sep 12 08:47:30 2018
 By www-data
Copyright (c) 2004 by Tiro Typeworks. All rights reserved.
</metadata>
<defs>
<font id="EuphemiaUCASBold2_6_6" horiz-adv-x="1788" >
  <font-face 
    font-family="EuphemiaUCASBold2_6_6"
    font-weight="700"
    font-stretch="normal"
    units-per-em="2048"
    panose-1="2 11 8 3 4 1 2 2 1 4"
    ascent="1638"
    descent="-410"
    x-height="1080"
    cap-height="1567"
    bbox="-425 -833 3479 2318"
    underline-thickness="50"
    underline-position="-150"
    unicode-range="U+0020-2212"
  />
<missing-glyph horiz-adv-x="1024" 
 />
    <glyph glyph-name=".notdef" horiz-adv-x="1024" 
 />
    <glyph glyph-name=".null" horiz-adv-x="0" 
 />
    <glyph glyph-name="nonmarkingreturn" horiz-adv-x="879" 
 />
    <glyph glyph-name="space" unicode=" " horiz-adv-x="1080" 
 />
    <glyph glyph-name="exclam" unicode="!" horiz-adv-x="550" 
d="M176 448l-52 1105h306l-45 -1105h-209zM130 139q0 31 12 59t32 48.5t47.5 32.5t57.5 12t57 -12t47 -32.5t31.5 -48.5t11.5 -59q0 -32 -11.5 -60t-31.5 -48.5t-47 -32.5t-57 -12t-57.5 12t-47.5 32.5t-32 48.5t-12 60z" />
    <glyph glyph-name="quotedbl" unicode="&#x22;" horiz-adv-x="886" 
d="M769 1609l-58 -456h-150l-66 456h274zM384 1609l-58 -456h-150l-66 456h274z" />
    <glyph glyph-name="numbersign" unicode="#" horiz-adv-x="1903" 
d="M1603 275h-318l-59 -419h-257l60 419h-380l-59 -419h-257l59 419h-319l39 254h318l69 478h-318l35 253h319l59 416h256l-61 -416h383l58 416h256l-60 -416h320l-34 -253h-321l-70 -478h321zM685 529h381l69 478h-381z" />
    <glyph glyph-name="dollar" unicode="$" horiz-adv-x="1244" 
d="M690 1738v-130q49 -3 99.5 -11.5t100 -26.5t97.5 -48t91 -76l-149 -187q-36 42 -68 69.5t-61.5 44t-57 24t-54.5 9.5v-469q52 -26 107 -53t107 -59.5t98 -72.5t80 -90.5t54 -114t20 -143.5q0 -107 -38 -185t-102 -129.5t-147 -78t-174 -30.5v-161l-97 -1v162
q-60 4 -122.5 18.5t-123 41t-116.5 65t-104 91.5l172 187q30 -37 69 -71t79.5 -60.5t78.5 -44t66 -21.5v511q-35 18 -82 39t-97.5 49t-99.5 65t-88 88t-63 118t-24 155q0 66 20 120t54.5 96.5t79.5 74.5t95.5 54t103 34t100.5 16v131h96zM876 388q0 47 -16.5 88t-42.5 75
t-58.5 59t-65.5 40v-462q36 3 69 12t58.5 30.5t40.5 59.5t15 98zM418 1221q0 -51 16.5 -90t42 -67.5t56.5 -49.5t61 -36v428q-32 -4 -63.5 -16.5t-56.5 -35t-40.5 -55.5t-15.5 -78z" />
    <glyph glyph-name="percent" unicode="%" horiz-adv-x="2079" 
d="M342 -23l1282 1715l102 -74l-1271 -1717zM153 1201q0 102 26.5 184t76.5 140t121.5 89t160.5 31q85 0 153.5 -30.5t115.5 -87.5t72.5 -139.5t25.5 -186.5q0 -242 -92 -368.5t-279 -126.5q-192 0 -286.5 126t-94.5 369zM527 893q44 0 70.5 29.5t41 75.5t19.5 102t5 109
q0 44 -6 88t-21 79.5t-41 57.5t-66 22q-37 0 -62.5 -22t-41.5 -57.5t-23 -81t-7 -92.5q0 -51 6 -106t21 -100.5t40.5 -74.5t64.5 -29zM1176 468q0 102 26.5 184t76.5 140t121.5 89t160.5 31q85 0 153 -30.5t115.5 -87.5t73 -139.5t25.5 -186.5q0 -242 -92 -368.5
t-279 -126.5q-192 0 -286.5 126.5t-94.5 368.5zM1550 160q44 0 70.5 29t41 73t19 95.5t4.5 96.5q0 52 -6 100.5t-21 86t-40.5 60t-65.5 22.5q-37 0 -62.5 -22t-41.5 -59.5t-23 -86t-7 -101.5q0 -45 6 -97t21 -95.5t40.5 -72.5t64.5 -29z" />
    <glyph glyph-name="ampersand" unicode="&#x26;" horiz-adv-x="1566" 
d="M1175 0l-106 114q-80 -69 -198 -110.5t-267 -41.5q-119 0 -214.5 30.5t-162 87.5t-102 139t-35.5 185q0 95 26.5 167t71.5 128t103.5 99.5t123.5 81.5q-38 36 -73 78t-62.5 89.5t-44 99t-16.5 106.5q0 88 40 154.5t103.5 111t141.5 67t155 22.5q79 0 148 -19t120.5 -57.5
t81.5 -96t30 -133.5q1 -80 -26.5 -143.5t-75 -115t-109 -92.5t-127.5 -75q46 -55 96.5 -113.5t103 -118t105 -117t100.5 -110.5q25 39 44.5 73.5t35.5 66.5t30 64.5t29 68.5h264q-41 -92 -107 -195.5t-157 -215.5l277 -279h-347zM779 1274q0 47 -12 78.5t-30.5 50.5
t-42.5 27t-48 8q-35 0 -65 -11t-52.5 -32t-35.5 -51.5t-13 -69.5t9 -74t25.5 -67.5t39 -63.5t49.5 -64q36 30 68 58t56 59t38 68t14 84zM944 254q-59 58 -112 119t-104.5 123t-104.5 124t-110 123q-24 -24 -49.5 -50.5t-46.5 -60.5t-34.5 -76.5t-13.5 -98.5q0 -58 15.5 -111
t48.5 -93.5t85 -64.5t124 -24q41 0 84 6.5t83 18.5t75 28.5t60 36.5z" />
    <glyph glyph-name="quotesingle" unicode="'" horiz-adv-x="574" 
d="M424 1609l-58 -456h-150l-66 456h274z" />
    <glyph glyph-name="parenleft" unicode="(" horiz-adv-x="683" 
d="M538 -160q-115 99 -204 218.5t-150 245t-92.5 251t-31.5 238.5t31.5 231.5t92.5 237.5t149.5 235t202.5 224l73 -66q-82 -102 -135.5 -215.5t-84.5 -227.5t-43 -223t-12 -203q0 -95 12.5 -201t43.5 -219t84.5 -231t134.5 -237z" />
    <glyph glyph-name="parenright" unicode=")" horiz-adv-x="674" 
d="M160 -159l-95 64q84 115 136 227.5t81.5 224t39.5 223t10 224.5q0 112 -10 217.5t-39 209t-81 205.5t-137 207l95 83q213 -222 329 -450.5t116 -463.5q0 -118 -27.5 -241t-82.5 -246t-139 -245t-196 -239z" />
    <glyph glyph-name="asterisk" unicode="*" horiz-adv-x="1021" 
d="M943 1470l-317 -196l310 -206l-125 -173l-214 207l23 -261h-217l29 261l-220 -204l-135 170l301 208l-304 194l135 169l220 -199l-25 270h219l-26 -270l204 200z" />
    <glyph glyph-name="plus" unicode="+" horiz-adv-x="1245" 
d="M705 1193v-461h439v-167h-439v-474h-167v474h-437v167h437v461h167z" />
    <glyph glyph-name="comma" unicode="," horiz-adv-x="502" 
d="M115 -244q35 22 65 43t52 44.5t34.5 50.5t12.5 62q0 11 -2 21t-5 22q-6 -5 -23 -11t-37 -6q-57 0 -85.5 32.5t-28.5 83.5q0 26 9.5 50.5t27 43.5t42 30.5t55.5 11.5q58 0 98.5 -19t66.5 -49t38 -66t12 -70q0 -73 -22 -127t-59.5 -95.5t-86.5 -72.5t-104 -58z" />
    <glyph glyph-name="hyphen" unicode="-" horiz-adv-x="765" 
d="M732 893l-45 -238h-602l46 238h601z" />
    <glyph glyph-name="hyphen" unicode="&#xad;" horiz-adv-x="765" 
d="M732 893l-45 -238h-602l46 238h601z" />
    <glyph glyph-name="period" unicode="." horiz-adv-x="480" 
d="M109 129q0 30 11 56t30 45.5t44.5 30.5t53.5 11t53 -11t44 -30.5t29.5 -45.5t10.5 -56t-10.5 -56t-29.5 -45.5t-44 -30.5t-53 -11t-53.5 11t-44.5 30.5t-30 45.5t-11 56z" />
    <glyph glyph-name="slash" unicode="/" horiz-adv-x="1254" 
d="M75 -202l991 1934l134 -72l-974 -1937z" />
    <glyph glyph-name="zero" unicode="0" horiz-adv-x="1270" 
d="M90 789q0 186 33 337t100.5 258t171.5 165.5t245 58.5q138 0 240 -57t168.5 -163t99 -258t32.5 -342q0 -195 -32 -346.5t-98.5 -255.5t-170 -158t-245.5 -54q-141 0 -244 54t-169.5 158t-98.5 256t-32 347zM637 189q58 0 99 24.5t69 68t45 102.5t26 127t11.5 142t2.5 149
q0 69 -2 140t-10 136.5t-24 123t-43.5 100t-68.5 67t-100 24.5q-60 0 -102.5 -24t-71.5 -66t-46.5 -99t-26.5 -124t-12 -140t-3 -147q0 -73 3 -146.5t12.5 -140.5t26.5 -125t45.5 -100.5t70 -67t99.5 -24.5z" />
    <glyph glyph-name="one" unicode="1" horiz-adv-x="942" 
d="M335 203v1096l-252 -138v229l323 177h202v-1364h224v-203h-740v203h243z" />
    <glyph glyph-name="two" unicode="2" horiz-adv-x="1178" 
d="M1107 0h-989v121q0 87 31.5 154.5t83 122.5t117 102t134.5 93t134.5 96t117 110.5t83 137t31.5 175.5q0 78 -23 131.5t-61 87t-88 48.5t-104 15q-90 0 -161.5 -26.5t-123.5 -66.5l-139 187q40 28 84 50t96 38t114 24.5t139 8.5q119 0 220 -31.5t174.5 -90t115 -143
t41.5 -189.5q0 -98 -31 -181t-82 -153.5t-116.5 -130t-133 -111t-133 -97t-116.5 -87.5t-82 -82.5t-31 -82.5h698v-230z" />
    <glyph glyph-name="three" unicode="3" horiz-adv-x="1349" 
d="M404 937q106 0 181 19t122.5 54t69 84.5t21.5 111.5q0 87 -47.5 137.5t-156.5 50.5q-58 0 -105 -12t-86 -30.5t-71 -40.5t-59 -41l-121 194q35 27 82.5 53t104.5 46.5t122.5 33t136.5 12.5q102 0 191.5 -22t156.5 -67.5t105.5 -116.5t38.5 -168q0 -65 -25 -123
t-65.5 -105t-92 -81t-104.5 -50q83 -11 148.5 -40.5t110.5 -78t68.5 -117t23.5 -158.5q0 -142 -44 -240t-121.5 -159.5t-183 -89t-229.5 -27.5q-78 0 -150.5 16t-133.5 38.5t-107 46t-70 39.5l131 216q8 -6 27.5 -19t46 -28.5t59.5 -32t69 -30.5t73 -22.5t73 -8.5
q120 0 190 71t70 210q0 88 -25 145.5t-80 90.5t-141 46.5t-207 14.5z" />
    <glyph glyph-name="four" unicode="4" horiz-adv-x="1320" 
d="M792 423h-711l-1 167l758 977h224v-940h189v-204h-189v-423h-270v423zM329 627h463v611z" />
    <glyph glyph-name="five" unicode="5" horiz-adv-x="1244" 
d="M1038 1567v-230h-583v-344q35 20 86.5 31.5t98.5 11.5q98 0 193.5 -34t161 -99t99 -159.5t33.5 -215.5q0 -118 -43 -219.5t-118 -176t-177.5 -117t-222.5 -42.5q-87 0 -158.5 13.5t-126.5 32.5t-92 38.5t-55 30.5l110 205q15 -9 51.5 -26.5t84.5 -35t101.5 -30
t103.5 -12.5q56 0 104 21t83.5 61.5t55.5 99.5t20 136q0 64 -17.5 121.5t-51.5 101t-85 69t-118 25.5t-119 -22.5t-98 -70.5h-168v836h847z" />
    <glyph glyph-name="six" unicode="6" horiz-adv-x="1353" 
d="M1027 1316q-54 30 -125 53t-162 23q-83 0 -146 -35t-108.5 -99.5t-74 -156.5t-41.5 -207q27 27 66.5 49t85 37.5t94.5 23.5t95 8q118 0 210.5 -34.5t156.5 -99.5t98 -158.5t34 -211.5q0 -122 -38 -221.5t-113 -170.5t-187.5 -109.5t-261.5 -38.5q-136 0 -235 43.5
t-163.5 129.5t-96 214t-31.5 296q0 229 37.5 407.5t119.5 300t213 185t319 63.5q40 0 86.5 -5t93 -15.5t90.5 -26t80 -35.5zM926 503q0 67 -18.5 122.5t-54.5 95t-89.5 61t-122.5 21.5q-46 0 -82.5 -5.5t-66.5 -16t-56 -27.5t-50 -39q-6 -12 -9.5 -28t-5.5 -33t-2.5 -32.5
t-0.5 -26.5q0 -111 22 -189t59 -127.5t86 -72.5t102 -23q58 0 110.5 20t92.5 60t63 100t23 140z" />
    <glyph glyph-name="seven" unicode="7" horiz-adv-x="1244" 
d="M864 1339h-775v230h1024v-175l-592 -1394h-282z" />
    <glyph glyph-name="eight" unicode="8" horiz-adv-x="1303" 
d="M858 865q94 -35 166.5 -76.5t121 -94t73.5 -117.5t25 -146q0 -87 -23 -154.5t-63.5 -118t-96 -86t-120.5 -57t-138 -31.5t-147 -10q-119 0 -223.5 25t-183.5 80t-124.5 142t-45.5 212q0 151 87 252.5t259 162.5q-74 34 -130.5 71t-94 82t-56.5 100.5t-19 125.5
q0 100 45.5 172.5t119.5 118.5t169.5 68t195.5 22q103 0 199.5 -23t171 -70.5t119.5 -121.5t45 -176q0 -69 -24 -124.5t-67.5 -98t-104.5 -74.5t-136 -55zM699 947q107 54 158.5 115t51.5 133q0 93 -66.5 145.5t-187.5 52.5q-47 0 -91.5 -11t-79.5 -34t-56.5 -57.5
t-21.5 -80.5q0 -55 29.5 -96t73.5 -72t95 -54t95 -41zM563 752q-44 -28 -80 -57t-62.5 -65.5t-41 -84t-14.5 -112.5q0 -56 22.5 -101t62.5 -76.5t94.5 -49t117.5 -17.5t117 16.5t93.5 47.5t62.5 75t23 100q0 51 -19 92t-51 73.5t-73 57t-85 43.5t-87.5 33t-79.5 25z" />
    <glyph glyph-name="nine" unicode="9" horiz-adv-x="1329" 
d="M266 259q26 -12 57.5 -25.5t67.5 -24.5t76.5 -18.5t85.5 -7.5q83 0 146.5 36.5t109 103t74.5 160.5t43 210q-31 -35 -71.5 -60t-86 -40.5t-93 -22.5t-92.5 -7q-118 0 -210.5 34.5t-156.5 99.5t-98 158.5t-34 211.5q0 122 37.5 221.5t110 170.5t179.5 109.5t245 38.5
q146 0 250.5 -43.5t172 -129.5t99.5 -214t32 -296q0 -230 -37.5 -408t-120 -299.5t-214 -185t-318.5 -63.5q-40 0 -86.5 5t-93 15.5t-90.5 26t-80 35.5zM367 1072q0 -68 18.5 -123t55 -94.5t89.5 -61t122 -21.5q46 0 82.5 5t66.5 16t56 27.5t51 39.5q6 12 9.5 28t5.5 33
t2.5 32.5t0.5 26.5q0 111 -22 189t-59.5 127.5t-86 72.5t-102.5 23q-58 0 -110.5 -20t-92 -60t-63 -100t-23.5 -140z" />
    <glyph glyph-name="colon" unicode=":" horiz-adv-x="582" 
d="M165 952q0 30 11 56t30 45.5t44.5 30.5t53.5 11t53 -11t44 -30.5t29.5 -45.5t10.5 -56t-10.5 -56t-29.5 -45.5t-44 -30.5t-53 -11t-53.5 11t-44.5 30.5t-30 45.5t-11 56zM165 129q0 30 11 56t30 45.5t44.5 30.5t53.5 11t53 -11t44 -30.5t29.5 -45.5t10.5 -56t-10.5 -56
t-29.5 -45.5t-44 -30.5t-53 -11t-53.5 11t-44.5 30.5t-30 45.5t-11 56z" />
    <glyph glyph-name="semicolon" unicode=";" horiz-adv-x="440" 
d="M115 -244q35 22 65 43t52 44.5t34.5 50.5t12.5 62q0 11 -2 21t-5 22q-6 -5 -23 -11t-37 -6q-57 0 -85.5 32.5t-28.5 83.5q0 26 9.5 50.5t27 43.5t42 30.5t55.5 11.5q58 0 98.5 -19t66.5 -49t38 -66t12 -70q0 -73 -22 -127t-59.5 -95.5t-86.5 -72.5t-104 -58zM109 963
q0 30 11 56t30 45.5t44.5 30.5t53.5 11t53 -11t44 -30.5t29.5 -45.5t10.5 -56t-10.5 -56t-29.5 -45.5t-44 -30.5t-53 -11t-53.5 11t-44.5 30.5t-30 45.5t-11 56z" />
    <glyph glyph-name="less" unicode="&#x3c;" horiz-adv-x="1055" 
d="M23 744v22l845 786l134 -143l-710 -642v-14l713 -646l-134 -146z" />
    <glyph glyph-name="equal" unicode="=" horiz-adv-x="1275" 
d="M1145 555v-167h-1044v167h1044zM1145 909v-167h-1044v167h1044z" />
    <glyph glyph-name="greater" unicode="&#x3e;" horiz-adv-x="1055" 
d="M1032 744v22l-844.948 786l-133.991 -143l709.956 -642v-14l-712.956 -646l133.991 -146z" />
    <glyph glyph-name="question" unicode="?" horiz-adv-x="1020" 
d="M262 404q0 70 4.5 122t19 94t42.5 79.5t75 78.5q56 49 103.5 86t82 79t54 98.5t19.5 143.5q0 43 -15.5 83t-46.5 70.5t-77.5 48.5t-107.5 18q-29 0 -58.5 -8.5t-58 -22.5t-54 -32t-45.5 -36l-140 164q31 31 73 56.5t92 43.5t106.5 28t116.5 10q99 0 186 -26.5t152 -81.5
t102.5 -138.5t37.5 -198.5q0 -76 -18.5 -135t-49 -106.5t-69 -85t-79 -68.5t-79 -58t-68.5 -53q-29 -26 -45 -49.5t-23.5 -52t-8.5 -64.5t-1 -87h-222zM240 129q0 30 11 56t30 45.5t44.5 30.5t53.5 11t53 -11t44 -30.5t29.5 -45.5t10.5 -56t-10.5 -56t-29.5 -45.5t-44 -30.5
t-53 -11t-53.5 11t-44.5 30.5t-30 45.5t-11 56z" />
    <glyph glyph-name="at" unicode="@" horiz-adv-x="2307" 
d="M1620 -17q-66 0 -112.5 15t-76.5 42t-45 63.5t-18 80.5q-16 -54 -44 -92t-64 -62t-79.5 -35.5t-89.5 -11.5q-92 0 -168.5 36t-131.5 101t-85.5 156.5t-30.5 201.5q0 122 33 224t103.5 175.5t181 114.5t264.5 41q29 0 74 -3t92 -8.5t88.5 -11.5t63.5 -12l-1 -584
q0 -24 -0.5 -46.5t-0.5 -43.5q0 -40 2.5 -73.5t11 -57.5t24.5 -37t44 -13q45 0 79 21.5t59.5 59t42.5 88.5t27.5 109.5t15 121.5t4.5 125q0 179 -52.5 315.5t-144.5 228.5t-216 139t-266 47q-184 0 -330.5 -63.5t-249 -174t-157.5 -258t-55 -315.5q0 -90 14.5 -184
t48 -182.5t88.5 -167.5t137 -138t192.5 -93.5t254.5 -34.5q52 0 111 6t114 21v-210q-18 -8 -51 -20t-76.5 -23t-97 -19t-111.5 -8q-106 0 -212.5 26.5t-205 81.5t-184 139t-148.5 198.5t-99.5 261t-36.5 325.5q0 149 31 284t91.5 250.5t150.5 209.5t207.5 160t262 102
t315.5 36q131 0 252.5 -25.5t227 -77t192 -129t148 -182t95.5 -236t34 -290.5q0 -140 -28.5 -264.5t-92 -218t-166 -148t-250.5 -54.5zM1325 839q-26 14 -57.5 23.5t-74.5 9.5q-56 0 -106.5 -22t-88.5 -65.5t-60.5 -109t-22.5 -151.5q0 -74 15.5 -141.5t43 -119.5t67 -83
t87.5 -31q49 0 86 27.5t62 67.5t37 86t12 84v425z" />
    <glyph glyph-name="A" unicode="A" horiz-adv-x="1436" 
d="M599 1568h245l555 -1568h-323l-163 490h-464l-156 -490h-260zM506 691h357l-174 566z" />
    <glyph glyph-name="B" unicode="B" horiz-adv-x="1334" 
d="M651 1567q118 0 213.5 -26.5t162 -76.5t102.5 -123t36 -167q0 -59 -23.5 -115t-63.5 -102.5t-94 -81t-115 -50.5q61 -11 125.5 -40t118 -79t88 -121.5t34.5 -166.5q0 -80 -35 -155.5t-104 -134t-171 -93.5t-235 -35h-540l1 1567h500zM425 698v-496h211q82 0 142.5 21
t100 55.5t58.5 77t19 86.5q0 52 -19 99t-59 81.5t-102.5 55t-150.5 20.5h-200zM426 1365l-1 -465h146q74 0 134.5 14t103 43.5t65.5 74t23 105.5q0 58 -17 101t-57.5 71t-106.5 42t-164 14h-126z" />
    <glyph glyph-name="C" unicode="C" horiz-adv-x="1430" 
d="M1342 226q-68 -81 -129 -130.5t-124.5 -77.5t-134 -37.5t-158.5 -9.5q-166 0 -291.5 65.5t-210 177.5t-127 261t-42.5 316q0 105 17.5 207t53.5 192.5t91.5 167t132 132.5t174 87t217.5 31q72 0 136.5 -9t122 -29t110.5 -54t103 -83l-151 -187q-37 39 -73.5 67t-75.5 46
t-82 26t-94 8q-102 0 -176 -46.5t-122 -123.5t-71 -176t-23 -205q0 -139 27.5 -258.5t77.5 -208t120 -139t156 -50.5q76 0 130.5 13.5t96 38.5t74.5 61.5t66 83.5z" />
    <glyph glyph-name="D" unicode="D" horiz-adv-x="1467" 
d="M544 1567q216 0 366.5 -61t245.5 -165.5t138 -243t43 -293.5q0 -108 -18 -209.5t-57.5 -190.5t-102.5 -163.5t-152.5 -128t-207 -83t-266.5 -29.5h-383v1567h394zM425 1365v-1163h84q116 0 214.5 37t170.5 112t112.5 189t40.5 267q0 107 -27.5 207.5t-89 178.5
t-160.5 125t-242 47h-103z" />
    <glyph glyph-name="E" unicode="E" horiz-adv-x="1154" 
d="M1038 1364h-613v-429h488v-202h-488v-530h639v-203h-914v1567h888v-203z" />
    <glyph glyph-name="F" unicode="F" horiz-adv-x="1098" 
d="M1036 1364h-613v-429h488v-202h-488v-733h-275v1567h888v-203z" />
    <glyph glyph-name="G" unicode="G" horiz-adv-x="1513" 
d="M1386 105q-54 -29 -111.5 -53.5t-126.5 -42.5t-154 -28t-193 -10q-118 0 -214 32t-171 88.5t-130 134t-90.5 168t-53 190.5t-17.5 202q0 108 21 211t62 194.5t102 168t140.5 131.5t177.5 86t213 31q57 0 104 -3t88 -10.5t77.5 -20.5t74 -32.5t77.5 -47t88 -64.5
l-145 -200q-52 48 -96.5 79.5t-88 50t-90 26t-103.5 7.5q-99 0 -176 -44.5t-129.5 -122t-79.5 -182t-27 -224.5q0 -126 23.5 -240.5t74.5 -202t131.5 -139.5t193.5 -52q31 0 66.5 3t71.5 8.5t70.5 13t64.5 15.5v529h275v-650z" />
    <glyph glyph-name="H" unicode="H" horiz-adv-x="1499" 
d="M150 1567h275v-683h649v683h275v-1567h-275v682h-649v-682h-275v1567z" />
    <glyph glyph-name="I" unicode="I" horiz-adv-x="575" 
d="M150 0v1567h275v-1567h-275z" />
    <glyph glyph-name="J" unicode="J" horiz-adv-x="1157" 
d="M1007 514q0 -134 -27 -235.5t-84 -170t-146 -103t-213 -34.5q-85 0 -161.5 17t-141.5 59.5t-117.5 114.5t-88.5 182l271 111q27 -76 55.5 -127.5t58.5 -83t61 -45t62 -13.5q36 0 71 8.5t63 37t45 82.5t17 145v1108h275v-1053z" />
    <glyph glyph-name="K" unicode="K" horiz-adv-x="1334" 
d="M135 0v1567h275v-626l538 626h315l-685 -750l719 -817h-340l-547 626v-626h-275z" />
    <glyph glyph-name="L" unicode="L" horiz-adv-x="1140" 
d="M1101 0h-951v1567h275v-1364h676v-203z" />
    <glyph glyph-name="M" unicode="M" horiz-adv-x="1790" 
d="M1030 0h-239l-366 978v-978h-275v1567h286l472 -1342l447 1342h285v-1567h-275v978z" />
    <glyph glyph-name="N" unicode="N" horiz-adv-x="1480" 
d="M410 1122v-1122h-275v1567h260l666 -1127v1127h275l4 -1567h-260z" />
    <glyph glyph-name="O" unicode="O" horiz-adv-x="1680" 
d="M1555 816q0 -118 -23.5 -227t-68 -203.5t-108 -171.5t-143 -132t-173.5 -85t-200 -30q-170 0 -302.5 60t-224 169t-139.5 261.5t-48 337.5q0 178 50 327t143 257t226.5 168t300.5 60q156 0 286.5 -54.5t224.5 -156.5t146.5 -249t52.5 -331zM1265 791q0 135 -29.5 245.5
t-84.5 189.5t-133 122.5t-175 43.5q-95 0 -173.5 -41t-135 -117.5t-88 -184.5t-31.5 -241q0 -135 26.5 -249.5t79 -198.5t130.5 -131t180 -47t182.5 50.5t136.5 135t85.5 194.5t29.5 229z" />
    <glyph glyph-name="P" unicode="P" horiz-adv-x="1257" 
d="M425 606v-606h-275v1567h445q149 0 258.5 -35t181.5 -96.5t107 -146.5t35 -185q0 -39 -10 -91t-35 -107.5t-69 -109t-112.5 -96t-164 -68.5t-224.5 -26h-137zM425 807l139 1q76 0 139 19t108 56t69.5 91t24.5 123q0 55 -17 103.5t-56 85t-102.5 58t-157.5 21.5h-147v-558
z" />
    <glyph glyph-name="Q" unicode="Q" horiz-adv-x="1680" 
d="M1555 819q0 -143 -39 -271.5t-105.5 -234t-155 -183t-188.5 -119.5q27 -36 70 -73t96.5 -74.5t114 -74t122.5 -69.5l-167 -213q-72 45 -142.5 98t-132 112t-110 122t-76.5 128h-52q-147 0 -269 59t-210 167t-137 261t-49 341q0 179 49.5 328.5t142 257t224.5 167.5
t296 60q157 0 289 -54t227.5 -156t148.5 -248.5t53 -330.5zM1265 793q0 134 -27 244.5t-80.5 189.5t-133 122.5t-184.5 43.5q-93 0 -171.5 -42t-134.5 -118.5t-87.5 -184.5t-31.5 -240q0 -146 30.5 -262t85 -197t130 -124t164.5 -43q74 0 135.5 27t110.5 73t85 106.5
t60.5 128.5t36.5 139t12 137z" />
    <glyph glyph-name="R" unicode="R" horiz-adv-x="1312" 
d="M424 0h-274v1567h444q150 0 259 -30t180.5 -86t106 -136t34.5 -181q0 -66 -16.5 -135.5t-58 -132.5t-112.5 -115t-180 -84l477 -667h-309l-419 641q-25 0 -57 1t-74 8zM425 849q31 -4 63 -5t65 -1q82 0 147 19t110 55t68.5 87.5t23.5 116.5t-16 111t-56 75.5t-107.5 43.5
t-170.5 14h-127v-516z" />
    <glyph glyph-name="S" unicode="S" horiz-adv-x="1338" 
d="M292 389q53 -55 94.5 -93t83 -61.5t89 -34t113.5 -10.5q51 0 99.5 10.5t86.5 35.5t61 67t23 105q0 43 -17 76t-51 61t-85 54t-118 55q-23 10 -42 18t-36 16t-34 15.5t-36 16.5q-39 18 -84 38.5t-89.5 48t-86 63.5t-73 84t-50.5 110t-19 141q0 103 45 179t119.5 125.5
t170.5 74t197 24.5q76 0 143 -10.5t127.5 -33.5t116.5 -59t112 -86l-153 -203q-40 41 -76 74t-74.5 56t-84 35t-103.5 12q-44 0 -89.5 -9t-82.5 -29.5t-60.5 -53t-23.5 -79.5q0 -56 31 -100.5t75 -78.5t92.5 -58t83.5 -39q31 -14 52.5 -23.5t42.5 -18.5t45.5 -19t61.5 -26
q29 -12 65 -29.5t73.5 -42t73.5 -58t64 -78.5t45 -103t17 -132q0 -75 -22.5 -137t-62 -111t-93.5 -85.5t-116 -60t-129.5 -35.5t-135.5 -12q-93 0 -172 15t-149 44.5t-132.5 73t-120.5 100.5z" />
    <glyph glyph-name="T" unicode="T" horiz-adv-x="1316" 
d="M1277 1365h-482v-1365h-275v1365h-481v202h1238v-202z" />
    <glyph glyph-name="U" unicode="U" horiz-adv-x="1540" 
d="M425 1567v-1044q0 -72 19 -132.5t60 -104t105 -67.5t153 -24q99 0 167 25t109 70t59 106.5t18 135.5v1035h275v-1020q0 -141 -34.5 -247t-111 -177t-197.5 -107t-294 -36q-159 0 -273 34.5t-187.5 103.5t-108 173.5t-34.5 244.5v1031h275z" />
    <glyph glyph-name="V" unicode="V" horiz-adv-x="1391" 
d="M1038 1567h322l-556 -1567h-255l-517 1567h302l352 -1169z" />
    <glyph glyph-name="W" unicode="W" horiz-adv-x="1995" 
d="M1634 1567h321l-421 -1567h-250l-270 1213l-292 -1213h-246l-412 1567h302l254 -1208l296 1208h197l279 -1204z" />
    <glyph glyph-name="X" unicode="X" horiz-adv-x="1404" 
d="M840 844l525 -844h-307l-391 629l-327 -629h-301l507 820l-456 747h307l309 -553l313 553h304z" />
    <glyph glyph-name="Y" unicode="Y" horiz-adv-x="1336" 
d="M521 0v700l-484 867h304l336 -652l312 652h303l-496 -851v-716h-275z" />
    <glyph glyph-name="Z" unicode="Z" horiz-adv-x="1157" 
d="M63 1567h1034v-190l-761 -1149h740v-228h-1022v202l757 1137h-748v228z" />
    <glyph glyph-name="bracketleft" unicode="[" horiz-adv-x="686" 
d="M150 1727h424v-137h-177v-1612h179v-137h-426v1886z" />
    <glyph glyph-name="backslash" unicode="\" horiz-adv-x="1298" 
d="M1037 -276l-980 1919l167 89l982 -1919z" />
    <glyph glyph-name="bracketright" unicode="]" horiz-adv-x="686" 
d="M536 -159h-424v137h177v1612h-179v137h426v-1886z" />
    <glyph glyph-name="asciicircum" unicode="^" horiz-adv-x="1307" 
d="M1247 759h-257l-322 604h-24l-340 -604h-237l535 919h110z" />
    <glyph glyph-name="underscore" unicode="_" horiz-adv-x="1066" 
d="M0 -249h1066v-220h-1066v220z" />
    <glyph glyph-name="grave" unicode="`" horiz-adv-x="0" 
d="M113 1207l-436 339l212 194l326 -431z" />
    <glyph glyph-name="a" unicode="a" horiz-adv-x="1230" 
d="M128 933q85 77 202 120.5t246 43.5q87 0 167 -20t142 -61t99 -105.5t37 -152.5v-482q0 -35 4 -58.5t13.5 -37t24.5 -19t37 -5.5q8 0 30 3t42 7l28 -115q-24 -15 -49 -28t-53.5 -22.5t-62 -15.5t-73.5 -6q-75 0 -125.5 34.5t-64.5 98.5q-42 -39 -87 -65t-90.5 -41t-91 -21
t-88.5 -6q-73 0 -131 19t-99 56.5t-63 93t-22 129.5q0 83 25.5 145.5t70.5 107.5t107 74.5t135.5 46.5t155.5 24t167 7v39q0 53 -15 91t-41.5 62t-63.5 35.5t-82 11.5q-38 0 -72 -6.5t-68.5 -23t-71.5 -44t-82 -70.5zM761 564q-116 -5 -190.5 -25t-118 -52.5t-60.5 -76
t-17 -95.5q0 -44 10 -73t28.5 -47t44.5 -25.5t57 -7.5q28 0 57.5 3t60.5 11.5t63 23.5t65 38v326z" />
    <glyph glyph-name="b" unicode="b" horiz-adv-x="1303" 
d="M160 1567h260v-568q55 43 134.5 70.5t173.5 27.5q123 0 209.5 -45.5t141.5 -121t80.5 -175t25.5 -207.5q0 -146 -46.5 -253t-121.5 -177.5t-169.5 -104.5t-191.5 -34q-75 0 -138 1.5t-121.5 4.5t-116 8.5t-120.5 14.5v1559zM420 171q42 -15 97.5 -24.5t115.5 -9.5
q61 0 112 28t88 81.5t57.5 130t20.5 173.5q0 79 -15 143.5t-47 110.5t-81.5 71t-118.5 25q-32 0 -64.5 -4.5t-62.5 -12t-56.5 -17.5t-45.5 -22v-673z" />
    <glyph glyph-name="c" unicode="c" horiz-adv-x="1168" 
d="M1092 185q-45 -64 -96 -103t-107 -60.5t-115.5 -28.5t-120.5 -7q-144 0 -245.5 47t-166 124t-94 175.5t-29.5 201.5q0 121 36 224t106 178.5t174.5 118t242.5 42.5q55 0 106 -5t98.5 -19.5t91 -39.5t83.5 -65l-162 -167q-29 30 -54 51t-52 34.5t-56.5 19.5t-66.5 6
q-72 0 -123.5 -32t-85 -83t-49 -114t-15.5 -125q0 -81 16 -152t50 -123.5t86 -82.5t124 -30q34 0 65.5 6t61.5 22.5t59.5 45.5t60.5 75z" />
    <glyph glyph-name="d" unicode="d" horiz-adv-x="1327" 
d="M644 1097q78 0 132 -17t90 -43v530h260v-1195q0 -42 4 -89t13 -95.5t23 -96.5t34 -91h-243q-10 8 -20.5 21t-20.5 28t-18 31.5t-13 31.5q-54 -63 -124.5 -97.5t-160.5 -34.5q-113 0 -202.5 43t-151.5 118t-94.5 178t-32.5 223q0 108 36 208t104 177t165 123.5t220 46.5z
M646 177q61 0 112 12.5t108 44.5v626q-42 19 -89 30t-101 11q-68 0 -120.5 -28t-88.5 -75.5t-55 -111t-19 -134.5q0 -72 15.5 -139.5t47 -120t79 -84t111.5 -31.5z" />
    <glyph glyph-name="e" unicode="e" horiz-adv-x="1223" 
d="M1111 179q-62 -66 -119.5 -106t-114.5 -61.5t-116 -28.5t-123 -7q-138 0 -236.5 48t-161 128t-92 184t-29.5 216q0 108 30.5 206.5t93 173.5t157 120t222.5 45q114 0 200 -31t143.5 -89t86.5 -140.5t29 -184.5q0 -39 -2.5 -80.5t-10.5 -86.5h-675q0 -47 17 -103
t49.5 -105.5t80.5 -82.5t110 -33q54 0 94.5 8t75 26t66 47.5t67.5 73.5zM607 902q-63 0 -104 -22t-65 -58t-34 -82t-10 -95h413q0 42 -6 87.5t-27 83t-60.5 62t-106.5 24.5z" />
    <glyph glyph-name="f" unicode="f" horiz-adv-x="770" 
d="M201 1080v84q0 111 26.5 190t73.5 129.5t112.5 74t143.5 23.5q33 0 73 -5t80 -14t75.5 -22t61.5 -29l-114 -196q-14 11 -31.5 23t-39 22.5t-48 17.5t-57.5 7q-62 0 -99.5 -11t-37.5 -34q0 -8 3 -28t7.5 -46t10 -54.5t10 -55t7.5 -47t3 -29.5h230l-15 -186h-215v-894h-260
v894h-146v135z" />
    <glyph glyph-name="g" unicode="g" horiz-adv-x="1191" 
d="M941 915q25 -30 44 -85t19 -133q0 -88 -37 -157t-94.5 -116.5t-126 -72.5t-131.5 -25q-89 0 -146.5 11.5t-96.5 29.5q-20 -17 -36 -40.5t-16 -54.5q0 -14 16.5 -26t43 -23t61.5 -20.5t72 -17t73.5 -14t67.5 -11.5q52 -9 106.5 -18t106.5 -22t98 -32t81 -48t55 -69.5
t20 -96.5q0 -75 -26.5 -130t-71 -94.5t-103.5 -64t-124.5 -39t-134 -19.5t-131.5 -5q-116 0 -201 16t-140 45t-81.5 69t-26.5 89q0 55 18.5 97t48.5 75.5t68.5 59t78.5 47.5q-21 12 -51.5 26.5t-59 37.5t-48.5 57t-20 84q0 35 13.5 65t37.5 55t56.5 45t70.5 35
q-41 30 -69 62t-46 68.5t-26 78.5t-8 93q0 90 33.5 158t93 115.5t142 72t180.5 24.5q43 0 76.5 -4t63 -12t59 -19.5t66.5 -27.5q86 26 164 35.5t147 9.5l-43 -194zM395 -16q-21 -16 -35 -36.5t-23 -43t-13 -45t-4 -43.5q0 -30 20 -59.5t52.5 -52t74.5 -36.5t86 -14
q94 0 158 13.5t102 36.5t54.5 54t16.5 67q0 23 -18 40.5t-49.5 31t-74.5 24t-94 21.5q-80 17 -140.5 27t-112.5 15zM584 480q55 0 88 20.5t50.5 54t23 78t5.5 92.5q0 115 -47.5 167t-138.5 52q-79 0 -128.5 -53t-49.5 -159q0 -50 10.5 -95.5t34 -80t61 -55.5t91.5 -21z" />
    <glyph glyph-name="h" unicode="h" horiz-adv-x="1278" 
d="M159 1567h260v-569q22 18 49.5 36t62 32t76 22.5t89.5 8.5q97 0 175.5 -26t133.5 -76t84.5 -123.5t29.5 -166.5v-705h-260v701q0 105 -53 153.5t-147 48.5q-30 0 -58.5 -3.5t-57.5 -11t-59.5 -18t-64.5 -24.5v-846h-260v1567z" />
    <glyph glyph-name="i" unicode="i" horiz-adv-x="605" 
d="M172 1080h260v-1080h-260v1080zM159 1418q0 31 11.5 57t31 45t46 29.5t56.5 10.5q32 0 58 -11.5t45 -31t29 -46t10 -55.5t-10 -55t-29 -46t-45 -32t-58 -12q-30 0 -56.5 12.5t-46 33t-31 47t-11.5 54.5z" />
    <glyph glyph-name="j" unicode="j" horiz-adv-x="583" 
d="M410 -15q0 -130 -34.5 -216t-91 -137.5t-127.5 -73t-144 -21.5q-77 0 -135 17t-105 51l45 149q36 -11 79.5 -15.5t83.5 -4.5q34 0 64.5 18.5t53.5 51.5t37 78.5t14 99.5v1098h260v-1095zM138 1422q0 30 12 55.5t31.5 43.5t45.5 28.5t54 10.5q34 0 60.5 -12.5t45 -32.5
t28 -45t9.5 -51q0 -30 -10.5 -57t-29.5 -47.5t-45.5 -32.5t-57.5 -12q-30 0 -56 13t-45.5 34t-30.5 48.5t-11 56.5z" />
    <glyph glyph-name="k" unicode="k" horiz-adv-x="1136" 
d="M391 681l353 399h325l-491 -482l523 -598h-312l-398 467v-467h-260v1567h260v-886z" />
    <glyph glyph-name="l" unicode="l" horiz-adv-x="631" 
d="M150 1567h260v-1306q0 -51 16.5 -72t45.5 -21q33 0 56 9t53 21l44 -134q-25 -17 -54.5 -32t-62 -26.5t-67 -18.5t-68.5 -7q-43 0 -83 9t-71 34.5t-50 70.5t-19 116v1357z" />
    <glyph glyph-name="m" unicode="m" horiz-adv-x="1846" 
d="M385 1080q6 -16 13 -45.5t11 -53.5q25 22 61.5 42.5t79 37t90 26.5t94.5 10q89 0 159 -31.5t108 -81.5q46 31 89 52.5t86 35t88 19.5t96 6q87 0 149 -25.5t101.5 -70t58 -105t18.5 -129.5v-767h-260v695q0 61 -12.5 100.5t-36 63t-57.5 33t-77 9.5q-48 0 -93.5 -10
t-98.5 -34q8 -23 12 -52.5t4 -68.5v-736h-260v695q0 62 -11.5 102t-34.5 63t-57 32t-80 9q-60 0 -105.5 -14.5t-90.5 -40.5v-846h-260v954q0 34 -1 68t-6 58h223z" />
    <glyph glyph-name="n" unicode="n" horiz-adv-x="1304" 
d="M173 895q0 32 -1.5 82.5t-11.5 102.5h245q3 -7 6 -19.5t6.5 -27t6 -30t4.5 -28.5q24 22 58 44t74.5 39.5t87.5 28t98 10.5q84 0 156.5 -26t126 -75t84.5 -120t31 -161v-715h-260v666q0 65 -13 110t-38.5 72.5t-62.5 40t-85 12.5q-28 0 -60 -4.5t-65.5 -13.5t-66 -21
t-60.5 -27v-835h-260v895z" />
    <glyph glyph-name="o" unicode="o" horiz-adv-x="1302" 
d="M663 -27q-132 0 -233.5 41t-170.5 116.5t-104.5 182t-35.5 237.5q0 111 33 210t100 174t168.5 119t238.5 44t236 -44t163 -120.5t94.5 -180t30.5 -221.5q0 -115 -35.5 -216.5t-103 -177.5t-164 -120t-217.5 -44zM654 153q66 0 114 36t79 95t46 133t15 151
q0 71 -13.5 134.5t-44.5 111t-80 75.5t-119 28q-63 0 -111.5 -29t-80.5 -79.5t-48.5 -120t-16.5 -150.5q0 -66 14.5 -134t46 -124t81 -91.5t118.5 -35.5z" />
    <glyph glyph-name="p" unicode="p" horiz-adv-x="1276" 
d="M402 1080q6 -15 13 -42.5t10 -53.5q24 21 51 41.5t60 36t73.5 25.5t91.5 10q130 0 218 -45t140.5 -120t75 -173t22.5 -204q0 -115 -30.5 -220.5t-92 -186t-155 -128.5t-219.5 -48q-127 0 -225 77v-502h-260v1328q0 6 -0.5 30t-2 54.5t-5 63.5t-10.5 57h245zM639 901
q-53 0 -101.5 -12.5t-102.5 -41.5v-618q27 -22 53.5 -34t54 -18t56 -7t58.5 -1q60 0 102.5 33.5t69.5 88.5t40 125t13 143q0 74 -14 137t-43 108.5t-75.5 71t-110.5 25.5z" />
    <glyph glyph-name="q" unicode="q" horiz-adv-x="1280" 
d="M619 184q37 0 67.5 2.5t57 8.5t50.5 16t48 26v629q-21 7 -47.5 13.5t-55 11t-58 7t-56.5 2.5q-60 0 -104.5 -32t-74 -83.5t-44 -116t-14.5 -128.5t13.5 -127.5t41.5 -114.5t71.5 -82.5t104.5 -31.5zM1124 1080q-17 -59 -19.5 -97.5t-2.5 -52.5v-1383h-260v522
q-55 -41 -119 -65t-140 -24q-107 0 -193 41.5t-146 115t-92.5 174t-32.5 217.5q0 128 38 233t104 179.5t156 115.5t194 41q80 0 138 -20.5t104 -58.5l18 62h253z" />
    <glyph glyph-name="r" unicode="r" horiz-adv-x="884" 
d="M387 1080q21 -106 30 -216q19 44 55 86t80 74.5t92.5 52.5t92.5 20q55 0 82 -7t43 -14l-56 -235q-32 15 -59.5 20.5t-54.5 5.5q-93 0 -159.5 -44t-108.5 -116l2 -707h-262v898q0 17 -0.5 43t-1 53t-2 50.5t-3.5 35.5h230z" />
    <glyph glyph-name="s" unicode="s" horiz-adv-x="1039" 
d="M216 315q148 -164 316 -164q37 0 69 7.5t55 23.5t36.5 41t13.5 60q0 25 -11 45t-29 35t-40 26.5t-44 19.5q-41 17 -81.5 30.5t-81.5 30.5q-23 8 -55.5 20.5t-67.5 31t-69 43.5t-61.5 60t-44.5 79.5t-17 102.5q0 72 35 126t93 90.5t131.5 55t151.5 18.5q124 0 225.5 -29
t185.5 -97l-118 -182q-31 31 -60.5 55.5t-62.5 42t-72 26.5t-89 9q-42 0 -72 -10t-49.5 -27t-28.5 -39t-9 -46q0 -27 13 -46.5t33.5 -34t46.5 -25t53 -19.5q42 -15 84.5 -29.5t84.5 -29.5q21 -8 51 -19t62 -28t63.5 -41.5t56.5 -59t40.5 -80t15.5 -105.5q0 -75 -37 -132.5
t-97.5 -96t-137.5 -58.5t-158 -20q-72 0 -136 8t-121.5 27t-109.5 51.5t-98 81.5z" />
    <glyph glyph-name="t" unicode="t" horiz-adv-x="789" 
d="M45 1026l159 54l68 279h192v-279h265l-24 -186h-241v-551q0 -46 6.5 -77t18.5 -50t30 -27t41 -8q32 0 72.5 7.5t90.5 26.5l60 -127q-72 -55 -141.5 -82t-135.5 -27q-90 0 -148 23.5t-92.5 67t-48 105.5t-13.5 139v580h-159v132z" />
    <glyph glyph-name="u" unicode="u" horiz-adv-x="1297" 
d="M410 1080v-740q0 -43 12.5 -74t33.5 -50.5t49.5 -28.5t61.5 -9q74 0 153 18.5t143 57.5v826h260v-892q0 -26 6 -74.5t18 -113.5h-246q-2 6 -6.5 22.5t-9 35.5t-8.5 36t-5 25q-34 -30 -76.5 -55.5t-89 -44t-93.5 -28.5t-90 -10q-108 0 -179.5 29.5t-114.5 80.5t-61 120
t-18 148v721h260z" />
    <glyph glyph-name="v" unicode="v" horiz-adv-x="1193" 
d="M598 240l266 840h284l-434 -1080h-228l-443 1080h284z" />
    <glyph glyph-name="w" unicode="w" horiz-adv-x="1535" 
d="M47 1080h284l198 -722l170 722h141l196 -721l168 721h284l-356 -1080h-171l-186 712l-162 -712h-181z" />
    <glyph glyph-name="x" unicode="x" horiz-adv-x="1122" 
d="M13 0l413 552l-364 528h284l210 -381l228 381h284l-392 -539l396 -541h-284l-240 394l-251 -394h-284z" />
    <glyph glyph-name="y" unicode="y" horiz-adv-x="1105" 
d="M567 281l224 799h284l-426 -1162q-40 -91 -77 -162t-85 -119.5t-112.5 -74t-159.5 -25.5q-76 0 -142.5 22t-117.5 54l49 158q15 -6 38.5 -13t50.5 -12t56 -8.5t55 -3.5q39 0 69.5 16.5t56 48t47.5 78.5t44 107q7 16 13.5 40t9.5 47l-411 1009h284z" />
    <glyph glyph-name="z" unicode="z" horiz-adv-x="1028" 
d="M84 1080h852v-166l-533 -716h547v-198h-886v164l544 718h-524v198z" />
    <glyph glyph-name="braceleft" unicode="{" horiz-adv-x="836" 
d="M50 777h76q39 0 60.5 18.5t31.5 48.5t12 67t2 74v347q0 83 26 151.5t74 117t117 75t155 26.5h172v-219h-130q-72 0 -102 -47.5t-30 -127.5v-359q-1 -106 -40.5 -171t-101.5 -97v-13q30 -12 56 -42.5t45 -72.5t30 -93t11 -103v-330q0 -94 30 -137t102 -43h130v-220h-172
q-85 0 -153.5 27t-117 76.5t-75 118t-26.5 152.5v335q0 40 -2 79t-13 70.5t-34 51t-65 19.5h-68v221z" />
    <glyph glyph-name="bar" unicode="|" horiz-adv-x="1081" 
d="M646 1566v-1981h-238v1981h238z" />
    <glyph glyph-name="braceright" unicode="}" horiz-adv-x="836" 
d="M786 556h-68q-42 0 -65 -19.5t-34 -51t-13 -70.5t-2 -79v-335q0 -84 -26.5 -152.5t-75 -118t-117 -76.5t-153.5 -27h-172v220h130q72 0 102 43t30 137v330q0 52 11 103t30 93t45 72.5t56 42.5v13q-62 32 -101.5 97t-40.5 171v359q0 80 -30 127.5t-102 47.5h-130v219h172
q86 0 155 -26.5t117 -75t74 -117t26 -151.5v-347q0 -37 2 -74t12 -67t31.5 -48.5t60.5 -18.5h76v-221z" />
    <glyph glyph-name="asciitilde" unicode="~" horiz-adv-x="1399" 
d="M1302 641q-21 -42 -57.5 -88.5t-84.5 -85.5t-106 -64t-123 -25q-42 0 -81 12t-76.5 29.5t-73.5 38.5t-72.5 38.5t-74.5 29.5t-78 12q-59 0 -102.5 -26t-77.5 -67q-10 -13 -16 -22.5t-15 -30.5l-168 126q22 47 58.5 97t85 91t107 67.5t123.5 26.5q67 0 127.5 -25
t117.5 -55t112.5 -55t113.5 -25q31 0 57.5 9.5t49.5 23.5t43 31.5t37 34.5q13 13 22 28z" />
    <glyph glyph-name="nonbreakingspace" unicode="&#xa0;" horiz-adv-x="860" 
 />
    <glyph glyph-name="exclamdown" unicode="&#xa1;" horiz-adv-x="582" 
d="M402 635l36 -1105h-306l60 1105h210zM452 944q0 -32 -12 -60t-32 -48.5t-47 -32.5t-57 -12t-57 12t-47 32.5t-31.5 48.5t-11.5 60t11.5 60t31.5 48.5t47 32.5t57 12t57 -12t47 -32.5t32 -48.5t12 -60z" />
    <glyph glyph-name="cent" unicode="&#xa2;" horiz-adv-x="910" 
d="M844 326q-36 -60 -73 -99t-77.5 -62t-86 -33t-97.5 -12l-13 -146h-90l13 149q-88 12 -154 57t-109.5 112.5t-65.5 152.5t-22 176q0 102 31 191t88.5 154t138 102t179.5 36l13 149h90l-14 -155q34 -5 65 -18q36 -14 71 -38.5t70 -66.5l-111 -135q-29 35 -54 54t-56 33
l-56 -645q30 5 55 15.5t47.5 28.5t44 45t44.5 65zM279 626q0 -59 9.5 -112t29 -97t48.5 -76.5t68 -51.5l57 651q-54 -5 -94 -34t-66 -73.5t-39 -98.5t-13 -108z" />
    <glyph glyph-name="sterling" unicode="&#xa3;" horiz-adv-x="1227" 
d="M171 0l-34 133q39 52 78.5 101t71 99t51.5 103t21 113q1 27 -1.5 57t-9.5 55h-198v176h165q-35 88 -60.5 183t-25.5 185q0 86 38 160t103.5 128t152 84.5t183.5 30.5q106 0 201 -24t175 -75l-140 -205q-37 31 -64.5 52t-54 33t-55 17t-67.5 5q-45 0 -81.5 -11.5
t-62.5 -36t-40.5 -62t-14.5 -88.5q0 -88 30.5 -184.5t72.5 -191.5h340v-176h-295q1 -6 3 -17.5t4 -25t3.5 -26.5t1.5 -22q-2 -60 -16.5 -107t-39 -87.5t-59 -79t-74.5 -81.5h604v-215h-906z" />
    <glyph glyph-name="currency" unicode="&#xa4;" horiz-adv-x="1370" 
d="M1280 1175l-177 -178q54 -69 83 -153.5t29 -178.5q0 -100 -33 -188.5t-91 -160.5l185 -190l-77 -66l-178 184q-69 -60 -155.5 -92.5t-183.5 -32.5q-96 0 -180.5 31.5t-153.5 88.5l-181 -182l-70 70l181 182q-61 72 -95 162.5t-34 193.5q0 94 27.5 178.5t85.5 156.5
l-172 176l83 70l159 -174q34 29 75 54.5t86 44t92.5 29t96.5 10.5q103 0 192.5 -36.5t161.5 -102.5l174 174zM1052 670q0 76 -28 146.5t-77.5 124t-117 85.5t-146.5 32q-80 0 -147.5 -31.5t-117.5 -85t-78 -123.5t-28 -148t28 -150t77.5 -127.5t117.5 -88.5t148 -33
t147.5 33t117 88.5t77 127.5t27.5 150z" />
    <glyph glyph-name="yen" unicode="&#xa5;" horiz-adv-x="1336" 
d="M521 0v311h-386v137h386v172h-385v140h372l-471 807h304l319 -627l329 627h303l-484 -807h371v-140h-383v-172h383v-137h-383v-311h-275z" />
    <glyph glyph-name="brokenbar" unicode="&#xa6;" horiz-adv-x="1081" 
d="M408 -415v896h238v-896h-238zM646 1566v-817h-238v817h238z" />
    <glyph glyph-name="section" unicode="&#xa7;" horiz-adv-x="1217" 
d="M560 875q-31 7 -61.5 16t-58.5 15q-45 -32 -66 -78t-21 -115q0 -73 42.5 -129t127.5 -80q58 -17 115 -32t129 -31q54 31 78 74t24 103q0 39 -16 75.5t-45 67t-68.5 54t-87.5 35.5q-22 6 -46 12.5t-46 12.5zM1132 660q0 -50 -15 -92.5t-41 -78t-62.5 -65.5t-78.5 -55
q48 -26 79.5 -59.5t50.5 -69.5t27 -71t8 -65q0 -75 -22.5 -133.5t-62 -103t-92.5 -75.5t-114 -50.5t-127.5 -28.5t-131.5 -9q-57 0 -119.5 8.5t-124 25.5t-118 43t-101.5 61l115 182q35 -26 74 -51t82 -44.5t88.5 -32t92.5 -12.5q58 0 111 10t93.5 32t64 57.5t23.5 86.5
q0 64 -31 102t-79.5 60.5t-108 35t-116.5 26.5q-96 25 -172 54t-129 71.5t-81.5 103t-28.5 148.5q0 93 49 170t134 125q-86 51 -128.5 118t-42.5 144q0 94 42.5 164.5t114.5 117.5t167.5 70t201.5 23q89 0 159 -11.5t126.5 -32t103 -49.5t89.5 -64l-125 -171
q-38 31 -81.5 59t-90 48t-94.5 32t-95 12q-49 0 -94.5 -9.5t-81 -30.5t-57 -53t-21.5 -77q0 -25 4.5 -49.5t22.5 -46.5t53 -41.5t96 -34.5q8 -2 28.5 -7.5t44.5 -11.5t49 -12.5t42 -10.5q98 -22 177.5 -58t136 -84.5t87 -109t30.5 -130.5z" />
    <glyph glyph-name="dieresis" unicode="&#xa8;" horiz-adv-x="0" 
d="M-390 1433q0 31 11.5 57t31 45t46 29.5t56.5 10.5q31 0 57.5 -11.5t45 -31t29 -46t10.5 -55.5t-10.5 -55t-29 -46t-45 -32t-57.5 -12q-30 0 -56.5 12.5t-46 33t-31 47t-11.5 54.5zM98 1433q0 31 11.5 57t31 45t46 29.5t56.5 10.5q32 0 58 -11.5t45 -31t29 -46t10 -55.5
t-10 -55t-29 -46t-45 -32t-58 -12q-30 0 -56.5 12.5t-46 33t-31 47t-11.5 54.5z" />
    <glyph glyph-name="copyright" unicode="&#xa9;" horiz-adv-x="1794" 
d="M1225 456q-64 -77 -145 -112t-171 -35q-103 0 -179.5 39t-126.5 103.5t-75 147.5t-25 172q0 95 29.5 178.5t83 145t128.5 97t167 35.5q42 0 78 -4.5t68.5 -15.5t63 -30t62.5 -49l-73 -80q-23 20 -45.5 35.5t-46 25.5t-50 15t-57.5 5q-71 0 -121.5 -31t-83.5 -80.5
t-48.5 -110.5t-15.5 -121q0 -64 14.5 -130.5t46 -120.5t80.5 -88t118 -34q68 0 130.5 24.5t113.5 87.5zM109 758q0 109 28 209.5t79.5 188t123.5 159.5t159.5 123.5t188 79.5t209.5 28t209.5 -28t188 -79.5t159.5 -123.5t123.5 -159.5t79.5 -188t28 -209.5t-28 -209.5
t-79.5 -188t-123.5 -159.5t-159.5 -123.5t-188 -79.5t-209.5 -28t-209.5 28t-188 79.5t-159.5 123.5t-123.5 159.5t-79.5 188t-28 209.5zM235 758q0 -137 52 -259t142 -214t210.5 -145.5t257.5 -53.5t257.5 53.5t210.5 145.5t142 214t52 259t-52 259t-142 214t-210.5 145.5
t-257.5 53.5t-257.5 -53.5t-210.5 -145.5t-142 -214t-52 -259z" />
    <glyph glyph-name="ordfeminine" unicode="&#xaa;" horiz-adv-x="1112" 
d="M151 1447q50 34 96 57t91 37t90.5 20.5t95.5 6.5q113 0 189 -18.5t121.5 -55t64.5 -90t19 -123.5v-404q0 -30 3.5 -49.5t11.5 -31t20.5 -16t31.5 -4.5q6 0 25 3t35 6l24 -98q-39 -25 -105 -43.5t-145 -18.5q-45 0 -77.5 26.5t-45.5 80.5q-51 -36 -94 -57t-81.5 -32
t-74.5 -14.5t-74 -3.5q-61 0 -111 16t-85 47.5t-54.5 78.5t-19.5 110q0 71 22.5 121.5t63 86t96 58t121.5 36.5t139.5 22t150.5 15v76q0 29 -12 49.5t-33.5 34t-51 20t-64.5 6.5q-33 0 -65.5 -5t-68 -18t-73.5 -34.5t-81 -55.5zM695 1091q-109 -8 -178.5 -21.5t-109.5 -36
t-55.5 -56.5t-15.5 -84q0 -61 37 -86.5t95 -25.5q27 0 52 4.5t52 15.5t57 29t66 44v217z" />
    <glyph glyph-name="guillemotleft" unicode="&#xab;" horiz-adv-x="1221" 
d="M535 521v35l423 426l108 -91l-235 -339v-25l225 -333l-103 -91zM49 521v35l423 426l108 -91l-235 -339v-25l225 -333l-103 -91z" />
    <glyph glyph-name="logicalnot" unicode="&#xac;" horiz-adv-x="1446" 
d="M134 834h1178v-715h-179v538h-999v177z" />
    <glyph glyph-name="registered" unicode="&#xae;" horiz-adv-x="1794" 
d="M749 803h102q117 0 175 38t58 126q0 93 -58.5 124t-185.5 31h-91v-319zM750 336h-129v882h259q167 0 251 -63.5t84 -195.5q0 -24 -8 -57t-29.5 -66t-57.5 -61.5t-89 -43.5l216 -395h-146l-181 374h-170v-374zM109 758q0 109 28 209.5t79.5 188t123.5 159.5t159.5 123.5
t188 79.5t209.5 28t209.5 -28t188 -79.5t159.5 -123.5t123.5 -159.5t79.5 -188t28 -209.5t-28 -209.5t-79.5 -188t-123.5 -159.5t-159.5 -123.5t-188 -79.5t-209.5 -28t-209.5 28t-188 79.5t-159.5 123.5t-123.5 159.5t-79.5 188t-28 209.5zM235 758q0 -137 52 -259
t142 -214t210.5 -145.5t257.5 -53.5t257.5 53.5t210.5 145.5t142 214t52 259t-52 259t-142 214t-210.5 145.5t-257.5 53.5t-257.5 -53.5t-210.5 -145.5t-142 -214t-52 -259z" />
    <glyph glyph-name="macron" unicode="&#xaf;" horiz-adv-x="0" 
d="M-322 1418h646v-212h-646v212z" />
    <glyph glyph-name="degree" unicode="&#xb0;" horiz-adv-x="703" 
d="M71 1486q0 59 22 111t60.5 90.5t89.5 60.5t110 22q58 0 110 -22t90.5 -60.5t61 -90.5t22.5 -111t-22.5 -110t-61 -89t-90.5 -60t-110 -22q-59 0 -110 22t-89.5 60t-60.5 89t-22 110zM246 1491q0 -30 8.5 -56.5t22.5 -46t33 -30.5t40 -11q24 0 44.5 11t35.5 30.5t23.5 46
t8.5 56.5q0 28 -8.5 53t-23.5 43.5t-35.5 29.5t-44.5 11q-21 0 -40 -11t-33 -29.5t-22.5 -43.5t-8.5 -53z" />
    <glyph glyph-name="plusminus" unicode="&#xb1;" horiz-adv-x="1245" 
d="M1150 -20v-167h-1044v167h1044zM706 1193v-461h439v-167h-439v-474h-167v474h-437v167h437v461h167z" />
    <glyph glyph-name="twosuperior" unicode="&#xb2;" horiz-adv-x="915" 
d="M870 629h-803v157q21 61 53 101.5t73.5 70.5t90.5 55t104 56q51 28 88 48t62 42t37 50t12 72q0 20 -8 39t-24.5 34t-42 24t-59.5 9q-25 0 -55 -7.5t-59.5 -21.5t-57 -34.5t-46.5 -46.5l-140 181q75 57 170.5 90t214.5 33q83 0 154 -16.5t122.5 -49t81 -81t29.5 -111.5
q0 -82 -29 -138.5t-73.5 -95.5t-98 -65.5t-101.5 -48.5q-46 -21 -84 -39t-65.5 -35.5t-42.5 -34t-15 -34.5h513z" />
    <glyph glyph-name="threesuperior" unicode="&#xb3;" horiz-adv-x="952" 
d="M347 1198q44 0 85 7t72 22t49.5 37.5t18.5 54.5q0 39 -33 57.5t-92 18.5q-80 0 -137.5 -24.5t-103.5 -66.5l-118 175q53 42 142 72t223 30q82 0 154 -14t125 -41.5t84 -68t31 -92.5q0 -82 -60.5 -132t-165.5 -76q56 -5 103.5 -21t82.5 -44.5t54.5 -69t19.5 -92.5
q0 -84 -29.5 -142.5t-88.5 -95t-147.5 -53t-205.5 -16.5q-64 0 -119 11.5t-99 29t-77.5 38t-53.5 38.5l118 175q16 -16 41 -33t57 -31t70 -23t80 -9q82 0 128.5 27.5t46.5 92.5q0 38 -20.5 60.5t-56 34.5t-82.5 15.5t-100 4.5z" />
    <glyph glyph-name="acute" unicode="&#xb4;" horiz-adv-x="0" 
d="M-224 1316l343 429l189 -208l-423 -328z" />
    <glyph glyph-name="uni00B5" unicode="&#xb5;" horiz-adv-x="1297" 
d="M410 1080v-760q0 -75 42 -108.5t128 -33.5q61 0 140 18.5t143 57.5v826h260v-892q0 -26 6 -74.5t18 -113.5h-246q-2 6 -6.5 22.5t-9 35.5t-8.5 36t-5 25q-34 -30 -76.5 -55.5t-89 -44t-93.5 -28.5t-87 -10q-52 0 -116 28v-472h-260v1543h260z" />
    <glyph glyph-name="paragraph" unicode="&#xb6;" horiz-adv-x="1260" 
d="M489 758q-96 0 -170 28t-125 80.5t-77 128t-26 171.5q0 102 32 177t102 125t180.5 74.5t266.5 24.5q13 0 31 -1t37.5 -2t39 -3t36.5 -3v-1558h-209v758h-118zM1119 1567v-1567h-209v1559z" />
    <glyph glyph-name="periodcentered" unicode="&#xb7;" horiz-adv-x="487" 
d="M109 717q0 30 11 56t30 45.5t44.5 30.5t53.5 11t53 -11t44 -30.5t29.5 -45.5t10.5 -56t-10.5 -56t-29.5 -45.5t-44 -30.5t-53 -11t-53.5 11t-44.5 30.5t-30 45.5t-11 56z" />
    <glyph glyph-name="cedilla" unicode="&#xb8;" horiz-adv-x="0" 
d="M-159 -295q44 -45 73.5 -67t49.5 -22q11 0 23 4t22.5 14t17.5 26.5t7 41.5q0 19 -8 41t-26 42.5t-47 35.5t-71 20l32 161h224l-65 -87q36 -7 68.5 -23.5t57 -43t39 -63t14.5 -83.5q0 -57 -20 -106.5t-56.5 -86.5t-88.5 -58t-115 -21q-66 0 -128.5 22.5t-123.5 86.5z" />
    <glyph glyph-name="onesuperior" unicode="&#xb9;" horiz-adv-x="747" 
d="M267 833v456l-178 -117v256l255 153h192v-748h156v-202h-601v202h176z" />
    <glyph glyph-name="ordmasculine" unicode="&#xba;" horiz-adv-x="1169" 
d="M599 637q-114 0 -202 35.5t-147 100.5t-89.5 157.5t-30.5 205.5q0 96 28.5 182t86 150.5t145 102.5t206.5 38q112 0 197 -38t142 -104t85.5 -155.5t28.5 -191.5q0 -100 -33 -188t-92.5 -153.5t-142 -103.5t-182.5 -38zM594 806q57 0 98 29t67.5 77.5t39 111t12.5 128.5
q0 61 -13.5 113.5t-41 91.5t-68.5 61.5t-96 22.5q-56 0 -98 -23t-70 -64.5t-42 -99.5t-14 -128q0 -57 13 -114t40.5 -103t70 -74.5t102.5 -28.5z" />
    <glyph glyph-name="guillemotright" unicode="&#xbb;" horiz-adv-x="1312" 
d="M806 103l-103 91l225 333v25l-235 339l108 91l423 -426v-35zM293 103l-103 91l225 333v25l-235 339l108 91l423 -426v-35z" />
    <glyph glyph-name="onequarter" unicode="&#xbc;" horiz-adv-x="2064" 
d="M378 75l1256 1538l154 -108l-1251 -1544zM1551 253h-428v63l451 615h240v-513h158v-165h-152v-258h-269v258zM1338 418h213v297zM267 833v456l-178 -117v256l255 153h192v-748h156v-202h-601v202h176z" />
    <glyph glyph-name="onehalf" unicode="&#xbd;" horiz-adv-x="2285" 
d="M385 75l1256 1538l154 -108l-1251 -1544zM267 833v456l-178 -117v256l255 153h192v-748h156v-202h-601v202h176zM2185 -5h-803v157q21 61 53 101.5t73.5 70.5t90.5 55t104 56q51 28 88 48t62 42t37 50t12 72q0 20 -8 39t-24.5 34t-42 24t-59.5 9q-25 0 -55 -7.5
t-59.5 -21.5t-57 -34.5t-46.5 -46.5l-140 181q75 57 170.5 90t214.5 33q83 0 154 -16.5t122.5 -49t81 -81t29.5 -111.5q0 -82 -29 -138.5t-73.5 -95.5t-98 -65.5t-101.5 -48.5q-46 -21 -84 -39t-65.5 -35.5t-42.5 -34t-15 -34.5h513z" />
    <glyph glyph-name="threequarters" unicode="&#xbe;" horiz-adv-x="2144" 
d="M475 75l1256 1538l154 -108l-1251 -1544zM1650 253h-428v63l451 615h240v-513h158v-165h-152v-258h-269v258zM1437 418h213v297zM347 1198q44 0 85 7t72 22t49.5 37.5t18.5 54.5q0 39 -33 57.5t-92 18.5q-80 0 -137.5 -24.5t-103.5 -66.5l-118 175q53 42 142 72t223 30
q82 0 154 -14t125 -41.5t84 -68t31 -92.5q0 -82 -60.5 -132t-165.5 -76q56 -5 103.5 -21t82.5 -44.5t54.5 -69t19.5 -92.5q0 -84 -29.5 -142.5t-88.5 -95t-147.5 -53t-205.5 -16.5q-64 0 -119 11.5t-99 29t-77.5 38t-53.5 38.5l118 175q16 -16 41 -33t57 -31t70 -23t80 -9
q82 0 128.5 27.5t46.5 92.5q0 38 -20.5 60.5t-56 34.5t-82.5 15.5t-100 4.5z" />
    <glyph glyph-name="questiondown" unicode="&#xbf;" horiz-adv-x="1117" 
d="M813 788q0 -71 -4.5 -122.5t-19 -93.5t-42.5 -79.5t-75 -78.5q-56 -49 -103.5 -86t-82 -79t-53.5 -98.5t-19 -143.5q0 -44 15.5 -83.5t46 -70t76.5 -48.5t108 -18q28 0 58 8.5t58.5 22t54 31.5t45.5 36l141 -163q-32 -32 -74 -57.5t-92 -43.5t-106.5 -27.5t-116.5 -9.5
q-99 0 -186 26.5t-152 81t-102.5 138.5t-37.5 199q0 75 18.5 134.5t49 107t69 85t79 68.5t79 57.5t68.5 53.5q29 25 45 49t23.5 52.5t8.5 64.5t1 87h222zM835 1063q0 -30 -11 -56t-30 -45.5t-44 -30.5t-53 -11q-29 0 -54 11t-43.5 30.5t-29.5 45.5t-11 56t11 56t29.5 45.5
t43.5 30.5t54 11q28 0 53 -11t44 -30.5t30 -45.5t11 -56z" />
    <glyph glyph-name="Agrave" unicode="&#xc0;" horiz-adv-x="1436" 
d="M599 1568h245l555 -1568h-323l-163 490h-464l-156 -490h-260zM506 691h357l-174 566zM748 1680l-436 339l212 194l326 -431z" />
    <glyph glyph-name="Aacute" unicode="&#xc1;" horiz-adv-x="1436" 
d="M599 1568h245l555 -1568h-323l-163 490h-464l-156 -490h-260zM506 691h357l-174 566zM499 1784l343 429l189 -208l-423 -328z" />
    <glyph glyph-name="Acircumflex" unicode="&#xc2;" horiz-adv-x="1436" 
d="M599 1568h245l555 -1568h-323l-163 490h-464l-156 -490h-260zM506 691h357l-174 566zM669 2130h116l319 -410l-106 -94l-271 262l-269 -262l-113 98z" />
    <glyph glyph-name="Atilde" unicode="&#xc3;" horiz-adv-x="1436" 
d="M599 1568h245l555 -1568h-323l-163 490h-464l-156 -490h-260zM506 691h357l-174 566zM1120 1901q-14 -44 -40 -85.5t-60.5 -73t-76 -50.5t-87.5 -19q-44 0 -77.5 15.5t-64 33.5t-60.5 33.5t-67 15.5q-51 0 -85 -29t-51 -69l-119 57q11 43 36.5 85t61 74.5t79.5 52.5
t92 20q43 0 76.5 -15t62.5 -33t56 -33t56 -15q19 0 39 4.5t38.5 16t35 31t29.5 48.5z" />
    <glyph glyph-name="Adieresis" unicode="&#xc4;" horiz-adv-x="1436" 
d="M599 1568h245l555 -1568h-323l-163 490h-464l-156 -490h-260zM506 691h357l-174 566zM336 1879q0 31 11.5 57t31 45t46 29.5t56.5 10.5q31 0 57.5 -11.5t45 -31t29 -46t10.5 -55.5t-10.5 -55t-29 -46t-45 -32t-57.5 -12q-30 0 -56.5 12.5t-46 33t-31 47t-11.5 54.5z
M824 1879q0 31 11.5 57t31 45t46 29.5t56.5 10.5q32 0 58 -11.5t45 -31t29 -46t10 -55.5t-10 -55t-29 -46t-45 -32t-58 -12q-30 0 -56.5 12.5t-46 33t-31 47t-11.5 54.5z" />
    <glyph glyph-name="Aring" unicode="&#xc5;" horiz-adv-x="1436" 
d="M427 1797q0 59 22 111t60.5 90.5t89.5 60.5t110 22q58 0 110 -22t90.5 -60.5t61 -90.5t22.5 -111t-22.5 -110t-61.5 -89q-26 -27 -60 -46l550 -1552h-323l-163 490h-464l-156 -490h-260l556 1542q-45 21 -80 56q-38 38 -60 89t-22 110zM506 691h357l-174 566zM602 1802
q0 -30 8.5 -56.5t22.5 -46t33 -30.5t40 -11q24 0 44.5 11t35.5 30.5t23.5 46t8.5 56.5q0 28 -8.5 53t-23.5 43.5t-35.5 29.5t-44.5 11q-21 0 -40 -11t-33 -29.5t-22.5 -43.5t-8.5 -53z" />
    <glyph glyph-name="AE" unicode="&#xc6;" horiz-adv-x="1955" 
d="M1865 1367h-658v-453h531v-201h-531v-511h685v-202h-960v498h-356l-264 -498h-288l852 1569h989v-202zM674 699h258v481h-16z" />
    <glyph glyph-name="Ccedilla" unicode="&#xc7;" horiz-adv-x="1426" 
d="M631 -295q44 -45 73.5 -67t49.5 -22q11 0 23 4t22.5 14t17.5 26.5t7 41.5q0 19 -8 41t-26 42.5t-47 35.5t-71 20l27 136q-110 13 -199 59q-125 66 -209.5 178t-127 261t-42.5 316q0 105 17.5 207t53.5 192.5t91.5 167t132 132.5t174 87t217.5 31q72 0 136.5 -9t122 -29
t110.5 -54t103 -83l-151 -187q-37 39 -73.5 67t-75.5 46t-82 26t-94 8q-102 0 -176 -46.5t-122 -123.5t-71 -176t-23 -205q0 -139 27.5 -258.5t77.5 -208t120 -139t156 -50.5q76 0 130.5 13.5t96 38.5t74.5 61.5t66 83.5l179 -157q-68 -81 -129 -130.5t-124.5 -77.5
t-134.5 -37q-20 -3 -42 -5l-45 -61q36 -7 68.5 -23.5t57 -43t39 -63t14.5 -83.5q0 -57 -20 -106.5t-56.5 -86.5t-88.5 -58t-115 -21q-66 0 -128.5 22.5t-123.5 86.5z" />
    <glyph glyph-name="Egrave" unicode="&#xc8;" horiz-adv-x="1154" 
d="M1038 1364h-613v-429h488v-202h-488v-530h639v-203h-914v1567h888v-203zM657 1675l-436 339l212 194l326 -431z" />
    <glyph glyph-name="Eacute" unicode="&#xc9;" horiz-adv-x="1154" 
d="M1038 1364h-613v-429h488v-202h-488v-530h639v-203h-914v1567h888v-203zM364 1784l343 429l189 -208l-423 -328z" />
    <glyph glyph-name="Ecircumflex" unicode="&#xca;" horiz-adv-x="1154" 
d="M1038 1364h-613v-429h488v-202h-488v-530h639v-203h-914v1567h888v-203zM508 2179h116l319 -410l-106 -94l-271 262l-269 -262l-113 98z" />
    <glyph glyph-name="Edieresis" unicode="&#xcb;" horiz-adv-x="1154" 
d="M1038 1364h-613v-429h488v-202h-488v-530h639v-203h-914v1567h888v-203zM205 1901q0 31 11.5 57t31 45t46 29.5t56.5 10.5q31 0 57.5 -11.5t45 -31t29 -46t10.5 -55.5t-10.5 -55t-29 -46t-45 -32t-57.5 -12q-30 0 -56.5 12.5t-46 33t-31 47t-11.5 54.5zM693 1901
q0 31 11.5 57t31 45t46 29.5t56.5 10.5q32 0 58 -11.5t45 -31t29 -46t10 -55.5t-10 -55t-29 -46t-45 -32t-58 -12q-30 0 -56.5 12.5t-46 33t-31 47t-11.5 54.5z" />
    <glyph glyph-name="Igrave" unicode="&#xcc;" horiz-adv-x="582" 
d="M150 0v1567h275v-1567h-275zM284 1675l-436 339l212 194l326 -431z" />
    <glyph glyph-name="Iacute" unicode="&#xcd;" horiz-adv-x="574" 
d="M150 0v1567h275v-1567h-275zM81 1779l343 429l189 -208l-423 -328z" />
    <glyph glyph-name="Icircumflex" unicode="&#xce;" horiz-adv-x="582" 
d="M150 0v1567h275v-1567h-275zM235 2175h116l319 -410l-106 -94l-271 262l-269 -262l-113 98z" />
    <glyph glyph-name="Idieresis" unicode="&#xcf;" horiz-adv-x="578" 
d="M150 0v1567h275v-1567h-275zM-100 1903q0 31 11.5 57t31 45t46 29.5t56.5 10.5q31 0 57.5 -11.5t45 -31t29 -46t10.5 -55.5t-10.5 -55t-29 -46t-45 -32t-57.5 -12q-30 0 -56.5 12.5t-46 33t-31 47t-11.5 54.5zM388 1903q0 31 11.5 57t31 45t46 29.5t56.5 10.5
q32 0 58 -11.5t45 -31t29 -46t10 -55.5t-10 -55t-29 -46t-45 -32t-58 -12q-30 0 -56.5 12.5t-46 33t-31 47t-11.5 54.5z" />
    <glyph glyph-name="Eth" unicode="&#xd0;" horiz-adv-x="1467" 
d="M544 1567q216 0 366.5 -61t245.5 -165.5t138 -243t43 -293.5q0 -108 -18 -209.5t-57.5 -190.5t-102.5 -163.5t-152.5 -128t-207 -83t-266.5 -29.5h-383v716h-135v202h135v649h394zM425 1365v-447h289v-202h-289l-1 -514h85q116 0 212.5 37t165.5 112t107 189t38 267
q0 107 -25 207.5t-83.5 178.5t-155.5 125t-240 47h-103z" />
    <glyph glyph-name="Ntilde" unicode="&#xd1;" horiz-adv-x="1480" 
d="M410 1122v-1122h-275v1567h260l666 -1127v1127h275l4 -1567h-260zM1133 1897q-14 -44 -40 -85.5t-60.5 -73t-76 -50.5t-87.5 -19q-44 0 -77.5 15.5t-64 33.5t-60.5 33.5t-67 15.5q-51 0 -85 -29t-51 -69l-119 57q11 43 36.5 85t61 74.5t79.5 52.5t92 20q43 0 76.5 -15
t62.5 -33t56 -33t56 -15q19 0 39 4.5t38.5 16t35 31t29.5 48.5z" />
    <glyph glyph-name="Ograve" unicode="&#xd2;" horiz-adv-x="1680" 
d="M1555 816q0 -118 -23.5 -227t-68 -203.5t-108 -171.5t-143 -132t-173.5 -85t-200 -30q-170 0 -302.5 60t-224 169t-139.5 261.5t-48 337.5q0 178 50 327t143 257t226.5 168t300.5 60q156 0 286.5 -54.5t224.5 -156.5t146.5 -249t52.5 -331zM1265 791q0 135 -29.5 245.5
t-84.5 189.5t-133 122.5t-175 43.5q-95 0 -173.5 -41t-135 -117.5t-88 -184.5t-31.5 -241q0 -135 26.5 -249.5t79 -198.5t130.5 -131t180 -47t182.5 50.5t136.5 135t85.5 194.5t29.5 229zM848 1675l-436 339l212 194l326 -431z" />
    <glyph glyph-name="Oacute" unicode="&#xd3;" horiz-adv-x="1680" 
d="M1555 816q0 -118 -23.5 -227t-68 -203.5t-108 -171.5t-143 -132t-173.5 -85t-200 -30q-170 0 -302.5 60t-224 169t-139.5 261.5t-48 337.5q0 178 50 327t143 257t226.5 168t300.5 60q156 0 286.5 -54.5t224.5 -156.5t146.5 -249t52.5 -331zM1265 791q0 135 -29.5 245.5
t-84.5 189.5t-133 122.5t-175 43.5q-95 0 -173.5 -41t-135 -117.5t-88 -184.5t-31.5 -241q0 -135 26.5 -249.5t79 -198.5t130.5 -131t180 -47t182.5 50.5t136.5 135t85.5 194.5t29.5 229zM674 1784l343 429l189 -208l-423 -328z" />
    <glyph glyph-name="Ocircumflex" unicode="&#xd4;" horiz-adv-x="1680" 
d="M1555 816q0 -118 -23.5 -227t-68 -203.5t-108 -171.5t-143 -132t-173.5 -85t-200 -30q-170 0 -302.5 60t-224 169t-139.5 261.5t-48 337.5q0 178 50 327t143 257t226.5 168t300.5 60q156 0 286.5 -54.5t224.5 -156.5t146.5 -249t52.5 -331zM1265 791q0 135 -29.5 245.5
t-84.5 189.5t-133 122.5t-175 43.5q-95 0 -173.5 -41t-135 -117.5t-88 -184.5t-31.5 -241q0 -135 26.5 -249.5t79 -198.5t130.5 -131t180 -47t182.5 50.5t136.5 135t85.5 194.5t29.5 229zM762 2183h116l319 -410l-106 -94l-271 262l-269 -262l-113 98z" />
    <glyph glyph-name="Otilde" unicode="&#xd5;" horiz-adv-x="1680" 
d="M1555 816q0 -118 -23.5 -227t-68 -203.5t-108 -171.5t-143 -132t-173.5 -85t-200 -30q-170 0 -302.5 60t-224 169t-139.5 261.5t-48 337.5q0 178 50 327t143 257t226.5 168t300.5 60q156 0 286.5 -54.5t224.5 -156.5t146.5 -249t52.5 -331zM1265 791q0 135 -29.5 245.5
t-84.5 189.5t-133 122.5t-175 43.5q-95 0 -173.5 -41t-135 -117.5t-88 -184.5t-31.5 -241q0 -135 26.5 -249.5t79 -198.5t130.5 -131t180 -47t182.5 50.5t136.5 135t85.5 194.5t29.5 229zM1217 1904q-14 -44 -40 -85.5t-60.5 -73t-76 -50.5t-87.5 -19q-44 0 -77.5 15.5
t-64 33.5t-60.5 33.5t-67 15.5q-51 0 -85 -29t-51 -69l-119 57q11 43 36.5 85t61 74.5t79.5 52.5t92 20q43 0 76.5 -15t62.5 -33t56 -33t56 -15q19 0 39 4.5t38.5 16t35 31t29.5 48.5z" />
    <glyph glyph-name="Odieresis" unicode="&#xd6;" horiz-adv-x="1680" 
d="M1555 816q0 -118 -23.5 -227t-68 -203.5t-108 -171.5t-143 -132t-173.5 -85t-200 -30q-170 0 -302.5 60t-224 169t-139.5 261.5t-48 337.5q0 178 50 327t143 257t226.5 168t300.5 60q156 0 286.5 -54.5t224.5 -156.5t146.5 -249t52.5 -331zM1265 791q0 135 -29.5 245.5
t-84.5 189.5t-133 122.5t-175 43.5q-95 0 -173.5 -41t-135 -117.5t-88 -184.5t-31.5 -241q0 -135 26.5 -249.5t79 -198.5t130.5 -131t180 -47t182.5 50.5t136.5 135t85.5 194.5t29.5 229zM458 1893q0 31 11.5 57t31 45t46 29.5t56.5 10.5q31 0 57.5 -11.5t45 -31t29 -46
t10.5 -55.5t-10.5 -55t-29 -46t-45 -32t-57.5 -12q-30 0 -56.5 12.5t-46 33t-31 47t-11.5 54.5zM946 1893q0 31 11.5 57t31 45t46 29.5t56.5 10.5q32 0 58 -11.5t45 -31t29 -46t10 -55.5t-10 -55t-29 -46t-45 -32t-58 -12q-30 0 -56.5 12.5t-46 33t-31 47t-11.5 54.5z" />
    <glyph glyph-name="multiply" unicode="&#xd7;" horiz-adv-x="1189" 
d="M86 84l409 479l-390 459l128 108l379 -440l376 438l135 -101l-395 -465l413 -483l-137 -113l-392 468l-396 -467z" />
    <glyph glyph-name="Oslash" unicode="&#xd8;" horiz-adv-x="1680" 
d="M1559 1560l-173 -199q81 -101 125 -238t44 -307q0 -118 -23.5 -227t-68 -203.5t-108 -171.5t-143 -132t-173.5 -85t-200 -30q-156 0 -279.5 50t-214.5 143l-187 -215l-108 94l205 236q-64 104 -97 234.5t-33 285.5q0 178 50 327t143 257t226.5 168t300.5 60
q129 0 240 -37t200 -108l166 192zM1265 791q0 103 -17.5 191.5t-50.5 160.5l-677 -781q53 -85 130.5 -132.5t180.5 -47.5q102 0 182.5 50.5t136.5 135t85.5 194.5t29.5 229zM415 808q0 -84 10 -159.5t30 -141.5l662 762q-54 60 -122.5 91.5t-151.5 31.5q-95 0 -173.5 -41
t-135 -117.5t-88 -184.5t-31.5 -241z" />
    <glyph glyph-name="Ugrave" unicode="&#xd9;" horiz-adv-x="1540" 
d="M425 1567v-1044q0 -72 19 -132.5t60 -104t105 -67.5t153 -24q99 0 167 25t109 70t59 106.5t18 135.5v1035h275v-1020q0 -141 -34.5 -247t-111 -177t-197.5 -107t-294 -36q-159 0 -273 34.5t-187.5 103.5t-108 173.5t-34.5 244.5v1031h275zM846 1656l-436 339l212 194
l326 -431z" />
    <glyph glyph-name="Uacute" unicode="&#xda;" horiz-adv-x="1540" 
d="M425 1567v-1044q0 -72 19 -132.5t60 -104t105 -67.5t153 -24q99 0 167 25t109 70t59 106.5t18 135.5v1035h275v-1020q0 -141 -34.5 -247t-111 -177t-197.5 -107t-294 -36q-159 0 -273 34.5t-187.5 103.5t-108 173.5t-34.5 244.5v1031h275zM612 1765l343 429l189 -208
l-423 -328z" />
    <glyph glyph-name="Ucircumflex" unicode="&#xdb;" horiz-adv-x="1540" 
d="M425 1567v-1044q0 -72 19 -132.5t60 -104t105 -67.5t153 -24q99 0 167 25t109 70t59 106.5t18 135.5v1035h275v-1020q0 -141 -34.5 -247t-111 -177t-197.5 -107t-294 -36q-159 0 -273 34.5t-187.5 103.5t-108 173.5t-34.5 244.5v1031h275zM712 2184h116l319 -410
l-106 -94l-271 262l-269 -262l-113 98z" />
    <glyph glyph-name="Udieresis" unicode="&#xdc;" horiz-adv-x="1540" 
d="M425 1567v-1044q0 -72 19 -132.5t60 -104t105 -67.5t153 -24q99 0 167 25t109 70t59 106.5t18 135.5v1035h275v-1020q0 -141 -34.5 -247t-111 -177t-197.5 -107t-294 -36q-159 0 -273 34.5t-187.5 103.5t-108 173.5t-34.5 244.5v1031h275zM398 1895q0 31 11.5 57t31 45
t46 29.5t56.5 10.5q31 0 57.5 -11.5t45 -31t29 -46t10.5 -55.5t-10.5 -55t-29 -46t-45 -32t-57.5 -12q-30 0 -56.5 12.5t-46 33t-31 47t-11.5 54.5zM886 1895q0 31 11.5 57t31 45t46 29.5t56.5 10.5q32 0 58 -11.5t45 -31t29 -46t10 -55.5t-10 -55t-29 -46t-45 -32t-58 -12
q-30 0 -56.5 12.5t-46 33t-31 47t-11.5 54.5z" />
    <glyph glyph-name="Yacute" unicode="&#xdd;" horiz-adv-x="1336" 
d="M521 0v700l-484 867h304l336 -652l312 652h303l-496 -851v-716h-275zM533 1711l343 429l189 -208l-423 -328z" />
    <glyph glyph-name="Thorn" unicode="&#xde;" horiz-adv-x="1257" 
d="M427 0h-275v1567h275v-279h97q147 0 250 -37.5t168.5 -103t95.5 -154.5t30 -192q0 -99 -33.5 -185t-100.5 -149.5t-166.5 -99.5t-231.5 -36h-109v-331zM427 515h102q67 0 117 25.5t83 67t49.5 95t16.5 109.5t-15 108.5t-52 93t-99 64.5t-156 24h-46v-587z" />
    <glyph glyph-name="germandbls" unicode="&#xdf;" horiz-adv-x="1286" 
d="M1196 355q0 -194 -113.5 -285.5t-332.5 -91.5q-27 0 -63 6t-72 16t-68 23t-52 27l103 187q47 -29 86 -47t86 -18q48 0 80.5 13.5t52.5 37t28.5 56t8.5 70.5q0 60 -24.5 104t-61 79t-79.5 65t-79.5 61.5t-61 69t-24.5 87.5q0 42 8.5 72t22 52t30 39t33.5 34
q19 20 39.5 41.5t38 47t28.5 56.5t11 71t-13 67.5t-36.5 44t-57 24t-73.5 7.5q-61 0 -102.5 -19.5t-67.5 -54.5t-37.5 -82.5t-11.5 -103.5v-1111h-260v1111q0 95 35.5 178t102 145t162.5 97.5t216 35.5q97 0 174 -18.5t130.5 -56.5t81.5 -95.5t28 -135.5q0 -46 -15 -84.5
t-37.5 -70.5t-48.5 -57.5t-47 -45.5t-41.5 -38.5t-36.5 -39t-26 -43.5t-10 -52q0 -33 27 -59t68 -52.5t88 -57.5t88 -73t68 -98.5t27 -134.5z" />
    <glyph glyph-name="agrave" unicode="&#xe0;" horiz-adv-x="1291" 
d="M147 933q85 77 202 120.5t246 43.5q87 0 167 -20t142 -61t99 -105.5t37 -152.5v-482q0 -35 4 -58.5t13.5 -37t24.5 -19t37 -5.5q8 0 30 3t42 7l28 -115q-24 -15 -49 -28t-53.5 -22.5t-62 -15.5t-73.5 -6q-75 0 -125.5 34.5t-64.5 98.5q-42 -39 -87 -65t-90.5 -41t-91 -21
t-88.5 -6q-73 0 -131 19t-99 56.5t-63 93t-22 129.5q0 83 25.5 145.5t70.5 107.5t107 74.5t135.5 46.5t155.5 24t167 7v39q0 53 -15 91t-41.5 62t-63.5 35.5t-82 11.5q-38 0 -72 -6.5t-68.5 -23t-71.5 -44t-82 -70.5zM780 564q-116 -5 -190.5 -25t-118 -52.5t-60.5 -76
t-17 -95.5q0 -44 10 -73t28.5 -47t44.5 -25.5t57 -7.5q28 0 57.5 3t60.5 11.5t63 23.5t65 38v326zM751 1207l-436 339l212 194l326 -431z" />
    <glyph glyph-name="aacute" unicode="&#xe1;" horiz-adv-x="1291" 
d="M147 933q85 77 202 120.5t246 43.5q87 0 167 -20t142 -61t99 -105.5t37 -152.5v-482q0 -35 4 -58.5t13.5 -37t24.5 -19t37 -5.5q8 0 30 3t42 7l28 -115q-24 -15 -49 -28t-53.5 -22.5t-62 -15.5t-73.5 -6q-75 0 -125.5 34.5t-64.5 98.5q-42 -39 -87 -65t-90.5 -41t-91 -21
t-88.5 -6q-73 0 -131 19t-99 56.5t-63 93t-22 129.5q0 83 25.5 145.5t70.5 107.5t107 74.5t135.5 46.5t155.5 24t167 7v39q0 53 -15 91t-41.5 62t-63.5 35.5t-82 11.5q-38 0 -72 -6.5t-68.5 -23t-71.5 -44t-82 -70.5zM780 564q-116 -5 -190.5 -25t-118 -52.5t-60.5 -76
t-17 -95.5q0 -44 10 -73t28.5 -47t44.5 -25.5t57 -7.5q28 0 57.5 3t60.5 11.5t63 23.5t65 38v326zM419 1316l343 429l189 -208l-423 -328z" />
    <glyph glyph-name="acircumflex" unicode="&#xe2;" horiz-adv-x="1291" 
d="M147 933q85 77 202 120.5t246 43.5q87 0 167 -20t142 -61t99 -105.5t37 -152.5v-482q0 -35 4 -58.5t13.5 -37t24.5 -19t37 -5.5q8 0 30 3t42 7l28 -115q-24 -15 -49 -28t-53.5 -22.5t-62 -15.5t-73.5 -6q-75 0 -125.5 34.5t-64.5 98.5q-42 -39 -87 -65t-90.5 -41t-91 -21
t-88.5 -6q-73 0 -131 19t-99 56.5t-63 93t-22 129.5q0 83 25.5 145.5t70.5 107.5t107 74.5t135.5 46.5t155.5 24t167 7v39q0 53 -15 91t-41.5 62t-63.5 35.5t-82 11.5q-38 0 -72 -6.5t-68.5 -23t-71.5 -44t-82 -70.5zM780 564q-116 -5 -190.5 -25t-118 -52.5t-60.5 -76
t-17 -95.5q0 -44 10 -73t28.5 -47t44.5 -25.5t57 -7.5q28 0 57.5 3t60.5 11.5t63 23.5t65 38v326zM587 1711h116l319 -410l-106 -94l-271 262l-269 -262l-113 98z" />
    <glyph glyph-name="atilde" unicode="&#xe3;" horiz-adv-x="1291" 
d="M147 933q85 77 202 120.5t246 43.5q87 0 167 -20t142 -61t99 -105.5t37 -152.5v-482q0 -35 4 -58.5t13.5 -37t24.5 -19t37 -5.5q8 0 30 3t42 7l28 -115q-24 -15 -49 -28t-53.5 -22.5t-62 -15.5t-73.5 -6q-75 0 -125.5 34.5t-64.5 98.5q-42 -39 -87 -65t-90.5 -41t-91 -21
t-88.5 -6q-73 0 -131 19t-99 56.5t-63 93t-22 129.5q0 83 25.5 145.5t70.5 107.5t107 74.5t135.5 46.5t155.5 24t167 7v39q0 53 -15 91t-41.5 62t-63.5 35.5t-82 11.5q-38 0 -72 -6.5t-68.5 -23t-71.5 -44t-82 -70.5zM780 564q-116 -5 -190.5 -25t-118 -52.5t-60.5 -76
t-17 -95.5q0 -44 10 -73t28.5 -47t44.5 -25.5t57 -7.5q28 0 57.5 3t60.5 11.5t63 23.5t65 38v326zM1032 1432q-14 -44 -40 -85.5t-60.5 -73t-76 -50.5t-87.5 -19q-44 0 -77.5 15.5t-64 33.5t-60.5 33.5t-67 15.5q-51 0 -85 -29t-51 -69l-119 57q11 43 36.5 85t61 74.5
t79.5 52.5t92 20q43 0 76.5 -15t62.5 -33t56 -33t56 -15q19 0 39 4.5t38.5 16t35 31t29.5 48.5z" />
    <glyph glyph-name="adieresis" unicode="&#xe4;" horiz-adv-x="1291" 
d="M147 933q85 77 202 120.5t246 43.5q87 0 167 -20t142 -61t99 -105.5t37 -152.5v-482q0 -35 4 -58.5t13.5 -37t24.5 -19t37 -5.5q8 0 30 3t42 7l28 -115q-24 -15 -49 -28t-53.5 -22.5t-62 -15.5t-73.5 -6q-75 0 -125.5 34.5t-64.5 98.5q-42 -39 -87 -65t-90.5 -41t-91 -21
t-88.5 -6q-73 0 -131 19t-99 56.5t-63 93t-22 129.5q0 83 25.5 145.5t70.5 107.5t107 74.5t135.5 46.5t155.5 24t167 7v39q0 53 -15 91t-41.5 62t-63.5 35.5t-82 11.5q-38 0 -72 -6.5t-68.5 -23t-71.5 -44t-82 -70.5zM780 564q-116 -5 -190.5 -25t-118 -52.5t-60.5 -76
t-17 -95.5q0 -44 10 -73t28.5 -47t44.5 -25.5t57 -7.5q28 0 57.5 3t60.5 11.5t63 23.5t65 38v326zM256 1433q0 31 11.5 57t31 45t46 29.5t56.5 10.5q31 0 57.5 -11.5t45 -31t29 -46t10.5 -55.5t-10.5 -55t-29 -46t-45 -32t-57.5 -12q-30 0 -56.5 12.5t-46 33t-31 47
t-11.5 54.5zM744 1433q0 31 11.5 57t31 45t46 29.5t56.5 10.5q32 0 58 -11.5t45 -31t29 -46t10 -55.5t-10 -55t-29 -46t-45 -32t-58 -12q-30 0 -56.5 12.5t-46 33t-31 47t-11.5 54.5z" />
    <glyph glyph-name="aring" unicode="&#xe5;" horiz-adv-x="1291" 
d="M147 933q85 77 202 120.5t246 43.5q87 0 167 -20t142 -61t99 -105.5t37 -152.5v-482q0 -35 4 -58.5t13.5 -37t24.5 -19t37 -5.5q8 0 30 3t42 7l28 -115q-24 -15 -49 -28t-53.5 -22.5t-62 -15.5t-73.5 -6q-75 0 -125.5 34.5t-64.5 98.5q-42 -39 -87 -65t-90.5 -41t-91 -21
t-88.5 -6q-73 0 -131 19t-99 56.5t-63 93t-22 129.5q0 83 25.5 145.5t70.5 107.5t107 74.5t135.5 46.5t155.5 24t167 7v39q0 53 -15 91t-41.5 62t-63.5 35.5t-82 11.5q-38 0 -72 -6.5t-68.5 -23t-71.5 -44t-82 -70.5zM780 564q-116 -5 -190.5 -25t-118 -52.5t-60.5 -76
t-17 -95.5q0 -44 10 -73t28.5 -47t44.5 -25.5t57 -7.5q28 0 57.5 3t60.5 11.5t63 23.5t65 38v326zM340 1486q0 59 22 111t60.5 90.5t89.5 60.5t110 22q58 0 110 -22t90.5 -60.5t61 -90.5t22.5 -111t-22.5 -110t-61 -89t-90.5 -60t-110 -22q-59 0 -110 22t-89.5 60t-60.5 89
t-22 110zM515 1491q0 -30 8.5 -56.5t22.5 -46t33 -30.5t40 -11q24 0 44.5 11t35.5 30.5t23.5 46t8.5 56.5q0 28 -8.5 53t-23.5 43.5t-35.5 29.5t-44.5 11q-21 0 -40 -11t-33 -29.5t-22.5 -43.5t-8.5 -53z" />
    <glyph glyph-name="ae" unicode="&#xe6;" horiz-adv-x="1731" 
d="M1647 166q-56 -51 -111 -87t-111.5 -58.5t-115 -33t-120.5 -10.5q-54 0 -103.5 8.5t-92.5 23t-79.5 33.5t-64.5 40q-59 -34 -111.5 -54.5t-100 -32t-91.5 -15t-86 -3.5q-59 0 -120 13t-110.5 46.5t-81 90.5t-31.5 145q0 82 23.5 141.5t65 101.5t98.5 69t123.5 45
t139.5 29.5t148 22.5q0 16 1 35t2 36.5t2 32t3 22.5q0 30 -13.5 48.5t-36 29t-52.5 14t-62 3.5q-62 0 -137.5 -30t-158.5 -103l-123 178q42 33 96.5 61t113 47.5t118.5 30.5t114 11q69 0 114.5 -6t78.5 -18t57.5 -29t51.5 -39q53 46 124.5 69t174.5 23q120 0 205.5 -30.5
t140 -92.5t80 -155t25.5 -218l-662 -44q0 -74 13 -143t39.5 -122.5t67.5 -86t97 -32.5q91 0 166.5 37.5t138.5 115.5zM536 164q58 0 113 15t116 49q-28 66 -39 137t-11 152v26q-71 -12 -130.5 -26t-102.5 -39.5t-66.5 -68t-23.5 -111.5q0 -39 12 -65t31.5 -41.5t45.5 -21.5
t55 -6zM1360 728q-2 48 -17.5 81t-40 54t-55.5 30t-64 9q-56 0 -93 -15.5t-61 -43.5t-37 -66.5t-20 -83.5z" />
    <glyph glyph-name="ccedilla" unicode="&#xe7;" horiz-adv-x="1168" 
d="M469 -295q44 -45 73.5 -67t49.5 -22q11 0 23 4t22.5 14t17.5 26.5t7 41.5q0 19 -8 41t-26 42.5t-47 35.5t-71 20l30 153q-73 11 -133 39q-101 47 -165.5 124t-94 175.5t-29.5 201.5q0 121 36 224t106 178.5t174.5 118t242.5 42.5q55 0 106 -5t98.5 -19.5t91 -39.5
t83.5 -65l-162 -167q-29 30 -54 51t-52 34.5t-56.5 19.5t-66.5 6q-72 0 -123.5 -32t-85 -83t-49 -114t-15.5 -125q0 -81 16 -152t50 -123.5t86 -82.5t124 -30q34 0 65.5 6t61.5 22.5t59.5 45.5t60.5 75l177 -134q-45 -64 -96 -103t-107 -60.5t-116 -28.5q-7 -1 -15 -2
l-57 -76q36 -7 68.5 -23.5t57 -43t39 -63t14.5 -83.5q0 -57 -20 -106.5t-56.5 -86.5t-88.5 -58t-115 -21q-66 0 -128.5 22.5t-123.5 86.5z" />
    <glyph glyph-name="egrave" unicode="&#xe8;" horiz-adv-x="1223" 
d="M1111 179q-62 -66 -119.5 -106t-114.5 -61.5t-116 -28.5t-123 -7q-138 0 -236.5 48t-161 128t-92 184t-29.5 216q0 108 30.5 206.5t93 173.5t157 120t222.5 45q114 0 200 -31t143.5 -89t86.5 -140.5t29 -184.5q0 -39 -2.5 -80.5t-10.5 -86.5h-675q0 -47 17 -103
t49.5 -105.5t80.5 -82.5t110 -33q54 0 94.5 8t75 26t66 47.5t67.5 73.5zM607 902q-63 0 -104 -22t-65 -58t-34 -82t-10 -95h413q0 42 -6 87.5t-27 83t-60.5 62t-106.5 24.5zM715 1207l-436 339l212 194l326 -431z" />
    <glyph glyph-name="eacute" unicode="&#xe9;" horiz-adv-x="1223" 
d="M1111 179q-62 -66 -119.5 -106t-114.5 -61.5t-116 -28.5t-123 -7q-138 0 -236.5 48t-161 128t-92 184t-29.5 216q0 108 30.5 206.5t93 173.5t157 120t222.5 45q114 0 200 -31t143.5 -89t86.5 -140.5t29 -184.5q0 -39 -2.5 -80.5t-10.5 -86.5h-675q0 -47 17 -103
t49.5 -105.5t80.5 -82.5t110 -33q54 0 94.5 8t75 26t66 47.5t67.5 73.5zM607 902q-63 0 -104 -22t-65 -58t-34 -82t-10 -95h413q0 42 -6 87.5t-27 83t-60.5 62t-106.5 24.5zM407 1316l343 429l189 -208l-423 -328z" />
    <glyph glyph-name="ecircumflex" unicode="&#xea;" horiz-adv-x="1223" 
d="M1111 179q-62 -66 -119.5 -106t-114.5 -61.5t-116 -28.5t-123 -7q-138 0 -236.5 48t-161 128t-92 184t-29.5 216q0 108 30.5 206.5t93 173.5t157 120t222.5 45q114 0 200 -31t143.5 -89t86.5 -140.5t29 -184.5q0 -39 -2.5 -80.5t-10.5 -86.5h-675q0 -47 17 -103
t49.5 -105.5t80.5 -82.5t110 -33q54 0 94.5 8t75 26t66 47.5t67.5 73.5zM607 902q-63 0 -104 -22t-65 -58t-34 -82t-10 -95h413q0 42 -6 87.5t-27 83t-60.5 62t-106.5 24.5zM561 1685h116l319 -410l-106 -94l-271 262l-269 -262l-113 98z" />
    <glyph glyph-name="edieresis" unicode="&#xeb;" horiz-adv-x="1223" 
d="M1111 179q-62 -66 -119.5 -106t-114.5 -61.5t-116 -28.5t-123 -7q-138 0 -236.5 48t-161 128t-92 184t-29.5 216q0 108 30.5 206.5t93 173.5t157 120t222.5 45q114 0 200 -31t143.5 -89t86.5 -140.5t29 -184.5q0 -39 -2.5 -80.5t-10.5 -86.5h-675q0 -47 17 -103
t49.5 -105.5t80.5 -82.5t110 -33q54 0 94.5 8t75 26t66 47.5t67.5 73.5zM607 902q-63 0 -104 -22t-65 -58t-34 -82t-10 -95h413q0 42 -6 87.5t-27 83t-60.5 62t-106.5 24.5zM229 1433q0 31 11.5 57t31 45t46 29.5t56.5 10.5q31 0 57.5 -11.5t45 -31t29 -46t10.5 -55.5
t-10.5 -55t-29 -46t-45 -32t-57.5 -12q-30 0 -56.5 12.5t-46 33t-31 47t-11.5 54.5zM717 1433q0 31 11.5 57t31 45t46 29.5t56.5 10.5q32 0 58 -11.5t45 -31t29 -46t10 -55.5t-10 -55t-29 -46t-45 -32t-58 -12q-30 0 -56.5 12.5t-46 33t-31 47t-11.5 54.5z" />
    <glyph glyph-name="igrave" unicode="&#xec;" horiz-adv-x="525" 
d="M266 1207l-436 339l212 194l326 -431zM134 1080h260v-1080h-260v1080z" />
    <glyph glyph-name="iacute" unicode="&#xed;" horiz-adv-x="534" 
d="M92 1316l343 429l189 -208l-423 -328zM134 1080h260v-1080h-260v1080z" />
    <glyph glyph-name="icircumflex" unicode="&#xee;" horiz-adv-x="531" 
d="M206 1650h116l319 -410l-106 -94l-271 262l-269 -262l-113 98zM134 1080h260v-1080h-260v1080z" />
    <glyph glyph-name="idieresis" unicode="&#xef;" horiz-adv-x="524" 
d="M-149 1433q0 31 11.5 57t31 45t46 29.5t56.5 10.5q31 0 57.5 -11.5t45 -31t29 -46t10.5 -55.5t-10.5 -55t-29 -46t-45 -32t-57.5 -12q-30 0 -56.5 12.5t-46 33t-31 47t-11.5 54.5zM339 1433q0 31 11.5 57t31 45t46 29.5t56.5 10.5q32 0 58 -11.5t45 -31t29 -46t10 -55.5
t-10 -55t-29 -46t-45 -32t-58 -12q-30 0 -56.5 12.5t-46 33t-31 47t-11.5 54.5zM134 1080h260v-1080h-260v1080z" />
    <glyph glyph-name="eth" unicode="&#xf0;" horiz-adv-x="1296" 
d="M1093 1467l-161 -99q71 -71 117.5 -158t74 -187t38.5 -209.5t11 -224.5q0 -151 -36.5 -266t-105 -193t-167 -117.5t-222.5 -39.5q-117 0 -213.5 39t-165.5 111.5t-107 175t-38 229.5q0 133 43.5 230.5t115 161t162.5 94t187 30.5q88 0 156.5 -33t116.5 -85
q-19 224 -142 335l-267 -164l-77 114l209 127q-98 33 -227 30l29 219q124 -15 221.5 -48t174.5 -81l201 122zM910 533q0 76 -18.5 135t-52.5 99t-83.5 60.5t-110.5 20.5q-51 0 -97 -16t-80.5 -53.5t-54.5 -98.5t-20 -152q0 -78 18.5 -146.5t52 -119.5t80 -80t103.5 -29
q58 0 106.5 28t83 78t54 120t19.5 154z" />
    <glyph glyph-name="ntilde" unicode="&#xf1;" horiz-adv-x="1304" 
d="M173 895q0 32 -1.5 82.5t-11.5 102.5h245q3 -7 6 -19.5t6.5 -27t6 -30t4.5 -28.5q24 22 58 44t74.5 39.5t87.5 28t98 10.5q84 0 156.5 -26t126 -75t84.5 -120t31 -161v-715h-260v666q0 65 -13 110t-38.5 72.5t-62.5 40t-85 12.5q-28 0 -60 -4.5t-65.5 -13.5t-66 -21
t-60.5 -27v-835h-260v895zM1047 1432q-14 -44 -40 -85.5t-60.5 -73t-76 -50.5t-87.5 -19q-44 0 -77.5 15.5t-64 33.5t-60.5 33.5t-67 15.5q-51 0 -85 -29t-51 -69l-119 57q11 43 36.5 85t61 74.5t79.5 52.5t92 20q43 0 76.5 -15t62.5 -33t56 -33t56 -15q19 0 39 4.5t38.5 16
t35 31t29.5 48.5z" />
    <glyph glyph-name="ograve" unicode="&#xf2;" horiz-adv-x="1302" 
d="M663 -27q-132 0 -233.5 41t-170.5 116.5t-104.5 182t-35.5 237.5q0 111 33 210t100 174t168.5 119t238.5 44t236 -44t163 -120.5t94.5 -180t30.5 -221.5q0 -115 -35.5 -216.5t-103 -177.5t-164 -120t-217.5 -44zM654 153q66 0 114 36t79 95t46 133t15 151
q0 71 -13.5 134.5t-44.5 111t-80 75.5t-119 28q-63 0 -111.5 -29t-80.5 -79.5t-48.5 -120t-16.5 -150.5q0 -66 14.5 -134t46 -124t81 -91.5t118.5 -35.5zM696 1207l-436 339l212 194l326 -431z" />
    <glyph glyph-name="oacute" unicode="&#xf3;" horiz-adv-x="1302" 
d="M663 -27q-132 0 -233.5 41t-170.5 116.5t-104.5 182t-35.5 237.5q0 111 33 210t100 174t168.5 119t238.5 44t236 -44t163 -120.5t94.5 -180t30.5 -221.5q0 -115 -35.5 -216.5t-103 -177.5t-164 -120t-217.5 -44zM654 153q66 0 114 36t79 95t46 133t15 151
q0 71 -13.5 134.5t-44.5 111t-80 75.5t-119 28q-63 0 -111.5 -29t-80.5 -79.5t-48.5 -120t-16.5 -150.5q0 -66 14.5 -134t46 -124t81 -91.5t118.5 -35.5zM387 1316l343 429l189 -208l-423 -328z" />
    <glyph glyph-name="ocircumflex" unicode="&#xf4;" horiz-adv-x="1302" 
d="M663 -27q-132 0 -233.5 41t-170.5 116.5t-104.5 182t-35.5 237.5q0 111 33 210t100 174t168.5 119t238.5 44t236 -44t163 -120.5t94.5 -180t30.5 -221.5q0 -115 -35.5 -216.5t-103 -177.5t-164 -120t-217.5 -44zM654 153q66 0 114 36t79 95t46 133t15 151
q0 71 -13.5 134.5t-44.5 111t-80 75.5t-119 28q-63 0 -111.5 -29t-80.5 -79.5t-48.5 -120t-16.5 -150.5q0 -66 14.5 -134t46 -124t81 -91.5t118.5 -35.5zM601 1702h116l319 -410l-106 -94l-271 262l-269 -262l-113 98z" />
    <glyph glyph-name="otilde" unicode="&#xf5;" horiz-adv-x="1302" 
d="M663 -27q-132 0 -233.5 41t-170.5 116.5t-104.5 182t-35.5 237.5q0 111 33 210t100 174t168.5 119t238.5 44t236 -44t163 -120.5t94.5 -180t30.5 -221.5q0 -115 -35.5 -216.5t-103 -177.5t-164 -120t-217.5 -44zM654 153q66 0 114 36t79 95t46 133t15 151
q0 71 -13.5 134.5t-44.5 111t-80 75.5t-119 28q-63 0 -111.5 -29t-80.5 -79.5t-48.5 -120t-16.5 -150.5q0 -66 14.5 -134t46 -124t81 -91.5t118.5 -35.5zM1056 1432q-14 -44 -40 -85.5t-60.5 -73t-76 -50.5t-87.5 -19q-44 0 -77.5 15.5t-64 33.5t-60.5 33.5t-67 15.5
q-51 0 -85 -29t-51 -69l-119 57q11 43 36.5 85t61 74.5t79.5 52.5t92 20q43 0 76.5 -15t62.5 -33t56 -33t56 -15q19 0 39 4.5t38.5 16t35 31t29.5 48.5z" />
    <glyph glyph-name="odieresis" unicode="&#xf6;" horiz-adv-x="1302" 
d="M663 -27q-132 0 -233.5 41t-170.5 116.5t-104.5 182t-35.5 237.5q0 111 33 210t100 174t168.5 119t238.5 44t236 -44t163 -120.5t94.5 -180t30.5 -221.5q0 -115 -35.5 -216.5t-103 -177.5t-164 -120t-217.5 -44zM654 153q66 0 114 36t79 95t46 133t15 151
q0 71 -13.5 134.5t-44.5 111t-80 75.5t-119 28q-63 0 -111.5 -29t-80.5 -79.5t-48.5 -120t-16.5 -150.5q0 -66 14.5 -134t46 -124t81 -91.5t118.5 -35.5zM266 1433q0 31 11.5 57t31 45t46 29.5t56.5 10.5q31 0 57.5 -11.5t45 -31t29 -46t10.5 -55.5t-10.5 -55t-29 -46
t-45 -32t-57.5 -12q-30 0 -56.5 12.5t-46 33t-31 47t-11.5 54.5zM754 1433q0 31 11.5 57t31 45t46 29.5t56.5 10.5q32 0 58 -11.5t45 -31t29 -46t10 -55.5t-10 -55t-29 -46t-45 -32t-58 -12q-30 0 -56.5 12.5t-46 33t-31 47t-11.5 54.5z" />
    <glyph glyph-name="divide" unicode="&#xf7;" horiz-adv-x="1275" 
d="M485 240q0 30 11 56t30 45.5t44.5 30.5t53.5 11t53 -11t44 -30.5t29.5 -45.5t10.5 -56t-10.5 -56t-29.5 -45.5t-44 -30.5t-53 -11t-53.5 11t-44.5 30.5t-30 45.5t-11 56zM482 1056q0 30 11 56t30 45.5t44.5 30.5t53.5 11t53 -11t44 -30.5t29.5 -45.5t10.5 -56t-10.5 -56
t-29.5 -45.5t-44 -30.5t-53 -11t-53.5 11t-44.5 30.5t-30 45.5t-11 56zM1145 732v-167h-1044v167h1044z" />
    <glyph glyph-name="oslash" unicode="&#xf8;" horiz-adv-x="1311" 
d="M667 -28q-100 0 -181.5 22.5t-146.5 66.5l-109 -128l-92 78l111 131q-64 75 -96.5 177.5t-32.5 229.5q0 112 33 211.5t100 174.5t169.5 118.5t240.5 43.5q98 0 177 -25.5t142 -70.5l102 120l92 -78l-107 -125q61 -76 91.5 -175t30.5 -212q0 -116 -38.5 -217.5
t-107.5 -177.5t-165.5 -120t-212.5 -44zM826 818q-30 35 -71.5 55t-95.5 20q-62 0 -108.5 -25.5t-78 -72.5t-47 -112.5t-15.5 -144.5q0 -45 6.5 -89t20.5 -86zM661 177q64 0 109.5 33t74.5 87.5t42.5 125t13.5 145.5q0 70 -17 133l-384 -451q30 -34 70 -53.5t91 -19.5z" />
    <glyph glyph-name="ugrave" unicode="&#xf9;" horiz-adv-x="1297" 
d="M410 1080v-740q0 -43 12.5 -74t33.5 -50.5t49.5 -28.5t61.5 -9q74 0 153 18.5t143 57.5v826h260v-892q0 -26 6 -74.5t18 -113.5h-246q-2 6 -6.5 22.5t-9 35.5t-8.5 36t-5 25q-34 -30 -76.5 -55.5t-89 -44t-93.5 -28.5t-90 -10q-108 0 -179.5 29.5t-114.5 80.5t-61 120
t-18 148v721h260zM647 1207l-436 339l212 194l326 -431z" />
    <glyph glyph-name="uacute" unicode="&#xfa;" horiz-adv-x="1297" 
d="M410 1080v-740q0 -43 12.5 -74t33.5 -50.5t49.5 -28.5t61.5 -9q74 0 153 18.5t143 57.5v826h260v-892q0 -26 6 -74.5t18 -113.5h-246q-2 6 -6.5 22.5t-9 35.5t-8.5 36t-5 25q-34 -30 -76.5 -55.5t-89 -44t-93.5 -28.5t-90 -10q-108 0 -179.5 29.5t-114.5 80.5t-61 120
t-18 148v721h260zM379 1316l343 429l189 -208l-423 -328z" />
    <glyph glyph-name="ucircumflex" unicode="&#xfb;" horiz-adv-x="1297" 
d="M410 1080v-740q0 -43 12.5 -74t33.5 -50.5t49.5 -28.5t61.5 -9q74 0 153 18.5t143 57.5v826h260v-892q0 -26 6 -74.5t18 -113.5h-246q-2 6 -6.5 22.5t-9 35.5t-8.5 36t-5 25q-34 -30 -76.5 -55.5t-89 -44t-93.5 -28.5t-90 -10q-108 0 -179.5 29.5t-114.5 80.5t-61 120
t-18 148v721h260zM598 1711h116l319 -410l-106 -94l-271 262l-269 -262l-113 98z" />
    <glyph glyph-name="udieresis" unicode="&#xfc;" horiz-adv-x="1297" 
d="M410 1080v-740q0 -43 12.5 -74t33.5 -50.5t49.5 -28.5t61.5 -9q74 0 153 18.5t143 57.5v826h260v-892q0 -26 6 -74.5t18 -113.5h-246q-2 6 -6.5 22.5t-9 35.5t-8.5 36t-5 25q-34 -30 -76.5 -55.5t-89 -44t-93.5 -28.5t-90 -10q-108 0 -179.5 29.5t-114.5 80.5t-61 120
t-18 148v721h260zM267 1433q0 31 11.5 57t31 45t46 29.5t56.5 10.5q31 0 57.5 -11.5t45 -31t29 -46t10.5 -55.5t-10.5 -55t-29 -46t-45 -32t-57.5 -12q-30 0 -56.5 12.5t-46 33t-31 47t-11.5 54.5zM755 1433q0 31 11.5 57t31 45t46 29.5t56.5 10.5q32 0 58 -11.5t45 -31
t29 -46t10 -55.5t-10 -55t-29 -46t-45 -32t-58 -12q-30 0 -56.5 12.5t-46 33t-31 47t-11.5 54.5z" />
    <glyph glyph-name="yacute" unicode="&#xfd;" horiz-adv-x="1105" 
d="M567 281l224 799h284l-426 -1162q-40 -91 -77 -162t-85 -119.5t-112.5 -74t-159.5 -25.5q-76 0 -142.5 22t-117.5 54l49 158q15 -6 38.5 -13t50.5 -12t56 -8.5t55 -3.5q39 0 69.5 16.5t56 48t47.5 78.5t44 107q7 16 13.5 40t9.5 47l-411 1009h284zM338 1316l343 429
l189 -208l-423 -328z" />
    <glyph glyph-name="thorn" unicode="&#xfe;" horiz-adv-x="1265" 
d="M435 1567v-543q38 18 68.5 32t61.5 23t65.5 13.5t79.5 4.5q89 0 170 -30t142 -96t97 -171t36 -255q0 -102 -28 -204t-87.5 -184t-151 -133t-218.5 -51q-51 0 -85.5 4t-60 10.5t-45.5 15.5t-43 18v-474h-261v1387v633h260zM633 901q-51 0 -97.5 -10.5t-100.5 -42.5v-622
q48 -35 99.5 -46t112.5 -11q57 0 101 27.5t73 77t44 118t15 150.5q0 75 -11.5 140.5t-39.5 114t-76 76.5t-120 28z" />
    <glyph glyph-name="ydieresis" unicode="&#xff;" horiz-adv-x="1105" 
d="M567 281l224 799h284l-426 -1162q-40 -91 -77 -162t-85 -119.5t-112.5 -74t-159.5 -25.5q-76 0 -142.5 22t-117.5 54l49 158q15 -6 38.5 -13t50.5 -12t56 -8.5t55 -3.5q39 0 69.5 16.5t56 48t47.5 78.5t44 107q7 16 13.5 40t9.5 47l-411 1009h284zM182 1433q0 31 11.5 57
t31 45t46 29.5t56.5 10.5q31 0 57.5 -11.5t45 -31t29 -46t10.5 -55.5t-10.5 -55t-29 -46t-45 -32t-57.5 -12q-30 0 -56.5 12.5t-46 33t-31 47t-11.5 54.5zM670 1433q0 31 11.5 57t31 45t46 29.5t56.5 10.5q32 0 58 -11.5t45 -31t29 -46t10 -55.5t-10 -55t-29 -46t-45 -32
t-58 -12q-30 0 -56.5 12.5t-46 33t-31 47t-11.5 54.5z" />
    <glyph glyph-name="dotlessi" unicode="&#x131;" horiz-adv-x="525" 
d="M134 1080h260v-1080h-260v1080z" />
    <glyph glyph-name="OE" unicode="&#x152;" horiz-adv-x="2026" 
d="M1915 1368h-667l-1 -455h542v-202h-542v-508h694v-203h-889q-47 -7 -104.5 -12.5t-138.5 -5.5q-166 0 -293 57t-212.5 162t-129 254t-43.5 332q0 177 53 327t146.5 260t221 172t275.5 62q68 0 123.5 -11.5t113.5 -29.5h852zM811 196q49 0 88.5 3.5t72.5 14.5l-1 1155
q-32 10 -67.5 17t-81.5 7q-85 0 -159.5 -41.5t-130 -118.5t-88 -187t-32.5 -247q0 -138 26 -249t77 -190t125.5 -121.5t170.5 -42.5z" />
    <glyph glyph-name="oe" unicode="&#x153;" horiz-adv-x="2038" 
d="M643 -22q-133 0 -231.5 42t-164 118.5t-97.5 184t-32 238.5q0 100 32.5 196t98.5 171.5t166.5 122t236.5 46.5q77 0 136 -10t105 -28.5t82 -44.5t68 -57q37 30 73.5 55.5t79.5 44.5t97 29.5t126 10.5q132 0 225.5 -40.5t152.5 -115t86 -181t27 -238.5l-751 -1
q0 -77 21 -141t59 -110t92 -71.5t121 -25.5q45 0 84 7t76 26t72 53t72 87l164 -155q-55 -66 -110.5 -107t-113.5 -64.5t-119 -32t-127 -8.5q-83 0 -148 12t-115.5 33.5t-86.5 51.5t-61 65q-26 -34 -67.5 -64t-93.5 -52t-112 -34.5t-123 -12.5zM651 173q56 0 99.5 32.5
t73.5 86.5t45.5 125t15.5 148q0 72 -15.5 133.5t-44.5 106.5t-71 71t-96 26q-67 0 -117 -26t-83 -73t-49.5 -114t-16.5 -149q0 -66 17 -131.5t49.5 -118t81 -85t111.5 -32.5zM1431 902q-68 0 -114 -16.5t-76.5 -46.5t-49 -71t-31.5 -89h477q-3 52 -18.5 93.5t-42 70
t-63.5 44t-82 15.5z" />
    <glyph glyph-name="Scaron" unicode="&#x160;" horiz-adv-x="1278" 
d="M292 389q53 -55 94.5 -93t83 -61.5t89 -34t113.5 -10.5q51 0 99.5 10.5t86.5 35.5t61 67t23 105q0 43 -17 76t-51 61t-85 54t-118 55q-23 10 -42 18t-36 16t-34 15.5t-36 16.5q-39 18 -84 38.5t-89.5 48t-86 63.5t-73 84t-50.5 110t-19 141q0 103 45 179t119.5 125.5
t170.5 74t197 24.5q76 0 143 -10.5t127.5 -33.5t116.5 -59t112 -86l-153 -203q-40 41 -76 74t-74.5 56t-84 35t-103.5 12q-44 0 -89.5 -9t-82.5 -29.5t-60.5 -53t-23.5 -79.5q0 -56 31 -100.5t75 -78.5t92.5 -58t83.5 -39q31 -14 52.5 -23.5t42.5 -18.5t45.5 -19t61.5 -26
q29 -12 65 -29.5t73.5 -42t73.5 -58t64 -78.5t45 -103t17 -132q0 -75 -22.5 -137t-62 -111t-93.5 -85.5t-116 -60t-129.5 -35.5t-135.5 -12q-93 0 -172 15t-149 44.5t-132.5 73t-120.5 100.5zM291 2040l134 116l251 -238l264 238l121 -116l-323 -365h-124z" />
    <glyph glyph-name="scaron" unicode="&#x161;" horiz-adv-x="1100" 
d="M238 315q148 -164 316 -164q37 0 69 7.5t55 23.5t36.5 41t13.5 60q0 25 -11 45t-29 35t-40 26.5t-44 19.5q-41 17 -81.5 30.5t-81.5 30.5q-23 8 -55.5 20.5t-67.5 31t-69 43.5t-61.5 60t-44.5 79.5t-17 102.5q0 72 35 126t93 90.5t131.5 55t151.5 18.5q124 0 225.5 -29
t185.5 -97l-118 -182q-31 31 -60.5 55.5t-62.5 42t-72 26.5t-89 9q-42 0 -72 -10t-49.5 -27t-28.5 -39t-9 -46q0 -27 13 -46.5t33.5 -34t46.5 -25t53 -19.5q42 -15 84.5 -29.5t84.5 -29.5q21 -8 51 -19t62 -28t63.5 -41.5t56.5 -59t40.5 -80t15.5 -105.5q0 -75 -37 -132.5
t-97.5 -96t-137.5 -58.5t-158 -20q-72 0 -136 8t-121.5 27t-109.5 51.5t-98 81.5zM157 1570l134 116l251 -238l264 238l121 -116l-323 -365h-124z" />
    <glyph glyph-name="Ydieresis" unicode="&#x178;" horiz-adv-x="1336" 
d="M521 0v700l-484 867h304l336 -652l312 652h303l-496 -851v-716h-275zM273 1891q0 31 11.5 57t31 45t46 29.5t56.5 10.5q31 0 57.5 -11.5t45 -31t29 -46t10.5 -55.5t-10.5 -55t-29 -46t-45 -32t-57.5 -12q-30 0 -56.5 12.5t-46 33t-31 47t-11.5 54.5zM761 1891
q0 31 11.5 57t31 45t46 29.5t56.5 10.5q32 0 58 -11.5t45 -31t29 -46t10 -55.5t-10 -55t-29 -46t-45 -32t-58 -12q-30 0 -56.5 12.5t-46 33t-31 47t-11.5 54.5z" />
    <glyph glyph-name="Zcaron" unicode="&#x17d;" horiz-adv-x="1157" 
d="M63 1567h1034v-190l-761 -1149h740v-228h-1022v202l757 1137h-748v228zM210 2041l134 116l251 -238l264 238l121 -116l-323 -365h-124z" />
    <glyph glyph-name="zcaron" unicode="&#x17e;" horiz-adv-x="1028" 
d="M84 1080h852v-166l-533 -716h547v-198h-886v164l544 718h-524v198zM131 1570l134 116l251 -238l264 238l121 -116l-323 -365h-124z" />
    <glyph glyph-name="florin" unicode="&#x192;" horiz-adv-x="709" 
d="M174 896h-136v208h136v28q0 117 32.5 202t89.5 139.5t133.5 81t165.5 26.5q59 0 127.5 -19t127.5 -57l-96 -209q-21 15 -45.5 29t-47.5 25.5t-41.5 18.5t-28.5 7q-80 0 -113.5 -57t-33.5 -157v-58h248l-28 -208h-220v-934q0 -100 -28.5 -174t-79.5 -122.5t-121.5 -72.5
t-155.5 -24q-62 0 -133.5 23.5t-131.5 61.5l98 212q20 -13 44 -27.5t46 -27t37.5 -20.5t17.5 -8q65 0 101 47t36 148v918z" />
    <glyph glyph-name="circumflex" unicode="&#x2c6;" horiz-adv-x="0" 
d="M-58 1711h116l319 -410l-106 -94l-271 262l-269 -262l-113 98z" />
    <glyph glyph-name="caron" unicode="&#x2c7;" horiz-adv-x="0" 
d="M-385 1570l134 116l251 -238l264 238l121 -116l-323 -365h-124z" />
    <glyph glyph-name="breve" unicode="&#x2d8;" horiz-adv-x="0" 
d="M-273 1679q27 -63 64 -101.5t75.5 -60.5t74 -29.5t59.5 -7.5t58 7.5t71.5 29.5t74 61t65.5 101l144 -69q-31 -101 -79 -176.5t-103.5 -125.5t-115.5 -75t-115 -25q-56 0 -118 25t-120 74.5t-107 124.5t-80 175z" />
    <glyph glyph-name="dotaccent" unicode="&#x2d9;" horiz-adv-x="1081" 
d="M321 1921q0 35 13 65.5t36 53.5t54 36t66 13t66 -13t54 -36t36 -53.5t13 -65.5q0 -36 -13 -67t-36 -54t-54 -36t-66 -13t-66 13t-54 36t-36 54t-13 67z" />
    <glyph glyph-name="ring" unicode="&#x2da;" horiz-adv-x="0" 
d="M-282 1486q0 59 22 111t60.5 90.5t89.5 60.5t110 22q58 0 110 -22t90.5 -60.5t61 -90.5t22.5 -111t-22.5 -110t-61 -89t-90.5 -60t-110 -22q-59 0 -110 22t-89.5 60t-60.5 89t-22 110zM-107 1491q0 -30 8.5 -56.5t22.5 -46t33 -30.5t40 -11q24 0 44.5 11t35.5 30.5
t23.5 46t8.5 56.5q0 28 -8.5 53t-23.5 43.5t-35.5 29.5t-44.5 11q-21 0 -40 -11t-33 -29.5t-22.5 -43.5t-8.5 -53z" />
    <glyph glyph-name="ogonek" unicode="&#x2db;" horiz-adv-x="0" 
d="M193 -384q-96 -69 -179 -69q-88 0 -147.5 54t-59.5 163q0 99 50 162.5t97 93.5h119v-19q-42 -16 -85.5 -76t-43.5 -118q0 -70 25.5 -100.5t73.5 -30.5q57 0 114 24z" />
    <glyph glyph-name="tilde" unicode="&#x2dc;" horiz-adv-x="0" 
d="M400 1432q-14 -44 -40 -85.5t-60.5 -73t-76 -50.5t-87.5 -19q-44 0 -77.5 15.5t-64 33.5t-60.5 33.5t-67 15.5q-51 0 -85 -29t-51 -69l-119 57q11 43 36.5 85t61 74.5t79.5 52.5t92 20q43 0 76.5 -15t62.5 -33t56 -33t56 -15q19 0 39 4.5t38.5 16t35 31t29.5 48.5z" />
    <glyph glyph-name="uni1401" unicode="&#x1401;" horiz-adv-x="1758" 
d="M55 1508v59h1648v-59l-757 -1523h-139zM1250 1322h-742v-35l372 -876h18l352 876v35z" />
    <glyph glyph-name="uni1402" unicode="&#x1402;" horiz-adv-x="1758" 
d="M1689 59v-59h-1648v59l766 1522h139zM494 245h742v35l-359 889h-18l-365 -889v-35zM599 2032q0 59 22 111t60.5 90.5t89.5 60.5t110 22q58 0 110 -22t90.5 -60.5t61 -90.5t22.5 -111t-22.5 -110t-61 -89t-90.5 -60t-110 -22q-59 0 -110 22t-89.5 60t-60.5 89t-22 110z
M774 2037q0 -30 8.5 -56.5t22.5 -46t33 -30.5t40 -11q24 0 44.5 11t35.5 30.5t23.5 46t8.5 56.5q0 28 -8.5 53t-23.5 43.5t-35.5 29.5t-44.5 11q-21 0 -40 -11t-33 -29.5t-22.5 -43.5t-8.5 -53z" />
    <glyph glyph-name="uni1403" unicode="&#x1403;" horiz-adv-x="1758" 
d="M1703 59v-59h-1648v59l766 1522h139zM508 245h742v35l-359 889h-18l-365 -889v-35z" />
    <glyph glyph-name="uni1404" unicode="&#x1404;" horiz-adv-x="1758" 
d="M1703 59v-59h-1648v59l766 1522h139zM508 245h742v35l-359 889h-18l-365 -889v-35zM748 1901q0 57 41 104t107 47q67 0 109 -46.5t42 -104.5q0 -55 -42 -101.5t-109 -46.5q-63 0 -105.5 44.5t-42.5 103.5z" />
    <glyph glyph-name="uni1405" unicode="&#x1405;" horiz-adv-x="1615" 
d="M228 -18h-59v1599h59l1335 -733v-139zM444 1161v-742h38l669 359v18l-669 365h-38z" />
    <glyph glyph-name="uni1406" unicode="&#x1406;" horiz-adv-x="1640" 
d="M253 -18h-59v1599h59l1335 -733v-139zM469 1161v-742h38l669 359v18l-669 365h-38zM138 1901q0 57 41 104t107 47q67 0 109 -46.5t42 -104.5q0 -55 -42 -101.5t-109 -46.5q-63 0 -105.5 44.5t-42.5 103.5z" />
    <glyph glyph-name="uni1407" unicode="&#x1407;" horiz-adv-x="1640" 
d="M253 -18h-59v1599h59l1335 -733v-139zM469 1161v-742h38l669 359v18l-669 365h-38zM138 1901q0 57 41 104t107 47q67 0 109 -46.5t42 -104.5q0 -55 -42 -101.5t-109 -46.5q-63 0 -105.5 44.5t-42.5 103.5zM716 1901q0 57 41 104t107 47q67 0 109 -46.5t42 -104.5
q0 -55 -42 -101.5t-109 -46.5q-63 0 -105.5 44.5t-42.5 103.5z" />
    <glyph glyph-name="uni1408" unicode="&#x1408;" horiz-adv-x="1615" 
d="M228 -18h-59v1599h59l1335 -733v-139zM444 1161v-742h38l669 359v18l-669 365h-38zM745 947v-311h-200v311h200z" />
    <glyph glyph-name="uni1409" unicode="&#x1409;" horiz-adv-x="1615" 
d="M228 -18h-59v1599h59l1335 -733v-139zM444 1161v-742h38l669 359v18l-669 365h-38zM520 752q0 57 41 104t107 47q67 0 109 -46.5t42 -104.5q0 -55 -42 -101.5t-109 -46.5q-63 0 -105.5 44.5t-42.5 103.5z" />
    <glyph glyph-name="uni140A" unicode="&#x140a;" horiz-adv-x="1620" 
d="M1392 1581h59v-1599h-59l-1335 734v139zM1176 403v742h-38l-669 -359v-18l669 -365h38z" />
    <glyph glyph-name="uni140B" unicode="&#x140b;" horiz-adv-x="1672" 
d="M1236 1901q0 57 41 104t107 47q67 0 109 -46.5t42 -104.5q0 -55 -42 -101.5t-109 -46.5q-63 0 -105.5 44.5t-42.5 103.5zM1392 1581h59v-1599h-59l-1335 734v139zM1176 403v742h-38l-669 -359v-18l669 -365h38z" />
    <glyph glyph-name="uni140C" unicode="&#x140c;" horiz-adv-x="1823" 
d="M119 1508v59h1648v-59l-757 -1523h-139zM1314 1322h-742v-35l372 -876h18l352 876v35zM46 780q0 57 41 104t107 47q67 0 109 -46.5t42 -104.5q0 -55 -42 -101.5t-109 -46.5q-63 0 -105.5 44.5t-42.5 103.5z" />
    <glyph glyph-name="uni140D" unicode="&#x140d;" horiz-adv-x="1863" 
d="M55 1508v59h1648v-59l-757 -1523h-139zM1250 1322h-742v-35l372 -876h18l352 876v35zM1519 780q0 57 41 104t107 47q67 0 109 -46.5t42 -104.5q0 -55 -42 -101.5t-109 -46.5q-63 0 -105.5 44.5t-42.5 103.5z" />
    <glyph glyph-name="uni140E" unicode="&#x140e;" horiz-adv-x="1822" 
d="M1767 59v-59h-1648v59l766 1522h139zM572 245h742v35l-359 889h-18l-365 -889v-35zM46 780q0 57 41 104t107 47q67 0 109 -46.5t42 -104.5q0 -55 -42 -101.5t-109 -46.5q-63 0 -105.5 44.5t-42.5 103.5z" />
    <glyph glyph-name="uni140F" unicode="&#x140f;" horiz-adv-x="1857" 
d="M1703 59v-59h-1648v59l766 1522h139zM508 245h742v35l-359 889h-18l-365 -889v-35zM1513 817q0 57 41 104t107 47q67 0 109 -46.5t42 -104.5q0 -55 -42 -101.5t-109 -46.5q-63 0 -105.5 44.5t-42.5 103.5z" />
    <glyph glyph-name="uni1410" unicode="&#x1410;" horiz-adv-x="1828" 
d="M1773 59v-59h-1648v59l766 1522h139zM578 245h742v35l-359 889h-18l-365 -889v-35zM825 1901q0 57 41 104t107 47q67 0 109 -46.5t42 -104.5q0 -55 -42 -101.5t-109 -46.5q-63 0 -105.5 44.5t-42.5 103.5zM46 817q0 57 41 104t107 47q67 0 109 -46.5t42 -104.5
q0 -55 -42 -101.5t-109 -46.5q-63 0 -105.5 44.5t-42.5 103.5z" />
    <glyph glyph-name="uni1411" unicode="&#x1411;" horiz-adv-x="1857" 
d="M1703 59v-59h-1648v59l766 1522h139zM508 245h742v35l-359 889h-18l-365 -889v-35zM1513 817q0 57 41 104t107 47q67 0 109 -46.5t42 -104.5q0 -55 -42 -101.5t-109 -46.5q-63 0 -105.5 44.5t-42.5 103.5zM755 1901q0 57 41 104t107 47q67 0 109 -46.5t42 -104.5
q0 -55 -42 -101.5t-109 -46.5q-63 0 -105.5 44.5t-42.5 103.5z" />
    <glyph glyph-name="uni1412" unicode="&#x1412;" horiz-adv-x="1942" 
d="M555 -18h-59v1599h59l1335 -733v-139zM771 1161v-742h38l669 359v18l-669 365h-38zM46 780q0 57 41 104t107 47q67 0 109 -46.5t42 -104.5q0 -55 -42 -101.5t-109 -46.5q-63 0 -105.5 44.5t-42.5 103.5z" />
    <glyph glyph-name="uni1413" unicode="&#x1413;" horiz-adv-x="1988" 
d="M228 -18h-59v1599h59l1335 -733v-139zM444 1161v-742h38l669 359v18l-669 365h-38zM1644 780q0 57 41 104t107 47q67 0 109 -46.5t42 -104.5q0 -55 -42 -101.5t-109 -46.5q-63 0 -105.5 44.5t-42.5 103.5z" />
    <glyph glyph-name="uni1414" unicode="&#x1414;" horiz-adv-x="1941" 
d="M554 -18h-59v1599h59l1335 -733v-139zM770 1161v-742h38l669 359v18l-669 365h-38zM46 780q0 57 41 104t107 47q67 0 109 -46.5t42 -104.5q0 -55 -42 -101.5t-109 -46.5q-63 0 -105.5 44.5t-42.5 103.5zM456 1901q0 57 41 104t107 47q67 0 109 -46.5t42 -104.5
q0 -55 -42 -101.5t-109 -46.5q-63 0 -105.5 44.5t-42.5 103.5z" />
    <glyph glyph-name="uni1415" unicode="&#x1415;" horiz-adv-x="2013" 
d="M253 -18h-59v1599h59l1335 -733v-139zM469 1161v-742h38l669 359v18l-669 365h-38zM132 1901q0 57 41 104t107 47q67 0 109 -46.5t42 -104.5q0 -55 -42 -101.5t-109 -46.5q-63 0 -105.5 44.5t-42.5 103.5zM1669 780q0 57 41 104t107 47q67 0 109 -46.5t42 -104.5
q0 -55 -42 -101.5t-109 -46.5q-63 0 -105.5 44.5t-42.5 103.5z" />
    <glyph glyph-name="uni1416" unicode="&#x1416;" horiz-adv-x="1640" 
d="M253 -18h-59v1599h59l1335 -733v-139zM469 1161v-742h38l669 359v18l-669 365h-38zM132 1901q0 57 41 104t107 47q67 0 109 -46.5t42 -104.5q0 -55 -42 -101.5t-109 -46.5q-63 0 -105.5 44.5t-42.5 103.5zM956 1499q0 57 41 104t107 47q67 0 109 -46.5t42 -104.5
q0 -55 -42 -101.5t-109 -46.5q-63 0 -105.5 44.5t-42.5 103.5z" />
    <glyph glyph-name="uni1417" unicode="&#x1417;" horiz-adv-x="1980" 
d="M46 780q0 57 41 104t107 47q67 0 109 -46.5t42 -104.5q0 -55 -42 -101.5t-109 -46.5q-63 0 -105.5 44.5t-42.5 103.5zM1752 1581h59v-1599h-59l-1335 734v139zM1536 403v742h-38l-669 -359v-18l669 -365h38z" />
    <glyph glyph-name="uni1418" unicode="&#x1418;" horiz-adv-x="1881" 
d="M1537 780q0 57 41 104t107 47q67 0 109 -46.5t42 -104.5q0 -55 -42 -101.5t-109 -46.5q-63 0 -105.5 44.5t-42.5 103.5zM1388 1581h59v-1599h-59l-1335 734v139zM1172 403v742h-38l-669 -359v-18l669 -365h38z" />
    <glyph glyph-name="uni1419" unicode="&#x1419;" horiz-adv-x="1983" 
d="M1545 1901q0 57 41 104t107 47q67 0 109 -46.5t42 -104.5q0 -55 -42 -101.5t-109 -46.5q-63 0 -105.5 44.5t-42.5 103.5zM46 780q0 57 41 104t107 47q67 0 109 -46.5t42 -104.5q0 -55 -42 -101.5t-109 -46.5q-63 0 -105.5 44.5t-42.5 103.5zM1751 1581h59v-1599h-59
l-1335 734v139zM1535 403v742h-38l-669 -359v-18l669 -365h38z" />
    <glyph glyph-name="uni141A" unicode="&#x141a;" horiz-adv-x="1881" 
d="M1168 1901q0 57 41 104t107 47q67 0 109 -46.5t42 -104.5q0 -55 -42 -101.5t-109 -46.5q-63 0 -105.5 44.5t-42.5 103.5zM1537 817q0 57 41 104t107 47q67 0 109 -46.5t42 -104.5q0 -55 -42 -101.5t-109 -46.5q-63 0 -105.5 44.5t-42.5 103.5zM1388 1581h59v-1599h-59
l-1335 734v139zM1172 403v742h-38l-669 -359v-18l669 -365h38z" />
    <glyph glyph-name="uni141B" unicode="&#x141b;" horiz-adv-x="1631" 
d="M1200 1901q0 57 41 104t107 47q67 0 109 -46.5t42 -104.5q0 -55 -42 -101.5t-109 -46.5q-63 0 -105.5 44.5t-42.5 103.5zM283 1499q0 57 41 104t107 47q67 0 109 -46.5t42 -104.5q0 -55 -42 -101.5t-109 -46.5q-63 0 -105.5 44.5t-42.5 103.5zM1388 1581h59v-1599h-59
l-1335 734v139zM1172 403v742h-38l-669 -359v-18l669 -365h38z" />
    <glyph glyph-name="uni141C" unicode="&#x141c;" horiz-adv-x="1606" 
d="M1526 1567v-405q0 -269 -99 -381.5t-272 -112.5q-242 0 -349 240q-105 -240 -346 -240q-183 0 -281.5 112.5t-98.5 377.5v409h257v-348q0 -184 49.5 -267.5t134.5 -83.5q71 0 113 75t42 317v307h255v-307q0 -242 60 -317t125 -75q74 0 113.5 90t39.5 302v307h257z" />
    <glyph glyph-name="uni141D" unicode="&#x141d;" horiz-adv-x="1291" 
d="M261 914q0 -49 30.5 -81t68.5 -32q37 0 69 32t32 81q0 47 -29.5 80t-71.5 33q-43 0 -71 -33t-28 -80zM75 913q0 108 79 197.5t206 89.5q117 0 202 -86.5t85 -200.5q0 -111 -82 -198t-205 -87q-121 0 -203 85t-82 200zM830 1294q0 -49 30.5 -81t68.5 -32q37 0 69 32t32 81
q0 47 -29.5 80t-71.5 33q-43 0 -71 -33t-28 -80zM644 1293q0 108 79 197.5t206 89.5q117 0 202 -86.5t85 -200.5q0 -111 -82 -198t-205 -87q-121 0 -203 85t-82 200z" />
    <glyph glyph-name="uni141E" unicode="&#x141e;" horiz-adv-x="1144" 
d="M1124 725v-57h-1104v56l509 857h85zM348 847h450v15l-221 421h-15l-214 -425v-11z" />
    <glyph glyph-name="uni141F" unicode="&#x141f;" horiz-adv-x="747" 
d="M30 668l433 899h257l-433 -899h-257z" />
    <glyph glyph-name="uni1420" unicode="&#x1420;" horiz-adv-x="751" 
d="M287 1567l437 -899h-261l-433 899h257z" />
    <glyph glyph-name="uni1421" unicode="&#x1421;" horiz-adv-x="1104" 
d="M1009 1567v-148q0 -266 -112 -380t-341 -114q-246 0 -353.5 110t-107.5 380v152h257v-161q0 -141 53.5 -211t150.5 -70q107 0 151.5 70t44.5 252v120h257z" />
    <glyph glyph-name="uni1422" unicode="&#x1422;" horiz-adv-x="1104" 
d="M752 938v120q0 182 -45.5 252t-150.5 70q-101 0 -152.5 -70t-51.5 -211v-161h-257v152q0 270 107.5 380t353.5 110q229 0 341 -114t112 -380v-148h-257z" />
    <glyph glyph-name="uni1423" unicode="&#x1423;" horiz-adv-x="809" 
d="M67 878h70q171 0 253.5 72t82.5 178q0 103 -83.5 166t-257.5 63h-64v210h82q323 0 448 -119.5t125 -319.5q0 -223 -125 -341.5t-479 -118.5h-52v210z" />
    <glyph glyph-name="uni1424" unicode="&#x1424;" horiz-adv-x="1043" 
d="M120 738q0 151 108.5 270.5t292.5 119.5q200 0 301 -122t101 -268q0 -163 -110 -277t-292 -114t-291.5 114t-109.5 277zM348 732q0 -89 49.5 -137t125.5 -48q78 0 125 51t47 134q0 93 -47 144.5t-125 51.5q-81 0 -128 -50.5t-47 -145.5z" />
    <glyph glyph-name="uni1425" unicode="&#x1425;" horiz-adv-x="1166" 
d="M455 668l433 899h257l-433 -899h-257zM30 668l433 899h257l-433 -899h-257z" />
    <glyph glyph-name="uni1426" unicode="&#x1426;" horiz-adv-x="874" 
d="M776 1567v-899h-257v899h257zM332 1567v-899h-257v899h257z" />
    <glyph glyph-name="uni1427" unicode="&#x1427;" horiz-adv-x="485" 
d="M97 816q0 57 41 104t107 47q67 0 109 -46.5t42 -104.5q0 -55 -42 -101.5t-109 -46.5q-63 0 -105.5 44.5t-42.5 103.5z" />
    <glyph glyph-name="uni1428" unicode="&#x1428;" horiz-adv-x="820" 
d="M20 1174h780v-200h-780v200z" />
    <glyph glyph-name="uni1429" unicode="&#x1429;" horiz-adv-x="967" 
d="M30 1206h325v361h257v-361h325v-200h-325v-338h-257v338h-325v200z" />
    <glyph glyph-name="uni142A" unicode="&#x142a;" horiz-adv-x="857" 
d="M30 1567h797v-200h-270v-699h-257v699h-270v200z" />
    <glyph glyph-name="uni142B" unicode="&#x142b;" horiz-adv-x="2502" 
d="M55 1508v59h1648v-59l-757 -1523h-139zM1250 1322h-742v-35l372 -876h18l352 876v35zM2021 1567l437 -899h-261l-433 899h257z" />
    <glyph glyph-name="uni142C" unicode="&#x142c;" horiz-adv-x="1969" 
d="M1703 59v-59h-1648v59l766 1522h139zM508 245h742v35l-359 889h-18l-365 -889v-35zM1488 1567l437 -899h-261l-433 899h257z" />
    <glyph glyph-name="uni142D" unicode="&#x142d;" horiz-adv-x="2108" 
d="M228 -18h-59v1599h59l1335 -733v-139zM444 1161v-742h38l669 359v18l-669 365h-38zM1627 1567l437 -899h-261l-433 899h257z" />
    <glyph glyph-name="uni142E" unicode="&#x142e;" horiz-adv-x="2291" 
d="M1810 1567l437 -899h-261l-433 899h257zM1388 1581h59v-1599h-59l-1335 734v139zM1172 403v742h-38l-669 -359v-18l669 -365h38z" />
    <glyph glyph-name="uni142F" unicode="&#x142f;" horiz-adv-x="1762" 
d="M960 -15h-139l-764 1519v63h342l490 -1166h19l455 1166h342v-61z" />
    <glyph glyph-name="uni1430" unicode="&#x1430;" horiz-adv-x="1758" 
d="M1687 61v-61h-342l-465 1166h-19l-480 -1166h-342v63l764 1519h139zM617 1983q0 59 22 111t60.5 90.5t89.5 60.5t110 22q58 0 110 -22t90.5 -60.5t61 -90.5t22.5 -111t-22.5 -110t-61 -89t-90.5 -60t-110 -22q-59 0 -110 22t-89.5 60t-60.5 89t-22 110zM792 1988
q0 -30 8.5 -56.5t22.5 -46t33 -30.5t40 -11q24 0 44.5 11t35.5 30.5t23.5 46t8.5 56.5q0 28 -8.5 53t-23.5 43.5t-35.5 29.5t-44.5 11q-21 0 -40 -11t-33 -29.5t-22.5 -43.5t-8.5 -53z" />
    <glyph glyph-name="uni1431" unicode="&#x1431;" horiz-adv-x="1758" 
d="M1703 61v-61h-342l-465 1166h-19l-480 -1166h-342v63l764 1519h139z" />
    <glyph glyph-name="uni1432" unicode="&#x1432;" horiz-adv-x="1758" 
d="M752 1901q0 57 41 104t107 47q67 0 109 -46.5t42 -104.5q0 -55 -42 -101.5t-109 -46.5q-63 0 -105.5 44.5t-42.5 103.5zM1703 61v-61h-342l-465 1166h-19l-480 -1166h-342v63l764 1519h139z" />
    <glyph glyph-name="uni1433" unicode="&#x1433;" horiz-adv-x="1623" 
d="M195 -15h-51v287l1009 497v19l-1012 506v287h58l1367 -735v-141z" />
    <glyph glyph-name="uni1434" unicode="&#x1434;" horiz-adv-x="1648" 
d="M95 1901q0 57 41 104t107 47q67 0 109 -46.5t42 -104.5q0 -55 -42 -101.5t-109 -46.5q-63 0 -105.5 44.5t-42.5 103.5zM220 -15h-51v287l1009 497v19l-1012 506v287h58l1367 -735v-141z" />
    <glyph glyph-name="uni1435" unicode="&#x1435;" horiz-adv-x="1648" 
d="M220 -15h-51v287l1009 497v19l-1012 506v287h58l1367 -735v-141zM95 1901q0 57 41 104t107 47q67 0 109 -46.5t42 -104.5q0 -55 -42 -101.5t-109 -46.5q-63 0 -105.5 44.5t-42.5 103.5zM616 1901q0 57 41 104t107 47q67 0 109 -46.5t42 -104.5q0 -55 -42 -101.5
t-109 -46.5q-63 0 -105.5 44.5t-42.5 103.5z" />
    <glyph glyph-name="uni1436" unicode="&#x1436;" horiz-adv-x="1623" 
d="M195 -15h-51v287l1009 497v19l-1012 506v287h58l1367 -735v-141zM655 947v-311h-200v311h200z" />
    <glyph glyph-name="uni1437" unicode="&#x1437;" horiz-adv-x="1623" 
d="M195 -15h-51v287l1009 497v19l-1012 506v287h58l1367 -735v-141zM346 817q0 57 41 104t107 47q67 0 109 -46.5t42 -104.5q0 -55 -42 -101.5t-109 -46.5q-63 0 -105.5 44.5t-42.5 103.5z" />
    <glyph glyph-name="uni1438" unicode="&#x1438;" horiz-adv-x="1621" 
d="M1476 1581v-287l-1006 -501v-19l1008 -510v-279h-58l-1363 741v141l1368 714h51z" />
    <glyph glyph-name="uni1439" unicode="&#x1439;" horiz-adv-x="1615" 
d="M1476 1581v-287l-1006 -501v-19l1008 -510v-279h-58l-1363 741v141l1368 714h51zM1218 1901q0 57 41 104t107 47q67 0 109 -46.5t42 -104.5q0 -55 -42 -101.5t-109 -46.5q-63 0 -105.5 44.5t-42.5 103.5z" />
    <glyph glyph-name="uni143A" unicode="&#x143a;" horiz-adv-x="1813" 
d="M1013 -15h-139l-764 1519v63h342l490 -1166h19l455 1166h342v-61zM46 780q0 57 41 104t107 47q67 0 109 -46.5t42 -104.5q0 -55 -42 -101.5t-109 -46.5q-63 0 -105.5 44.5t-42.5 103.5z" />
    <glyph glyph-name="uni143B" unicode="&#x143b;" horiz-adv-x="1848" 
d="M959 -15h-139l-764 1519v63h342l490 -1166h19l455 1166h342v-61zM1504 780q0 57 41 104t107 47q67 0 109 -46.5t42 -104.5q0 -55 -42 -101.5t-109 -46.5q-63 0 -105.5 44.5t-42.5 103.5z" />
    <glyph glyph-name="uni143C" unicode="&#x143c;" horiz-adv-x="1815" 
d="M1760 61v-61h-342l-465 1166h-19l-480 -1166h-342v63l764 1519h139zM46 818q0 57 41 104t107 47q67 0 109 -46.5t42 -104.5q0 -55 -42 -101.5t-109 -46.5q-63 0 -105.5 44.5t-42.5 103.5z" />
    <glyph glyph-name="uni143D" unicode="&#x143d;" horiz-adv-x="1866" 
d="M1705 61v-61h-342l-465 1166h-19l-480 -1166h-342v63l764 1519h139zM1522 818q0 57 41 104t107 47q67 0 109 -46.5t42 -104.5q0 -55 -42 -101.5t-109 -46.5q-63 0 -105.5 44.5t-42.5 103.5z" />
    <glyph glyph-name="uni143E" unicode="&#x143e;" horiz-adv-x="1815" 
d="M1760 61v-61h-342l-465 1166h-19l-480 -1166h-342v63l764 1519h139zM46 818q0 57 41 104t107 47q67 0 109 -46.5t42 -104.5q0 -55 -42 -101.5t-109 -46.5q-63 0 -105.5 44.5t-42.5 103.5zM811 1901q0 57 41 104t107 47q67 0 109 -46.5t42 -104.5q0 -55 -42 -101.5
t-109 -46.5q-63 0 -105.5 44.5t-42.5 103.5z" />
    <glyph glyph-name="uni143F" unicode="&#x143f;" horiz-adv-x="1841" 
d="M1705 61v-61h-342l-465 1166h-19l-480 -1166h-342v63l764 1519h139zM755 1901q0 57 41 104t107 47q67 0 109 -46.5t42 -104.5q0 -55 -42 -101.5t-109 -46.5q-63 0 -105.5 44.5t-42.5 103.5zM1497 818q0 57 41 104t107 47q67 0 109 -46.5t42 -104.5q0 -55 -42 -101.5
t-109 -46.5q-63 0 -105.5 44.5t-42.5 103.5z" />
    <glyph glyph-name="uni1440" unicode="&#x1440;" horiz-adv-x="1857" 
d="M429 -15h-51v287l1009 497v19l-1012 506v287h58l1367 -735v-141zM46 816q0 57 41 104t107 47q67 0 109 -46.5t42 -104.5q0 -55 -42 -101.5t-109 -46.5q-63 0 -105.5 44.5t-42.5 103.5z" />
    <glyph glyph-name="uni1441" unicode="&#x1441;" horiz-adv-x="1966" 
d="M195 -15h-51v287l1009 497v19l-1012 506v287h58l1367 -735v-141zM1622 818q0 57 41 104t107 47q67 0 109 -46.5t42 -104.5q0 -55 -42 -101.5t-109 -46.5q-63 0 -105.5 44.5t-42.5 103.5z" />
    <glyph glyph-name="uni1442" unicode="&#x1442;" horiz-adv-x="1857" 
d="M429 -15h-51v287l1009 497v19l-1012 506v287h58l1367 -735v-141zM46 818q0 57 41 104t107 47q67 0 109 -46.5t42 -104.5q0 -55 -42 -101.5t-109 -46.5q-63 0 -105.5 44.5t-42.5 103.5zM330 1901q0 57 41 104t107 47q67 0 109 -46.5t42 -104.5q0 -55 -42 -101.5
t-109 -46.5q-63 0 -105.5 44.5t-42.5 103.5z" />
    <glyph glyph-name="uni1443" unicode="&#x1443;" horiz-adv-x="1991" 
d="M220 -15h-51v287l1009 497v19l-1012 506v287h58l1367 -735v-141zM95 1901q0 57 41 104t107 47q67 0 109 -46.5t42 -104.5q0 -55 -42 -101.5t-109 -46.5q-63 0 -105.5 44.5t-42.5 103.5zM1647 818q0 57 41 104t107 47q67 0 109 -46.5t42 -104.5q0 -55 -42 -101.5
t-109 -46.5q-63 0 -105.5 44.5t-42.5 103.5z" />
    <glyph glyph-name="uni1444" unicode="&#x1444;" horiz-adv-x="1999" 
d="M1854 1581v-287l-1006 -501v-19l1008 -510v-279h-58l-1363 741v141l1368 714h51zM46 818q0 57 41 104t107 47q67 0 109 -46.5t42 -104.5q0 -55 -42 -101.5t-109 -46.5q-63 0 -105.5 44.5t-42.5 103.5z" />
    <glyph glyph-name="uni1445" unicode="&#x1445;" horiz-adv-x="1792" 
d="M1476 1581v-287l-1006 -501v-19l1008 -510v-279h-58l-1363 741v141l1368 714h51zM1448 780q0 57 41 104t107 47q67 0 109 -46.5t42 -104.5q0 -55 -42 -101.5t-109 -46.5q-63 0 -105.5 44.5t-42.5 103.5z" />
    <glyph glyph-name="uni1446" unicode="&#x1446;" horiz-adv-x="2055" 
d="M1906 1581v-287l-1006 -501v-19l1008 -510v-279h-58l-1363 741v141l1368 714h51zM46 817q0 57 41 104t107 47q67 0 109 -46.5t42 -104.5q0 -55 -42 -101.5t-109 -46.5q-63 0 -105.5 44.5t-42.5 103.5zM1658 1900q0 57 41 104t107 47q67 0 109 -46.5t42 -104.5
q0 -55 -42 -101.5t-109 -46.5q-63 0 -105.5 44.5t-42.5 103.5z" />
    <glyph glyph-name="uni1447" unicode="&#x1447;" horiz-adv-x="1792" 
d="M1476 1581v-287l-1006 -501v-19l1008 -510v-279h-58l-1363 741v141l1368 714h51zM1215 1901q0 57 41 104t107 47q67 0 109 -46.5t42 -104.5q0 -55 -42 -101.5t-109 -46.5q-63 0 -105.5 44.5t-42.5 103.5zM1448 817q0 57 41 104t107 47q67 0 109 -46.5t42 -104.5
q0 -55 -42 -101.5t-109 -46.5q-63 0 -105.5 44.5t-42.5 103.5z" />
    <glyph glyph-name="uni1448" unicode="&#x1448;" horiz-adv-x="1612" 
d="M1476 1581v-287l-1006 -501v-19l1008 -510v-279h-58l-1363 741v141l1368 714h51zM708 1901q0 57 41 104t107 47q67 0 109 -46.5t42 -104.5q0 -55 -42 -101.5t-109 -46.5q-63 0 -105.5 44.5t-42.5 103.5zM1215 1901q0 57 41 104t107 47q67 0 109 -46.5t42 -104.5
q0 -55 -42 -101.5t-109 -46.5q-63 0 -105.5 44.5t-42.5 103.5z" />
    <glyph glyph-name="uni1449" unicode="&#x1449;" horiz-adv-x="895" 
d="M47 1081v83l730 416h21v-299l-393 -156v-12l393 -157v-299h-28z" />
    <glyph glyph-name="uni144A" unicode="&#x144a;" horiz-adv-x="407" 
d="M332 1567v-899h-257v899h257z" />
    <glyph glyph-name="uni144B" unicode="&#x144b;" horiz-adv-x="1018" 
d="M98 1567h257v-326q145 56 290 56q111 0 193 -63t82 -196v-370h-257v311q0 88 -32.5 118t-103.5 30q-76 0 -172 -26v-433h-257v899z" />
    <glyph glyph-name="uni144C" unicode="&#x144c;" horiz-adv-x="1819" 
d="M1679 1567v-297q0 -752 -177.5 -1023.5t-589.5 -271.5q-425 0 -598.5 278t-173.5 1019v295h275v-263q0 -744 125.5 -916.5t369.5 -172.5q242 0 368 179.5t126 913.5v259h275z" />
    <glyph glyph-name="uni144D" unicode="&#x144d;" horiz-adv-x="1819" 
d="M1404 0v244q0 749 -126 928.5t-368 179.5q-244 0 -369.5 -172.5t-125.5 -931.5v-248h-275v280q0 756 173.5 1034t598.5 278q412 0 589.5 -271.5t177.5 -1038.5v-282h-275zM637 2034q0 59 22 111t60.5 90.5t89.5 60.5t110 22q58 0 110 -22t90.5 -60.5t61 -90.5t22.5 -111
t-22.5 -110t-61 -89t-90.5 -60t-110 -22q-59 0 -110 22t-89.5 60t-60.5 89t-22 110zM812 2039q0 -30 8.5 -56.5t22.5 -46t33 -30.5t40 -11q24 0 44.5 11t35.5 30.5t23.5 46t8.5 56.5q0 28 -8.5 53t-23.5 43.5t-35.5 29.5t-44.5 11q-21 0 -40 -11t-33 -29.5t-22.5 -43.5
t-8.5 -53z" />
    <glyph glyph-name="uni144E" unicode="&#x144e;" horiz-adv-x="1819" 
d="M1404 0v244q0 749 -126 928.5t-368 179.5q-244 0 -369.5 -172.5t-125.5 -931.5v-248h-275v280q0 756 173.5 1034t598.5 278q412 0 589.5 -271.5t177.5 -1038.5v-282h-275z" />
    <glyph glyph-name="uni144F" unicode="&#x144f;" horiz-adv-x="1819" 
d="M758 1901q0 57 41 104t107 47q67 0 109 -46.5t42 -104.5q0 -55 -42 -101.5t-109 -46.5q-63 0 -105.5 44.5t-42.5 103.5zM1404 0v244q0 749 -126 928.5t-368 179.5q-244 0 -369.5 -172.5t-125.5 -931.5v-248h-275v280q0 756 173.5 1034t598.5 278q412 0 589.5 -271.5
t177.5 -1038.5v-282h-275z" />
    <glyph glyph-name="uni1450" unicode="&#x1450;" horiz-adv-x="1483" 
d="M115 1567h262q586 0 794 -180.5t208 -579.5q0 -453 -215 -630t-789 -177h-260v250h235q471 0 605 124t134 413q0 265 -139 397.5t-602 132.5h-233v250z" />
    <glyph glyph-name="uni1451" unicode="&#x1451;" horiz-adv-x="1483" 
d="M115 1567h262q586 0 794 -180.5t208 -579.5q0 -453 -215 -630t-789 -177h-260v250h235q471 0 605 124t134 413q0 265 -139 397.5t-602 132.5h-233v250zM303 1901q0 57 41 104t107 47q67 0 109 -46.5t42 -104.5q0 -55 -42 -101.5t-109 -46.5q-63 0 -105.5 44.5
t-42.5 103.5z" />
    <glyph glyph-name="uni1452" unicode="&#x1452;" horiz-adv-x="1483" 
d="M115 1567h262q586 0 794 -180.5t208 -579.5q0 -453 -215 -630t-789 -177h-260v250h235q471 0 605 124t134 413q0 265 -139 397.5t-602 132.5h-233v250zM303 1901q0 57 41 104t107 47q67 0 109 -46.5t42 -104.5q0 -55 -42 -101.5t-109 -46.5q-63 0 -105.5 44.5
t-42.5 103.5zM770 1900q0 57 41 104t107 47q67 0 109 -46.5t42 -104.5q0 -55 -42 -101.5t-109 -46.5q-63 0 -105.5 44.5t-42.5 103.5z" />
    <glyph glyph-name="uni1453" unicode="&#x1453;" horiz-adv-x="1483" 
d="M615 508h-227v543h227v-543zM115 1567h262q586 0 794 -180.5t208 -579.5q0 -453 -215 -630t-789 -177h-260v247h235q470 0 604 124t134 416q0 268 -139 400.5t-601 132.5h-233v247z" />
    <glyph glyph-name="uni1454" unicode="&#x1454;" horiz-adv-x="1483" 
d="M115 1567h262q586 0 794 -180.5t208 -579.5q0 -453 -215 -630t-789 -177h-260v250h235q471 0 605 124t134 413q0 265 -139 397.5t-602 132.5h-233v250zM346 780q0 57 41 104t107 47q67 0 109 -46.5t42 -104.5q0 -55 -42 -101.5t-109 -46.5q-63 0 -105.5 44.5t-42.5 103.5
z" />
    <glyph glyph-name="uni1455" unicode="&#x1455;" horiz-adv-x="1483" 
d="M1368 1317h-233q-463 0 -602 -132.5t-139 -397.5q0 -289 134 -413t605 -124h235v-250h-260q-574 0 -789 177t-215 630q0 399 208 579.5t794 180.5h262v-250z" />
    <glyph glyph-name="uni1456" unicode="&#x1456;" horiz-adv-x="1483" 
d="M1368 1317h-233q-463 0 -602 -132.5t-139 -397.5q0 -289 134 -413t605 -124h235v-250h-260q-574 0 -789 177t-215 630q0 399 208 579.5t794 180.5h262v-250zM889 1901q0 57 41 104t107 47q67 0 109 -46.5t42 -104.5q0 -55 -42 -101.5t-109 -46.5q-63 0 -105.5 44.5
t-42.5 103.5z" />
    <glyph glyph-name="uni1457" unicode="&#x1457;" horiz-adv-x="2176" 
d="M2036 1567v-297q0 -752 -177.5 -1023.5t-589.5 -271.5q-425 0 -598.5 278t-173.5 1019v295h275v-263q0 -744 125.5 -916.5t369.5 -172.5q242 0 368 179.5t126 913.5v259h275zM46 818q0 57 41 104t107 47q67 0 109 -46.5t42 -104.5q0 -55 -42 -101.5t-109 -46.5
q-63 0 -105.5 44.5t-42.5 103.5z" />
    <glyph glyph-name="uni1458" unicode="&#x1458;" horiz-adv-x="2175" 
d="M1831 818q0 57 41 104t107 47q67 0 109 -46.5t42 -104.5q0 -55 -42 -101.5t-109 -46.5q-63 0 -105.5 44.5t-42.5 103.5zM1679 1567v-297q0 -752 -177.5 -1023.5t-589.5 -271.5q-425 0 -598.5 278t-173.5 1019v295h275v-263q0 -744 125.5 -916.5t369.5 -172.5
q242 0 368 179.5t126 913.5v259h275z" />
    <glyph glyph-name="uni1459" unicode="&#x1459;" horiz-adv-x="2173" 
d="M1758 0v244q0 749 -126 928.5t-368 179.5q-244 0 -369.5 -172.5t-125.5 -931.5v-248h-275v280q0 756 173.5 1034t598.5 278q412 0 589.5 -271.5t177.5 -1038.5v-282h-275zM46 818q0 57 41 104t107 47q67 0 109 -46.5t42 -104.5q0 -55 -42 -101.5t-109 -46.5
q-63 0 -105.5 44.5t-42.5 103.5z" />
    <glyph glyph-name="uni145A" unicode="&#x145a;" horiz-adv-x="2174" 
d="M1404 0v244q0 749 -126 928.5t-368 179.5q-244 0 -369.5 -172.5t-125.5 -931.5v-248h-275v280q0 756 173.5 1034t598.5 278q412 0 589.5 -271.5t177.5 -1038.5v-282h-275zM1830 817q0 57 41 104t107 47q67 0 109 -46.5t42 -104.5q0 -55 -42 -101.5t-109 -46.5
q-63 0 -105.5 44.5t-42.5 103.5z" />
    <glyph glyph-name="uni145B" unicode="&#x145b;" horiz-adv-x="2173" 
d="M1758 0v244q0 749 -126 928.5t-368 179.5q-244 0 -369.5 -172.5t-125.5 -931.5v-248h-275v280q0 756 173.5 1034t598.5 278q412 0 589.5 -271.5t177.5 -1038.5v-282h-275zM1111 1901q0 57 41 104t107 47q67 0 109 -46.5t42 -104.5q0 -55 -42 -101.5t-109 -46.5
q-63 0 -105.5 44.5t-42.5 103.5zM46 817q0 57 41 104t107 47q67 0 109 -46.5t42 -104.5q0 -55 -42 -101.5t-109 -46.5q-63 0 -105.5 44.5t-42.5 103.5z" />
    <glyph glyph-name="uni145C" unicode="&#x145c;" horiz-adv-x="2174" 
d="M1404 0v244q0 749 -126 928.5t-368 179.5q-244 0 -369.5 -172.5t-125.5 -931.5v-248h-275v280q0 756 173.5 1034t598.5 278q412 0 589.5 -271.5t177.5 -1038.5v-282h-275zM761 1902q0 57 41 104t107 47q67 0 109 -46.5t42 -104.5q0 -55 -42 -101.5t-109 -46.5
q-63 0 -105.5 44.5t-42.5 103.5zM1830 817q0 57 41 104t107 47q67 0 109 -46.5t42 -104.5q0 -55 -42 -101.5t-109 -46.5q-63 0 -105.5 44.5t-42.5 103.5z" />
    <glyph glyph-name="uni145D" unicode="&#x145d;" horiz-adv-x="1757" 
d="M389 1567h262q586 0 794 -180.5t208 -579.5q0 -453 -215 -630t-789 -177h-260v250h235q471 0 605 124t134 413q0 265 -139 397.5t-602 132.5h-233v250zM46 816q0 57 41 104t107 47q67 0 109 -46.5t42 -104.5q0 -55 -42 -101.5t-109 -46.5q-63 0 -105.5 44.5t-42.5 103.5z
" />
    <glyph glyph-name="uni145E" unicode="&#x145e;" horiz-adv-x="1855" 
d="M115 1567h262q586 0 794 -180.5t208 -579.5q0 -453 -215 -630t-789 -177h-260v250h235q471 0 605 124t134 413q0 265 -139 397.5t-602 132.5h-233v250zM1511 817q0 57 41 104t107 47q67 0 109 -46.5t42 -104.5q0 -55 -42 -101.5t-109 -46.5q-63 0 -105.5 44.5
t-42.5 103.5z" />
    <glyph glyph-name="uni145F" unicode="&#x145f;" horiz-adv-x="1757" 
d="M389 1567h262q586 0 794 -180.5t208 -579.5q0 -453 -215 -630t-789 -177h-260v250h235q471 0 605 124t134 413q0 265 -139 397.5t-602 132.5h-233v250zM576 1901q0 57 41 104t107 47q67 0 109 -46.5t42 -104.5q0 -55 -42 -101.5t-109 -46.5q-63 0 -105.5 44.5
t-42.5 103.5zM46 817q0 57 41 104t107 47q67 0 109 -46.5t42 -104.5q0 -55 -42 -101.5t-109 -46.5q-63 0 -105.5 44.5t-42.5 103.5z" />
    <glyph glyph-name="uni1460" unicode="&#x1460;" horiz-adv-x="1855" 
d="M115 1567h262q586 0 794 -180.5t208 -579.5q0 -453 -215 -630t-789 -177h-260v250h235q471 0 605 124t134 413q0 265 -139 397.5t-602 132.5h-233v250zM303 1901q0 57 41 104t107 47q67 0 109 -46.5t42 -104.5q0 -55 -42 -101.5t-109 -46.5q-63 0 -105.5 44.5
t-42.5 103.5zM1511 818q0 57 41 104t107 47q67 0 109 -46.5t42 -104.5q0 -55 -42 -101.5t-109 -46.5q-63 0 -105.5 44.5t-42.5 103.5z" />
    <glyph glyph-name="uni1461" unicode="&#x1461;" horiz-adv-x="1823" 
d="M1719 1317h-233q-463 0 -602 -132.5t-139 -397.5q0 -289 134 -413t605 -124h235v-250h-260q-574 0 -789 177t-215 630q0 399 208 579.5t794 180.5h262v-250zM46 817q0 57 41 104t107 47q67 0 109 -46.5t42 -104.5q0 -55 -42 -101.5t-109 -46.5q-63 0 -105.5 44.5
t-42.5 103.5z" />
    <glyph glyph-name="uni1462" unicode="&#x1462;" horiz-adv-x="1720" 
d="M1379 1317h-233q-463 0 -602 -132.5t-139 -397.5q0 -289 134 -413t605 -124h235v-250h-260q-574 0 -789 177t-215 630q0 399 208 579.5t794 180.5h262v-250zM1376 818q0 57 41 104t107 47q67 0 109 -46.5t42 -104.5q0 -55 -42 -101.5t-109 -46.5q-63 0 -105.5 44.5
t-42.5 103.5z" />
    <glyph glyph-name="uni1463" unicode="&#x1463;" horiz-adv-x="1822" 
d="M1718 1317h-233q-463 0 -602 -132.5t-139 -397.5q0 -289 134 -413t605 -124h235v-250h-260q-574 0 -789 177t-215 630q0 399 208 579.5t794 180.5h262v-250zM1239 1901q0 57 41 104t107 47q67 0 109 -46.5t42 -104.5q0 -55 -42 -101.5t-109 -46.5q-63 0 -105.5 44.5
t-42.5 103.5zM46 816q0 57 41 104t107 47q67 0 109 -46.5t42 -104.5q0 -55 -42 -101.5t-109 -46.5q-63 0 -105.5 44.5t-42.5 103.5z" />
    <glyph glyph-name="uni1464" unicode="&#x1464;" horiz-adv-x="1720" 
d="M1379 1317h-233q-463 0 -602 -132.5t-139 -397.5q0 -289 134 -413t605 -124h235v-250h-260q-574 0 -789 177t-215 630q0 399 208 579.5t794 180.5h262v-250zM900 1901q0 57 41 104t107 47q67 0 109 -46.5t42 -104.5q0 -55 -42 -101.5t-109 -46.5q-63 0 -105.5 44.5
t-42.5 103.5zM1376 817q0 57 41 104t107 47q67 0 109 -46.5t42 -104.5q0 -55 -42 -101.5t-109 -46.5q-63 0 -105.5 44.5t-42.5 103.5z" />
    <glyph glyph-name="uni1465" unicode="&#x1465;" horiz-adv-x="1824" 
d="M1720 1317h-233q-463 0 -602 -132.5t-139 -397.5q0 -289 134 -413t605 -124h235v-250h-260q-574 0 -789 177t-215 630q0 399 208 579.5t794 180.5h262v-250zM49 1101q0 57 41 104t107 47q67 0 109 -46.5t42 -104.5q0 -55 -42 -101.5t-109 -46.5q-63 0 -105.5 44.5
t-42.5 103.5zM46 550q0 57 41 104t107 47q67 0 109 -46.5t42 -104.5q0 -55 -42 -101.5t-109 -46.5q-63 0 -105.5 44.5t-42.5 103.5z" />
    <glyph glyph-name="uni1466" unicode="&#x1466;" horiz-adv-x="809" 
d="M742 668h-52q-344 0 -474 118.5t-130 341.5q0 200 130 319.5t443 119.5h82v-210h-64q-202 0 -266.5 -63t-64.5 -166q0 -106 67.5 -178t258.5 -72h70v-210z" />
    <glyph glyph-name="uni1467" unicode="&#x1467;" horiz-adv-x="2280" 
d="M1679 1567v-297q0 -752 -177.5 -1023.5t-589.5 -271.5q-425 0 -598.5 278t-173.5 1019v295h275v-263q0 -744 125.5 -916.5t369.5 -172.5q242 0 368 179.5t126 913.5v259h275zM2140 1567v-899h-257v899h257z" />
    <glyph glyph-name="uni1468" unicode="&#x1468;" horiz-adv-x="2280" 
d="M1404 0v244q0 749 -126 928.5t-368 179.5q-244 0 -369.5 -172.5t-125.5 -931.5v-248h-275v280q0 756 173.5 1034t598.5 278q412 0 589.5 -271.5t177.5 -1038.5v-282h-275zM2140 1567v-899h-257v899h257z" />
    <glyph glyph-name="uni1469" unicode="&#x1469;" horiz-adv-x="1949" 
d="M115 1567h262q586 0 794 -180.5t208 -579.5q0 -453 -215 -630t-789 -177h-260v250h235q471 0 605 124t134 413q0 265 -139 397.5t-602 132.5h-233v250zM1809 1567v-899h-257v899h257z" />
    <glyph glyph-name="uni146A" unicode="&#x146a;" horiz-adv-x="1949" 
d="M1379 1317h-233q-463 0 -602 -132.5t-139 -397.5q0 -289 134 -413t605 -124h235v-250h-260q-574 0 -789 177t-215 630q0 399 208 579.5t794 180.5h262v-250zM1809 1567v-899h-257v899h257z" />
    <glyph glyph-name="uni146B" unicode="&#x146b;" horiz-adv-x="1333" 
d="M886 0v519q-166 -36 -282 -36q-199 0 -344 142t-145 438q0 223 145 376t412 153q214 0 351.5 -143t137.5 -417v-1032h-275zM682 708q102 0 204 21v292q0 186 -63 258.5t-174 72.5q-116 0 -180 -65.5t-64 -219.5q0 -167 64.5 -263t212.5 -96z" />
    <glyph glyph-name="uni146C" unicode="&#x146c;" horiz-adv-x="1333" 
d="M172 0v1032q0 274 137.5 417t351.5 143q267 0 412 -153t145 -376q0 -296 -145 -438t-344 -142q-116 0 -282 36v-519h-275zM651 708q148 0 212.5 96t64.5 263q0 154 -64 219.5t-180 65.5q-111 0 -174 -72.5t-63 -258.5v-292q102 -21 204 -21zM399 1984q0 59 22 111
t60.5 90.5t89.5 60.5t110 22q58 0 110 -22t90.5 -60.5t61 -90.5t22.5 -111t-22.5 -110t-61 -89t-90.5 -60t-110 -22q-59 0 -110 22t-89.5 60t-60.5 89t-22 110zM574 1989q0 -30 8.5 -56.5t22.5 -46t33 -30.5t40 -11q24 0 44.5 11t35.5 30.5t23.5 46t8.5 56.5q0 28 -8.5 53
t-23.5 43.5t-35.5 29.5t-44.5 11q-21 0 -40 -11t-33 -29.5t-22.5 -43.5t-8.5 -53z" />
    <glyph glyph-name="uni146D" unicode="&#x146d;" horiz-adv-x="1333" 
d="M172 0v1032q0 274 137.5 417t351.5 143q267 0 412 -153t145 -376q0 -296 -145 -438t-344 -142q-116 0 -282 36v-519h-275zM651 708q148 0 212.5 96t64.5 263q0 154 -64 219.5t-180 65.5q-111 0 -174 -72.5t-63 -258.5v-292q102 -21 204 -21z" />
    <glyph glyph-name="uni146E" unicode="&#x146e;" horiz-adv-x="1333" 
d="M543 1901q0 57 41 104t107 47q67 0 109 -46.5t42 -104.5q0 -55 -42 -101.5t-109 -46.5q-63 0 -105.5 44.5t-42.5 103.5zM172 0v1032q0 274 137.5 417t351.5 143q267 0 412 -153t145 -376q0 -296 -145 -438t-344 -142q-116 0 -282 36v-519h-275zM651 708q148 0 212.5 96
t64.5 263q0 154 -64 219.5t-180 65.5q-111 0 -174 -72.5t-63 -258.5v-292q102 -21 204 -21z" />
    <glyph glyph-name="uni146F" unicode="&#x146f;" horiz-adv-x="1333" 
d="M1161 1567v-1032q0 -295 -137.5 -427.5t-379.5 -132.5q-258 0 -393.5 136t-135.5 393q0 309 145 451t344 142q116 0 282 -36v506h275zM682 872q-148 0 -212.5 -96t-64.5 -276q0 -154 64 -219.5t172 -65.5t176.5 61t68.5 270v305q-102 21 -204 21z" />
    <glyph glyph-name="uni1470" unicode="&#x1470;" horiz-adv-x="1315" 
d="M1161 1567v-1032q0 -295 -137.5 -427.5t-379.5 -132.5q-258 0 -393.5 136t-135.5 393q0 309 145 451t344 142q116 0 282 -36v506h275zM682 872q-148 0 -212.5 -96t-64.5 -276q0 -154 64 -219.5t172 -65.5t176.5 61t68.5 270v305q-102 21 -204 21zM885 1901q0 57 41 104
t107 47q67 0 109 -46.5t42 -104.5q0 -55 -42 -101.5t-109 -46.5q-63 0 -105.5 44.5t-42.5 103.5z" />
    <glyph glyph-name="uni1471" unicode="&#x1471;" horiz-adv-x="1315" 
d="M1161 1567v-1032q0 -295 -137.5 -427.5t-379.5 -132.5q-258 0 -393.5 136t-135.5 393q0 309 145 451t344 142q116 0 282 -36v506h275zM682 872q-148 0 -212.5 -96t-64.5 -276q0 -154 64 -219.5t172 -65.5t176.5 61t68.5 270v305q-102 21 -204 21zM883 1900q0 57 41 104
t107 47q67 0 109 -46.5t42 -104.5q0 -55 -42 -101.5t-109 -46.5q-63 0 -105.5 44.5t-42.5 103.5zM412 1901q0 57 41 104t107 47q67 0 109 -46.5t42 -104.5q0 -55 -42 -101.5t-109 -46.5q-63 0 -105.5 44.5t-42.5 103.5z" />
    <glyph glyph-name="uni1472" unicode="&#x1472;" horiz-adv-x="1333" 
d="M447 1567v-506q166 36 282 36q199 0 344 -142t145 -451q0 -257 -135.5 -393t-393.5 -136q-242 0 -379.5 132.5t-137.5 427.5v1032h275zM651 872q-102 0 -204 -21v-305q0 -209 68.5 -270t176.5 -61t172 65.5t64 219.5q0 180 -64.5 276t-212.5 96z" />
    <glyph glyph-name="uni1473" unicode="&#x1473;" horiz-adv-x="1304" 
d="M419 1567v-506q166 36 282 36q199 0 344 -142t145 -451q0 -257 -135.5 -393t-393.5 -136q-242 0 -379.5 132.5t-137.5 427.5v1032h275zM623 872q-102 0 -204 -21v-305q0 -209 68.5 -270t176.5 -61t172 65.5t64 219.5q0 180 -64.5 276t-212.5 96zM139 1901q0 57 41 104
t107 47q67 0 109 -46.5t42 -104.5q0 -55 -42 -101.5t-109 -46.5q-63 0 -105.5 44.5t-42.5 103.5z" />
    <glyph glyph-name="uni1474" unicode="&#x1474;" horiz-adv-x="1668" 
d="M1221 0v519q-166 -36 -282 -36q-199 0 -344 142t-145 438q0 223 145 376t412 153q214 0 351.5 -143t137.5 -417v-1032h-275zM1017 708q102 0 204 21v292q0 186 -63 258.5t-174 72.5q-116 0 -180 -65.5t-64 -219.5q0 -167 64.5 -263t212.5 -96zM46 818q0 57 41 104t107 47
q67 0 109 -46.5t42 -104.5q0 -55 -42 -101.5t-109 -46.5q-63 0 -105.5 44.5t-42.5 103.5z" />
    <glyph glyph-name="uni1475" unicode="&#x1475;" horiz-adv-x="1635" 
d="M886 0v519q-166 -36 -282 -36q-199 0 -344 142t-145 438q0 223 145 376t412 153q214 0 351.5 -143t137.5 -417v-1032h-275zM682 708q102 0 204 21v292q0 186 -63 258.5t-174 72.5q-116 0 -180 -65.5t-64 -219.5q0 -167 64.5 -263t212.5 -96zM1291 817q0 57 41 104t107 47
q67 0 109 -46.5t42 -104.5q0 -55 -42 -101.5t-109 -46.5q-63 0 -105.5 44.5t-42.5 103.5z" />
    <glyph glyph-name="uni1476" unicode="&#x1476;" horiz-adv-x="1616" 
d="M455 0v1032q0 274 137.5 417t351.5 143q267 0 412 -153t145 -376q0 -296 -145 -438t-344 -142q-116 0 -282 36v-519h-275zM934 708q148 0 212.5 96t64.5 263q0 154 -64 219.5t-180 65.5q-111 0 -174 -72.5t-63 -258.5v-292q102 -21 204 -21zM46 817q0 57 41 104t107 47
q67 0 109 -46.5t42 -104.5q0 -55 -42 -101.5t-109 -46.5q-63 0 -105.5 44.5t-42.5 103.5z" />
    <glyph glyph-name="uni1477" unicode="&#x1477;" horiz-adv-x="1687" 
d="M172 0v1032q0 274 137.5 417t351.5 143q267 0 412 -153t145 -376q0 -296 -145 -438t-344 -142q-116 0 -282 36v-519h-275zM651 708q148 0 212.5 96t64.5 263q0 154 -64 219.5t-180 65.5q-111 0 -174 -72.5t-63 -258.5v-292q102 -21 204 -21zM1343 816q0 57 41 104t107 47
q67 0 109 -46.5t42 -104.5q0 -55 -42 -101.5t-109 -46.5q-63 0 -105.5 44.5t-42.5 103.5z" />
    <glyph glyph-name="uni1478" unicode="&#x1478;" horiz-adv-x="1615" 
d="M454 0v1032q0 274 137.5 417t351.5 143q267 0 412 -153t145 -376q0 -296 -145 -438t-344 -142q-116 0 -282 36v-519h-275zM933 708q148 0 212.5 96t64.5 263q0 154 -64 219.5t-180 65.5q-111 0 -174 -72.5t-63 -258.5v-292q102 -21 204 -21zM817 1901q0 57 41 104t107 47
q67 0 109 -46.5t42 -104.5q0 -55 -42 -101.5t-109 -46.5q-63 0 -105.5 44.5t-42.5 103.5zM46 817q0 57 41 104t107 47q67 0 109 -46.5t42 -104.5q0 -55 -42 -101.5t-109 -46.5q-63 0 -105.5 44.5t-42.5 103.5z" />
    <glyph glyph-name="uni1479" unicode="&#x1479;" horiz-adv-x="1687" 
d="M172 0v1032q0 274 137.5 417t351.5 143q267 0 412 -153t145 -376q0 -296 -145 -438t-344 -142q-116 0 -282 36v-519h-275zM651 708q148 0 212.5 96t64.5 263q0 154 -64 219.5t-180 65.5q-111 0 -174 -72.5t-63 -258.5v-292q102 -21 204 -21zM531 1901q0 57 41 104t107 47
q67 0 109 -46.5t42 -104.5q0 -55 -42 -101.5t-109 -46.5q-63 0 -105.5 44.5t-42.5 103.5zM1343 816q0 57 41 104t107 47q67 0 109 -46.5t42 -104.5q0 -55 -42 -101.5t-109 -46.5q-63 0 -105.5 44.5t-42.5 103.5z" />
    <glyph glyph-name="uni147A" unicode="&#x147a;" horiz-adv-x="1673" 
d="M1501 1567v-1032q0 -295 -137.5 -427.5t-379.5 -132.5q-258 0 -393.5 136t-135.5 393q0 309 145 451t344 142q116 0 282 -36v506h275zM1022 872q-148 0 -212.5 -96t-64.5 -276q0 -154 64 -219.5t172 -65.5t176.5 61t68.5 270v305q-102 21 -204 21zM46 817q0 57 41 104
t107 47q67 0 109 -46.5t42 -104.5q0 -55 -42 -101.5t-109 -46.5q-63 0 -105.5 44.5t-42.5 103.5z" />
    <glyph glyph-name="uni147B" unicode="&#x147b;" horiz-adv-x="1630" 
d="M1161 1567v-1032q0 -295 -137.5 -427.5t-379.5 -132.5q-258 0 -393.5 136t-135.5 393q0 309 145 451t344 142q116 0 282 -36v506h275zM682 872q-148 0 -212.5 -96t-64.5 -276q0 -154 64 -219.5t172 -65.5t176.5 61t68.5 270v305q-102 21 -204 21zM1286 817q0 57 41 104
t107 47q67 0 109 -46.5t42 -104.5q0 -55 -42 -101.5t-109 -46.5q-63 0 -105.5 44.5t-42.5 103.5z" />
    <glyph glyph-name="uni147C" unicode="&#x147c;" horiz-adv-x="1645" 
d="M1501 1567v-1032q0 -295 -137.5 -427.5t-379.5 -132.5q-258 0 -393.5 136t-135.5 393q0 309 145 451t344 142q116 0 282 -36v506h275zM1022 872q-148 0 -212.5 -96t-64.5 -276q0 -154 64 -219.5t172 -65.5t176.5 61t68.5 270v305q-102 21 -204 21zM1216 1901q0 57 41 104
t107 47q67 0 109 -46.5t42 -104.5q0 -55 -42 -101.5t-109 -46.5q-63 0 -105.5 44.5t-42.5 103.5zM46 816q0 57 41 104t107 47q67 0 109 -46.5t42 -104.5q0 -55 -42 -101.5t-109 -46.5q-63 0 -105.5 44.5t-42.5 103.5z" />
    <glyph glyph-name="uni147D" unicode="&#x147d;" horiz-adv-x="1630" 
d="M1161 1567v-1032q0 -295 -137.5 -427.5t-379.5 -132.5q-258 0 -393.5 136t-135.5 393q0 309 145 451t344 142q116 0 282 -36v506h275zM682 872q-148 0 -212.5 -96t-64.5 -276q0 -154 64 -219.5t172 -65.5t176.5 61t68.5 270v305q-102 21 -204 21zM887 1901q0 57 41 104
t107 47q67 0 109 -46.5t42 -104.5q0 -55 -42 -101.5t-109 -46.5q-63 0 -105.5 44.5t-42.5 103.5zM1286 817q0 57 41 104t107 47q67 0 109 -46.5t42 -104.5q0 -55 -42 -101.5t-109 -46.5q-63 0 -105.5 44.5t-42.5 103.5z" />
    <glyph glyph-name="uni147E" unicode="&#x147e;" horiz-adv-x="1673" 
d="M787 1567v-506q166 36 282 36q199 0 344 -142t145 -451q0 -257 -135.5 -393t-393.5 -136q-242 0 -379.5 132.5t-137.5 427.5v1032h275zM991 872q-102 0 -204 -21v-305q0 -209 68.5 -270t176.5 -61t172 65.5t64 219.5q0 180 -64.5 276t-212.5 96zM46 817q0 57 41 104
t107 47q67 0 109 -46.5t42 -104.5q0 -55 -42 -101.5t-109 -46.5q-63 0 -105.5 44.5t-42.5 103.5z" />
    <glyph glyph-name="uni147F" unicode="&#x147f;" horiz-adv-x="1630" 
d="M447 1567v-506q166 36 282 36q199 0 344 -142t145 -451q0 -257 -135.5 -393t-393.5 -136q-242 0 -379.5 132.5t-137.5 427.5v1032h275zM651 872q-102 0 -204 -21v-305q0 -209 68.5 -270t176.5 -61t172 65.5t64 219.5q0 180 -64.5 276t-212.5 96zM1286 817q0 57 41 104
t107 47q67 0 109 -46.5t42 -104.5q0 -55 -42 -101.5t-109 -46.5q-63 0 -105.5 44.5t-42.5 103.5z" />
    <glyph glyph-name="uni1480" unicode="&#x1480;" horiz-adv-x="1673" 
d="M787 1567v-506q166 36 282 36q199 0 344 -142t145 -451q0 -257 -135.5 -393t-393.5 -136q-242 0 -379.5 132.5t-137.5 427.5v1032h275zM991 872q-102 0 -204 -21v-305q0 -209 68.5 -270t176.5 -61t172 65.5t64 219.5q0 180 -64.5 276t-212.5 96zM501 1901q0 57 41 104
t107 47q67 0 109 -46.5t42 -104.5q0 -55 -42 -101.5t-109 -46.5q-63 0 -105.5 44.5t-42.5 103.5zM46 817q0 57 41 104t107 47q67 0 109 -46.5t42 -104.5q0 -55 -42 -101.5t-109 -46.5q-63 0 -105.5 44.5t-42.5 103.5z" />
    <glyph glyph-name="uni1481" unicode="&#x1481;" horiz-adv-x="1579" 
d="M397 1567v-506q166 36 282 36q199 0 344 -142t145 -451q0 -257 -135.5 -393t-393.5 -136q-242 0 -379.5 132.5t-137.5 427.5v1032h275zM601 872q-102 0 -204 -21v-305q0 -209 68.5 -270t176.5 -61t172 65.5t64 219.5q0 180 -64.5 276t-212.5 96zM122 1901q0 57 41 104
t107 47q67 0 109 -46.5t42 -104.5q0 -55 -42 -101.5t-109 -46.5q-63 0 -105.5 44.5t-42.5 103.5zM1235 816q0 57 41 104t107 47q67 0 109 -46.5t42 -104.5q0 -55 -42 -101.5t-109 -46.5q-63 0 -105.5 44.5t-42.5 103.5z" />
    <glyph glyph-name="uni1482" unicode="&#x1482;" horiz-adv-x="1674" 
d="M46 1101q0 57 41 104t107 47q67 0 109 -46.5t42 -104.5q0 -55 -42 -101.5t-109 -46.5q-63 0 -105.5 44.5t-42.5 103.5zM788 1567v-506q166 36 282 36q199 0 344 -142t145 -451q0 -257 -135.5 -393t-393.5 -136q-242 0 -379.5 132.5t-137.5 427.5v1032h275zM992 872
q-102 0 -204 -21v-305q0 -209 68.5 -270t176.5 -61t172 65.5t64 219.5q0 180 -64.5 276t-212.5 96zM47 550q0 57 41 104t107 47q67 0 109 -46.5t42 -104.5q0 -55 -42 -101.5t-109 -46.5q-63 0 -105.5 44.5t-42.5 103.5z" />
    <glyph glyph-name="uni1483" unicode="&#x1483;" horiz-adv-x="984" 
d="M335 1055q0 -112 48.5 -149.5t117.5 -37.5q74 0 115 29.5t41 125.5q0 86 -40.5 123.5t-115.5 37.5q-99 0 -166 -24v-105zM335 1567v-264q107 38 217 38q169 0 267 -80t98 -240q0 -181 -95 -267t-339 -86q-188 0 -296.5 86t-108.5 235v578h257z" />
    <glyph glyph-name="uni1484" unicode="&#x1484;" horiz-adv-x="984" 
d="M649 1166q-67 18 -166 18q-75 0 -115.5 -37.5t-40.5 -123.5q0 -96 41 -125.5t115 -29.5q69 0 117.5 37.5t48.5 149.5v111zM906 1567v-578q0 -149 -108.5 -235t-296.5 -86q-244 0 -339 86t-95 267q0 160 98 240t267 80q124 0 217 -26v252h257z" />
    <glyph glyph-name="uni1485" unicode="&#x1485;" horiz-adv-x="1744" 
d="M886 0v519q-166 -36 -282 -36q-199 0 -344 142t-145 438q0 223 145 376t412 153q214 0 351.5 -143t137.5 -417v-1032h-275zM682 708q102 0 204 21v292q0 186 -63 258.5t-174 72.5q-116 0 -180 -65.5t-64 -219.5q0 -167 64.5 -263t212.5 -96zM1572 1567v-899h-257v899h257
z" />
    <glyph glyph-name="uni1486" unicode="&#x1486;" horiz-adv-x="1767" 
d="M172 0v1032q0 274 137.5 417t351.5 143q267 0 412 -153t145 -376q0 -296 -145 -438t-344 -142q-116 0 -282 36v-519h-275zM651 708q148 0 212.5 96t64.5 263q0 154 -64 219.5t-180 65.5q-111 0 -174 -72.5t-63 -258.5v-292q102 -21 204 -21zM1595 1567v-899h-257v899h257
z" />
    <glyph glyph-name="uni1487" unicode="&#x1487;" horiz-adv-x="1733" 
d="M1161 1567v-1032q0 -295 -137.5 -427.5t-379.5 -132.5q-258 0 -393.5 136t-135.5 393q0 309 145 451t344 142q116 0 282 -36v506h275zM682 872q-148 0 -212.5 -96t-64.5 -276q0 -154 64 -219.5t172 -65.5t176.5 61t68.5 270v305q-102 21 -204 21zM1538 1567v-899h-257
v899h257z" />
    <glyph glyph-name="uni1488" unicode="&#x1488;" horiz-adv-x="1733" 
d="M447 1567v-506q166 36 282 36q199 0 344 -142t145 -451q0 -257 -135.5 -393t-393.5 -136q-242 0 -379.5 132.5t-137.5 427.5v1032h275zM651 872q-102 0 -204 -21v-305q0 -209 68.5 -270t176.5 -61t172 65.5t64 219.5q0 180 -64.5 276t-212.5 96zM1538 1567v-899h-257v899
h257z" />
    <glyph glyph-name="uni1489" unicode="&#x1489;" horiz-adv-x="1453" 
d="M1281 0h-275v968q0 215 -71 299.5t-237 84.5q-155 0 -237.5 -71t-82.5 -315v-96h-275v135q0 299 154.5 443t426.5 144q322 0 459.5 -159t137.5 -439v-994z" />
    <glyph glyph-name="uni148A" unicode="&#x148a;" horiz-adv-x="1453" 
d="M172 994q0 280 137.5 439t459.5 159q272 0 426.5 -144t154.5 -443v-135h-275v96q0 244 -82.5 315t-237.5 71q-166 0 -237 -84.5t-71 -299.5v-968h-275v994zM486 1984q0 59 22 111t60.5 90.5t89.5 60.5t110 22q58 0 110 -22t90.5 -60.5t61 -90.5t22.5 -111t-22.5 -110
t-61 -89t-90.5 -60t-110 -22q-59 0 -110 22t-89.5 60t-60.5 89t-22 110zM661 1989q0 -30 8.5 -56.5t22.5 -46t33 -30.5t40 -11q24 0 44.5 11t35.5 30.5t23.5 46t8.5 56.5q0 28 -8.5 53t-23.5 43.5t-35.5 29.5t-44.5 11q-21 0 -40 -11t-33 -29.5t-22.5 -43.5t-8.5 -53z" />
    <glyph glyph-name="uni148B" unicode="&#x148b;" horiz-adv-x="1453" 
d="M172 994q0 280 137.5 439t459.5 159q272 0 426.5 -144t154.5 -443v-135h-275v96q0 244 -82.5 315t-237.5 71q-166 0 -237 -84.5t-71 -299.5v-968h-275v994z" />
    <glyph glyph-name="uni148C" unicode="&#x148c;" horiz-adv-x="1453" 
d="M172 994q0 280 137.5 439t459.5 159q272 0 426.5 -144t154.5 -443v-135h-275v96q0 244 -82.5 315t-237.5 71q-166 0 -237 -84.5t-71 -299.5v-968h-275v994zM623 1900q0 57 41 104t107 47q67 0 109 -46.5t42 -104.5q0 -55 -42 -101.5t-109 -46.5q-63 0 -105.5 44.5
t-42.5 103.5z" />
    <glyph glyph-name="uni148D" unicode="&#x148d;" horiz-adv-x="1453" 
d="M1281 573q0 -280 -137.5 -439t-459.5 -159q-272 0 -426.5 144t-154.5 443v135h275v-96q0 -244 82.5 -315t237.5 -71q166 0 237 84.5t71 299.5v968h275v-994z" />
    <glyph glyph-name="uni148E" unicode="&#x148e;" horiz-adv-x="1430" 
d="M1281 573q0 -280 -137.5 -439t-459.5 -159q-272 0 -426.5 144t-154.5 443v135h275v-96q0 -244 82.5 -315t237.5 -71q166 0 237 84.5t71 299.5v968h275v-994zM1001 1901q0 57 41 104t107 47q67 0 109 -46.5t42 -104.5q0 -55 -42 -101.5t-109 -46.5q-63 0 -105.5 44.5
t-42.5 103.5z" />
    <glyph glyph-name="uni148F" unicode="&#x148f;" horiz-adv-x="1439" 
d="M1281 573q0 -280 -137.5 -439t-459.5 -159q-272 0 -426.5 144t-154.5 443v135h275v-96q0 -244 82.5 -315t237.5 -71q166 0 237 84.5t71 299.5v968h275v-994zM1003 1901q0 57 41 104t107 47q67 0 109 -46.5t42 -104.5q0 -55 -42 -101.5t-109 -46.5q-63 0 -105.5 44.5
t-42.5 103.5zM461 1901q0 57 41 104t107 47q67 0 109 -46.5t42 -104.5q0 -55 -42 -101.5t-109 -46.5q-63 0 -105.5 44.5t-42.5 103.5z" />
    <glyph glyph-name="uni1490" unicode="&#x1490;" horiz-adv-x="1453" 
d="M172 1567h275v-968q0 -215 71 -299.5t237 -84.5q155 0 237.5 71t82.5 315v96h275v-135q0 -299 -154.5 -443t-426.5 -144q-322 0 -459.5 159t-137.5 439v994z" />
    <glyph glyph-name="uni1491" unicode="&#x1491;" horiz-adv-x="1421" 
d="M141 1567h275v-968q0 -215 71 -299.5t237 -84.5q155 0 237.5 71t82.5 315v96h275v-135q0 -299 -154.5 -443t-426.5 -144q-322 0 -459.5 159t-137.5 439v994zM137 1901q0 57 41 104t107 47q67 0 109 -46.5t42 -104.5q0 -55 -42 -101.5t-109 -46.5q-63 0 -105.5 44.5
t-42.5 103.5z" />
    <glyph glyph-name="uni1492" unicode="&#x1492;" 
d="M1616 0h-275v968q0 215 -71 299.5t-237 84.5q-155 0 -237.5 -71t-82.5 -315v-96h-275v135q0 299 154.5 443t426.5 144q322 0 459.5 -159t137.5 -439v-994zM46 777q0 57 41 104t107 47q67 0 109 -46.5t42 -104.5q0 -55 -42 -101.5t-109 -46.5q-63 0 -105.5 44.5
t-42.5 103.5z" />
    <glyph glyph-name="uni1493" unicode="&#x1493;" horiz-adv-x="1787" 
d="M1281 0h-275v968q0 215 -71 299.5t-237 84.5q-155 0 -237.5 -71t-82.5 -315v-96h-275v135q0 299 154.5 443t426.5 144q322 0 459.5 -159t137.5 -439v-994zM1443 817q0 57 41 104t107 47q67 0 109 -46.5t42 -104.5q0 -55 -42 -101.5t-109 -46.5q-63 0 -105.5 44.5
t-42.5 103.5z" />
    <glyph glyph-name="uni1494" unicode="&#x1494;" 
d="M507 994q0 280 137.5 439t459.5 159q272 0 426.5 -144t154.5 -443v-135h-275v96q0 244 -82.5 315t-237.5 71q-166 0 -237 -84.5t-71 -299.5v-968h-275v994zM46 816q0 57 41 104t107 47q67 0 109 -46.5t42 -104.5q0 -55 -42 -101.5t-109 -46.5q-63 0 -105.5 44.5
t-42.5 103.5z" />
    <glyph glyph-name="uni1495" unicode="&#x1495;" horiz-adv-x="1787" 
d="M172 994q0 280 137.5 439t459.5 159q272 0 426.5 -144t154.5 -443v-135h-275v96q0 244 -82.5 315t-237.5 71q-166 0 -237 -84.5t-71 -299.5v-968h-275v994zM1443 817q0 57 41 104t107 47q67 0 109 -46.5t42 -104.5q0 -55 -42 -101.5t-109 -46.5q-63 0 -105.5 44.5
t-42.5 103.5z" />
    <glyph glyph-name="uni1496" unicode="&#x1496;" 
d="M507 994q0 280 137.5 439t459.5 159q272 0 426.5 -144t154.5 -443v-135h-275v96q0 244 -82.5 315t-237.5 71q-166 0 -237 -84.5t-71 -299.5v-968h-275v994zM954 1901q0 57 41 104t107 47q67 0 109 -46.5t42 -104.5q0 -55 -42 -101.5t-109 -46.5q-63 0 -105.5 44.5
t-42.5 103.5zM46 816q0 57 41 104t107 47q67 0 109 -46.5t42 -104.5q0 -55 -42 -101.5t-109 -46.5q-63 0 -105.5 44.5t-42.5 103.5z" />
    <glyph glyph-name="uni1497" unicode="&#x1497;" horiz-adv-x="1787" 
d="M172 994q0 280 137.5 439t459.5 159q272 0 426.5 -144t154.5 -443v-135h-275v96q0 244 -82.5 315t-237.5 71q-166 0 -237 -84.5t-71 -299.5v-968h-275v994zM613 1901q0 57 41 104t107 47q67 0 109 -46.5t42 -104.5q0 -55 -42 -101.5t-109 -46.5q-63 0 -105.5 44.5
t-42.5 103.5zM1443 817q0 57 41 104t107 47q67 0 109 -46.5t42 -104.5q0 -55 -42 -101.5t-109 -46.5q-63 0 -105.5 44.5t-42.5 103.5z" />
    <glyph glyph-name="uni1498" unicode="&#x1498;" 
d="M1616 573q0 -280 -137.5 -439t-459.5 -159q-272 0 -426.5 144t-154.5 443v135h275v-96q0 -244 82.5 -315t237.5 -71q166 0 237 84.5t71 299.5v968h275v-994zM46 817q0 57 41 104t107 47q67 0 109 -46.5t42 -104.5q0 -55 -42 -101.5t-109 -46.5q-63 0 -105.5 44.5
t-42.5 103.5z" />
    <glyph glyph-name="uni1499" unicode="&#x1499;" horiz-adv-x="1787" 
d="M1281 573q0 -280 -137.5 -439t-459.5 -159q-272 0 -426.5 144t-154.5 443v135h275v-96q0 -244 82.5 -315t237.5 -71q166 0 237 84.5t71 299.5v968h275v-994zM1443 817q0 57 41 104t107 47q67 0 109 -46.5t42 -104.5q0 -55 -42 -101.5t-109 -46.5q-63 0 -105.5 44.5
t-42.5 103.5z" />
    <glyph glyph-name="uni149A" unicode="&#x149a;" horiz-adv-x="1747" 
d="M1591 573q0 -280 -137.5 -439t-459.5 -159q-272 0 -426.5 144t-154.5 443v135h275v-96q0 -244 82.5 -315t237.5 -71q166 0 237 84.5t71 299.5v968h275v-994zM46 817q0 57 41 104t107 47q67 0 109 -46.5t42 -104.5q0 -55 -42 -101.5t-109 -46.5q-63 0 -105.5 44.5
t-42.5 103.5zM1313 1901q0 57 41 104t107 47q67 0 109 -46.5t42 -104.5q0 -55 -42 -101.5t-109 -46.5q-63 0 -105.5 44.5t-42.5 103.5z" />
    <glyph glyph-name="uni149B" unicode="&#x149b;" horiz-adv-x="1787" 
d="M1281 573q0 -280 -137.5 -439t-459.5 -159q-272 0 -426.5 144t-154.5 443v135h275v-96q0 -244 82.5 -315t237.5 -71q166 0 237 84.5t71 299.5v968h275v-994zM1443 817q0 57 41 104t107 47q67 0 109 -46.5t42 -104.5q0 -55 -42 -101.5t-109 -46.5q-63 0 -105.5 44.5
t-42.5 103.5zM999 1901q0 57 41 104t107 47q67 0 109 -46.5t42 -104.5q0 -55 -42 -101.5t-109 -46.5q-63 0 -105.5 44.5t-42.5 103.5z" />
    <glyph glyph-name="uni149C" unicode="&#x149c;" 
d="M507 1567h275v-968q0 -215 71 -299.5t237 -84.5q155 0 237.5 71t82.5 315v96h275v-135q0 -299 -154.5 -443t-426.5 -144q-322 0 -459.5 159t-137.5 439v994zM46 817q0 57 41 104t107 47q67 0 109 -46.5t42 -104.5q0 -55 -42 -101.5t-109 -46.5q-63 0 -105.5 44.5
t-42.5 103.5z" />
    <glyph glyph-name="uni149D" unicode="&#x149d;" horiz-adv-x="1787" 
d="M172 1567h275v-968q0 -215 71 -299.5t237 -84.5q155 0 237.5 71t82.5 315v96h275v-135q0 -299 -154.5 -443t-426.5 -144q-322 0 -459.5 159t-137.5 439v994zM1443 817q0 57 41 104t107 47q67 0 109 -46.5t42 -104.5q0 -55 -42 -101.5t-109 -46.5q-63 0 -105.5 44.5
t-42.5 103.5z" />
    <glyph glyph-name="uni149E" unicode="&#x149e;" 
d="M507 1567h275v-968q0 -215 71 -299.5t237 -84.5q155 0 237.5 71t82.5 315v96h275v-135q0 -299 -154.5 -443t-426.5 -144q-322 0 -459.5 159t-137.5 439v994zM494 1904q0 57 41 104t107 47q67 0 109 -46.5t42 -104.5q0 -55 -42 -101.5t-109 -46.5q-63 0 -105.5 44.5
t-42.5 103.5zM46 817q0 57 41 104t107 47q67 0 109 -46.5t42 -104.5q0 -55 -42 -101.5t-109 -46.5q-63 0 -105.5 44.5t-42.5 103.5z" />
    <glyph glyph-name="uni149F" unicode="&#x149f;" horiz-adv-x="1729" 
d="M140 1567h275v-968q0 -215 71 -299.5t237 -84.5q155 0 237.5 71t82.5 315v96h275v-135q0 -299 -154.5 -443t-426.5 -144q-322 0 -459.5 159t-137.5 439v994zM141 1901q0 57 41 104t107 47q67 0 109 -46.5t42 -104.5q0 -55 -42 -101.5t-109 -46.5q-63 0 -105.5 44.5
t-42.5 103.5zM1385 817q0 57 41 104t107 47q67 0 109 -46.5t42 -104.5q0 -55 -42 -101.5t-109 -46.5q-63 0 -105.5 44.5t-42.5 103.5z" />
    <glyph glyph-name="uni14A0" unicode="&#x14a0;" 
d="M507 1567h275v-968q0 -215 71 -299.5t237 -84.5q155 0 237.5 71t82.5 315v96h275v-135q0 -299 -154.5 -443t-426.5 -144q-322 0 -459.5 159t-137.5 439v994zM46 1101q0 57 41 104t107 47q67 0 109 -46.5t42 -104.5q0 -55 -42 -101.5t-109 -46.5q-63 0 -105.5 44.5
t-42.5 103.5zM46 550q0 57 41 104t107 47q67 0 109 -46.5t42 -104.5q0 -55 -42 -101.5t-109 -46.5q-63 0 -105.5 44.5t-42.5 103.5z" />
    <glyph glyph-name="uni14A1" unicode="&#x14a1;" horiz-adv-x="927" 
d="M98 1567h257v-503q0 -107 27 -151.5t95 -44.5q71 0 95.5 47t24.5 128v51h257v-135q0 -135 -90 -213t-287 -78q-198 0 -288.5 83t-90.5 238v578z" />
    <glyph glyph-name="uni14A2" unicode="&#x14a2;" horiz-adv-x="927" 
d="M829 989q0 -155 -90.5 -238t-288.5 -83q-197 0 -287 78t-90 213v135h257v-51q0 -81 24.5 -128t95.5 -47q68 0 95 44.5t27 151.5v503h257v-578z" />
    <glyph glyph-name="uni14A3" unicode="&#x14a3;" horiz-adv-x="1317" 
d="M1145 0h-275v1317h-758v250h1033v-1567z" />
    <glyph glyph-name="uni14A4" unicode="&#x14a4;" horiz-adv-x="1274" 
d="M172 1567h1033v-250h-758v-1317h-275v1567zM378 1984q0 59 22 111t60.5 90.5t89.5 60.5t110 22q58 0 110 -22t90.5 -60.5t61 -90.5t22.5 -111t-22.5 -110t-61 -89t-90.5 -60t-110 -22q-59 0 -110 22t-89.5 60t-60.5 89t-22 110zM553 1989q0 -30 8.5 -56.5t22.5 -46
t33 -30.5t40 -11q24 0 44.5 11t35.5 30.5t23.5 46t8.5 56.5q0 28 -8.5 53t-23.5 43.5t-35.5 29.5t-44.5 11q-21 0 -40 -11t-33 -29.5t-22.5 -43.5t-8.5 -53z" />
    <glyph glyph-name="uni14A5" unicode="&#x14a5;" horiz-adv-x="1274" 
d="M172 1567h1033v-250h-758v-1317h-275v1567z" />
    <glyph glyph-name="uni14A6" unicode="&#x14a6;" horiz-adv-x="1274" 
d="M172 1567h1033v-250h-758v-1317h-275v1567zM535 1901q0 57 41 104t107 47q67 0 109 -46.5t42 -104.5q0 -55 -42 -101.5t-109 -46.5q-63 0 -105.5 44.5t-42.5 103.5z" />
    <glyph glyph-name="uni14A7" unicode="&#x14a7;" horiz-adv-x="1274" 
d="M1102 0h-1033v250h758v1317h275v-1567z" />
    <glyph glyph-name="uni14A8" unicode="&#x14a8;" horiz-adv-x="1248" 
d="M1102 0h-1033v250h758v1317h275v-1567zM814 1901q0 57 41 104t107 47q67 0 109 -46.5t42 -104.5q0 -55 -42 -101.5t-109 -46.5q-63 0 -105.5 44.5t-42.5 103.5z" />
    <glyph glyph-name="uni14A9" unicode="&#x14a9;" horiz-adv-x="1258" 
d="M1102 0h-1033v250h758v1317h275v-1567zM824 1901q0 57 41 104t107 47q67 0 109 -46.5t42 -104.5q0 -55 -42 -101.5t-109 -46.5q-63 0 -105.5 44.5t-42.5 103.5zM327 1901q0 57 41 104t107 47q67 0 109 -46.5t42 -104.5q0 -55 -42 -101.5t-109 -46.5q-63 0 -105.5 44.5
t-42.5 103.5z" />
    <glyph glyph-name="uni14AA" unicode="&#x14aa;" horiz-adv-x="1274" 
d="M172 1567h275v-1317h758v-250h-1033v1567z" />
    <glyph glyph-name="uni14AB" unicode="&#x14ab;" horiz-adv-x="1239" 
d="M138 1567h275v-1317h758v-250h-1033v1567zM136 1901q0 57 41 104t107 47q67 0 109 -46.5t42 -104.5q0 -55 -42 -101.5t-109 -46.5q-63 0 -105.5 44.5t-42.5 103.5z" />
    <glyph glyph-name="uni14AC" unicode="&#x14ac;" horiz-adv-x="1507" 
d="M1335 0h-275v1317h-758v250h1033v-1567zM46 817q0 57 41 104t107 47q67 0 109 -46.5t42 -104.5q0 -55 -42 -101.5t-109 -46.5q-63 0 -105.5 44.5t-42.5 103.5z" />
    <glyph glyph-name="uni14AD" unicode="&#x14ad;" horiz-adv-x="1651" 
d="M1145 0h-275v1317h-758v250h1033v-1567zM1307 817q0 57 41 104t107 47q67 0 109 -46.5t42 -104.5q0 -55 -42 -101.5t-109 -46.5q-63 0 -105.5 44.5t-42.5 103.5z" />
    <glyph glyph-name="uni14AE" unicode="&#x14ae;" horiz-adv-x="1599" 
d="M497 1567h1033v-250h-758v-1317h-275v1567zM46 817q0 57 41 104t107 47q67 0 109 -46.5t42 -104.5q0 -55 -42 -101.5t-109 -46.5q-63 0 -105.5 44.5t-42.5 103.5z" />
    <glyph glyph-name="uni14AF" unicode="&#x14af;" horiz-adv-x="1473" 
d="M172 1567h1033v-250h-758v-1317h-275v1567zM1129 817q0 57 41 104t107 47q67 0 109 -46.5t42 -104.5q0 -55 -42 -101.5t-109 -46.5q-63 0 -105.5 44.5t-42.5 103.5z" />
    <glyph glyph-name="uni14B0" unicode="&#x14b0;" horiz-adv-x="1599" 
d="M497 1567h1033v-250h-758v-1317h-275v1567zM860 1901q0 57 41 104t107 47q67 0 109 -46.5t42 -104.5q0 -55 -42 -101.5t-109 -46.5q-63 0 -105.5 44.5t-42.5 103.5zM46 817q0 57 41 104t107 47q67 0 109 -46.5t42 -104.5q0 -55 -42 -101.5t-109 -46.5q-63 0 -105.5 44.5
t-42.5 103.5z" />
    <glyph glyph-name="uni14B1" unicode="&#x14b1;" horiz-adv-x="1473" 
d="M172 1567h1033v-250h-758v-1317h-275v1567zM535 1900q0 57 41 104t107 47q67 0 109 -46.5t42 -104.5q0 -55 -42 -101.5t-109 -46.5q-63 0 -105.5 44.5t-42.5 103.5zM1129 817q0 57 41 104t107 47q67 0 109 -46.5t42 -104.5q0 -55 -42 -101.5t-109 -46.5
q-63 0 -105.5 44.5t-42.5 103.5z" />
    <glyph glyph-name="uni14B2" unicode="&#x14b2;" horiz-adv-x="1464" 
d="M1292 0h-1033v250h758v1317h275v-1567zM46 817q0 57 41 104t107 47q67 0 109 -46.5t42 -104.5q0 -55 -42 -101.5t-109 -46.5q-63 0 -105.5 44.5t-42.5 103.5z" />
    <glyph glyph-name="uni14B3" unicode="&#x14b3;" horiz-adv-x="1608" 
d="M1102 0h-1033v250h758v1317h275v-1567zM1264 817q0 57 41 104t107 47q67 0 109 -46.5t42 -104.5q0 -55 -42 -101.5t-109 -46.5q-63 0 -105.5 44.5t-42.5 103.5z" />
    <glyph glyph-name="uni14B4" unicode="&#x14b4;" horiz-adv-x="1438" 
d="M1292 0h-1033v250h758v1317h275v-1567zM1010 1901q0 57 41 104t107 47q67 0 109 -46.5t42 -104.5q0 -55 -42 -101.5t-109 -46.5q-63 0 -105.5 44.5t-42.5 103.5zM46 817q0 57 41 104t107 47q67 0 109 -46.5t42 -104.5q0 -55 -42 -101.5t-109 -46.5q-63 0 -105.5 44.5
t-42.5 103.5z" />
    <glyph glyph-name="uni14B5" unicode="&#x14b5;" horiz-adv-x="1608" 
d="M1102 0h-1033v250h758v1317h275v-1567zM819 1901q0 57 41 104t107 47q67 0 109 -46.5t42 -104.5q0 -55 -42 -101.5t-109 -46.5q-63 0 -105.5 44.5t-42.5 103.5zM1264 817q0 57 41 104t107 47q67 0 109 -46.5t42 -104.5q0 -55 -42 -101.5t-109 -46.5q-63 0 -105.5 44.5
t-42.5 103.5z" />
    <glyph glyph-name="uni14B6" unicode="&#x14b6;" horiz-adv-x="1609" 
d="M507 1567h275v-1317h758v-250h-1033v1567zM46 817q0 57 41 104t107 47q67 0 109 -46.5t42 -104.5q0 -55 -42 -101.5t-109 -46.5q-63 0 -105.5 44.5t-42.5 103.5z" />
    <glyph glyph-name="uni14B7" unicode="&#x14b7;" horiz-adv-x="1473" 
d="M172 1567h275v-1317h758v-250h-1033v1567zM1129 817q0 57 41 104t107 47q67 0 109 -46.5t42 -104.5q0 -55 -42 -101.5t-109 -46.5q-63 0 -105.5 44.5t-42.5 103.5z" />
    <glyph glyph-name="uni14B8" unicode="&#x14b8;" horiz-adv-x="1608" 
d="M506 1567h275v-1317h758v-250h-1033v1567zM46 816q0 57 41 104t107 47q67 0 109 -46.5t42 -104.5q0 -55 -42 -101.5t-109 -46.5q-63 0 -105.5 44.5t-42.5 103.5zM519 1901q0 57 41 104t107 47q67 0 109 -46.5t42 -104.5q0 -55 -42 -101.5t-109 -46.5q-63 0 -105.5 44.5
t-42.5 103.5z" />
    <glyph glyph-name="uni14B9" unicode="&#x14b9;" horiz-adv-x="1438" 
d="M138 1567h275v-1317h758v-250h-1033v1567zM132 1901q0 57 41 104t107 47q67 0 109 -46.5t42 -104.5q0 -55 -42 -101.5t-109 -46.5q-63 0 -105.5 44.5t-42.5 103.5zM1094 817q0 57 41 104t107 47q67 0 109 -46.5t42 -104.5q0 -55 -42 -101.5t-109 -46.5q-63 0 -105.5 44.5
t-42.5 103.5z" />
    <glyph glyph-name="uni14BA" unicode="&#x14ba;" horiz-adv-x="1584" 
d="M506 1567h275v-1317h758v-250h-1033v1567zM46 550q0 57 41 104t107 47q67 0 109 -46.5t42 -104.5q0 -55 -42 -101.5t-109 -46.5q-63 0 -105.5 44.5t-42.5 103.5zM46 1101q0 57 41 104t107 47q67 0 109 -46.5t42 -104.5q0 -55 -42 -101.5t-109 -46.5q-63 0 -105.5 44.5
t-42.5 103.5z" />
    <glyph glyph-name="uni14BB" unicode="&#x14bb;" horiz-adv-x="793" 
d="M82 1567h257v-689h404v-210h-661v899z" />
    <glyph glyph-name="uni14BC" unicode="&#x14bc;" horiz-adv-x="759" 
d="M692 668h-52q-314 0 -434 121t-120 339q0 209 119.5 324t403.5 115h82v-210h-64q-143 0 -212 -53.5t-69 -175.5q0 -128 68 -189t254 -61h24v-210z" />
    <glyph glyph-name="uni14BD" unicode="&#x14bd;" horiz-adv-x="793" 
d="M711 668h-661v210h404v689h257v-899z" />
    <glyph glyph-name="uni14BE" unicode="&#x14be;" horiz-adv-x="921" 
d="M780 668h-648v198q12 6 113.5 61t190.5 133.5t89 191.5q0 61 -22.5 89.5t-69.5 28.5q-53 0 -83 -27.5t-30 -91.5h-243q0 180 105.5 254.5t261.5 74.5q161 0 251 -71.5t90 -193.5q0 -142 -98.5 -247.5t-245.5 -189.5h339v-210z" />
    <glyph glyph-name="uni14BF" unicode="&#x14bf;" horiz-adv-x="1349" 
d="M1226 0h-1059v238q414 186 598 381t184 405q0 161 -73 244.5t-193 83.5q-112 0 -175 -42.5t-63 -143.5h-290q0 196 145 311t376 115q269 0 416 -142.5t147 -386.5q0 -221 -145 -430t-500 -383h632v-250z" />
    <glyph glyph-name="uni14C0" unicode="&#x14c0;" horiz-adv-x="1879" 
d="M921 529q0 -156 69.5 -235t217.5 -79q141 0 203.5 79.5t62.5 227.5q0 157 -62.5 232.5t-211.5 75.5h-245q-16 -59 -25 -132.5t-9 -168.5zM69 1080h1108q298 0 442.5 -137t144.5 -406q0 -259 -140 -410.5t-419 -151.5q-265 0 -404.5 141.5t-139.5 367.5q0 103 11 185
t39 161h-642v250z" />
    <glyph glyph-name="uni14C1" unicode="&#x14c1;" horiz-adv-x="1879" 
d="M958 529q0 100 -9 171t-25 130h-245q-149 0 -211.5 -73t-62.5 -235q0 -148 62.5 -227.5t203.5 -79.5q148 0 217.5 79t69.5 235zM1810 830h-642q28 -79 39 -158.5t11 -187.5q0 -226 -139.5 -367.5t-404.5 -141.5q-279 0 -419 151.5t-140 410.5q0 269 144.5 406t442.5 137
h1108v-250zM419 1616q0 59 22 111t60.5 90.5t89.5 60.5t110 22q58 0 110 -22t90.5 -60.5t61 -90.5t22.5 -111t-22.5 -110t-61 -89t-90.5 -60t-110 -22q-59 0 -110 22t-89.5 60t-60.5 89t-22 110zM594 1621q0 -30 8.5 -56.5t22.5 -46t33 -30.5t40 -11q24 0 44.5 11t35.5 30.5
t23.5 46t8.5 56.5q0 28 -8.5 53t-23.5 43.5t-35.5 29.5t-44.5 11q-21 0 -40 -11t-33 -29.5t-22.5 -43.5t-8.5 -53z" />
    <glyph glyph-name="uni14C2" unicode="&#x14c2;" horiz-adv-x="1879" 
d="M958 529q0 100 -9 171t-25 130h-245q-149 0 -211.5 -73t-62.5 -235q0 -148 62.5 -227.5t203.5 -79.5q148 0 217.5 79t69.5 235zM1810 830h-642q28 -79 39 -158.5t11 -187.5q0 -226 -139.5 -367.5t-404.5 -141.5q-279 0 -419 151.5t-140 410.5q0 269 144.5 406t442.5 137
h1108v-250z" />
    <glyph glyph-name="uni14C3" unicode="&#x14c3;" horiz-adv-x="1879" 
d="M958 529q0 100 -9 171t-25 130h-245q-149 0 -211.5 -73t-62.5 -235q0 -148 62.5 -227.5t203.5 -79.5q148 0 217.5 79t69.5 235zM1810 830h-642q28 -79 39 -158.5t11 -187.5q0 -226 -139.5 -367.5t-404.5 -141.5q-279 0 -419 151.5t-140 410.5q0 269 144.5 406t442.5 137
h1108v-250zM490 1483q0 57 41 104t107 47q67 0 109 -46.5t42 -104.5q0 -55 -42 -101.5t-109 -46.5q-63 0 -105.5 44.5t-42.5 103.5z" />
    <glyph glyph-name="uni14C4" unicode="&#x14c4;" horiz-adv-x="1879" 
d="M921 551q0 -95 9 -168.5t25 -132.5h245q149 0 211.5 75.5t62.5 232.5q0 140 -62.5 219.5t-203.5 79.5q-148 0 -217.5 -79t-69.5 -227zM69 250h642q-28 79 -39 163.5t-11 182.5q0 218 139.5 359.5t404.5 141.5q279 0 419 -151.5t140 -402.5q0 -269 -144.5 -406
t-442.5 -137h-1108v250z" />
    <glyph glyph-name="uni14C5" unicode="&#x14c5;" horiz-adv-x="1879" 
d="M921 551q0 -95 9 -168.5t25 -132.5h245q149 0 211.5 75.5t62.5 232.5q0 140 -62.5 219.5t-203.5 79.5q-148 0 -217.5 -79t-69.5 -227zM69 250h642q-28 79 -39 163.5t-11 182.5q0 218 139.5 359.5t404.5 141.5q279 0 419 -151.5t140 -402.5q0 -269 -144.5 -406
t-442.5 -137h-1108v250zM1060 1483q0 57 41 104t107 47q67 0 109 -46.5t42 -104.5q0 -55 -42 -101.5t-109 -46.5q-63 0 -105.5 44.5t-42.5 103.5z" />
    <glyph glyph-name="uni14C6" unicode="&#x14c6;" horiz-adv-x="1879" 
d="M921 551q0 -95 9 -168.5t25 -132.5h245q149 0 211.5 75.5t62.5 232.5q0 140 -62.5 219.5t-203.5 79.5q-148 0 -217.5 -79t-69.5 -227zM69 250h642q-28 79 -39 163.5t-11 182.5q0 218 139.5 359.5t404.5 141.5q279 0 419 -151.5t140 -402.5q0 -269 -144.5 -406
t-442.5 -137h-1108v250zM821 1483q0 57 41 104t107 47q67 0 109 -46.5t42 -104.5q0 -55 -42 -101.5t-109 -46.5q-63 0 -105.5 44.5t-42.5 103.5zM1309 1483q0 57 41 104t107 47q67 0 109 -46.5t42 -104.5q0 -55 -42 -101.5t-109 -46.5q-63 0 -105.5 44.5t-42.5 103.5z" />
    <glyph glyph-name="uni14C7" unicode="&#x14c7;" horiz-adv-x="1879" 
d="M958 551q0 148 -69.5 227t-217.5 79q-141 0 -203.5 -79.5t-62.5 -219.5q0 -157 62.5 -232.5t211.5 -75.5h245q16 59 25 132.5t9 168.5zM1810 0h-1108q-298 0 -442.5 134.5t-144.5 408.5q0 251 140 402.5t419 151.5q265 0 404.5 -141.5t139.5 -359.5q0 -103 -11 -185
t-39 -161h642v-250z" />
    <glyph glyph-name="uni14C8" unicode="&#x14c8;" horiz-adv-x="1879" 
d="M958 551q0 148 -69.5 227t-217.5 79q-141 0 -203.5 -79.5t-62.5 -219.5q0 -157 62.5 -232.5t211.5 -75.5h245q16 59 25 132.5t9 168.5zM1810 0h-1108q-298 0 -442.5 134.5t-144.5 408.5q0 251 140 402.5t419 151.5q265 0 404.5 -141.5t139.5 -359.5q0 -103 -11 -185
t-39 -161h642v-250zM520 1484q0 57 41 104t107 47q67 0 109 -46.5t42 -104.5q0 -55 -42 -101.5t-109 -46.5q-63 0 -105.5 44.5t-42.5 103.5z" />
    <glyph glyph-name="uni14C9" unicode="&#x14c9;" horiz-adv-x="2209" 
d="M1251 529q0 -156 69.5 -235t217.5 -79q141 0 203.5 79.5t62.5 227.5q0 157 -62.5 232.5t-211.5 75.5h-245q-16 -59 -25 -132.5t-9 -168.5zM399 1080h1108q298 0 442.5 -137t144.5 -406q0 -259 -140 -410.5t-419 -151.5q-265 0 -404.5 141.5t-139.5 367.5q0 103 11 185
t39 161h-642v250zM46 817q0 57 41 104t107 47q67 0 109 -46.5t42 -104.5q0 -55 -42 -101.5t-109 -46.5q-63 0 -105.5 44.5t-42.5 103.5z" />
    <glyph glyph-name="uni14CA" unicode="&#x14ca;" horiz-adv-x="2213" 
d="M921 529q0 -156 69.5 -235t217.5 -79q141 0 203.5 79.5t62.5 227.5q0 157 -62.5 232.5t-211.5 75.5h-245q-16 -59 -25 -132.5t-9 -168.5zM69 1080h1108q298 0 442.5 -137t144.5 -406q0 -259 -140 -410.5t-419 -151.5q-265 0 -404.5 141.5t-139.5 367.5q0 103 11 185
t39 161h-642v250zM1869 816q0 57 41 104t107 47q67 0 109 -46.5t42 -104.5q0 -55 -42 -101.5t-109 -46.5q-63 0 -105.5 44.5t-42.5 103.5z" />
    <glyph glyph-name="uni14CB" unicode="&#x14cb;" horiz-adv-x="2219" 
d="M1298 551q0 148 -69.5 227t-217.5 79q-141 0 -203.5 -79.5t-62.5 -219.5q0 -157 62.5 -232.5t211.5 -75.5h245q16 59 25 132.5t9 168.5zM2150 0h-1108q-298 0 -442.5 134.5t-144.5 408.5q0 251 140 402.5t419 151.5q265 0 404.5 -141.5t139.5 -359.5q0 -103 -11 -185
t-39 -161h642v-250zM46 817q0 57 41 104t107 47q67 0 109 -46.5t42 -104.5q0 -55 -42 -101.5t-109 -46.5q-63 0 -105.5 44.5t-42.5 103.5z" />
    <glyph glyph-name="uni14CC" unicode="&#x14cc;" horiz-adv-x="1879" 
d="M958 551q0 148 -69.5 227t-217.5 79q-141 0 -203.5 -79.5t-62.5 -219.5q0 -157 62.5 -232.5t211.5 -75.5h245q16 59 25 132.5t9 168.5zM1810 0h-1108q-298 0 -442.5 134.5t-144.5 408.5q0 251 140 402.5t419 151.5q265 0 404.5 -141.5t139.5 -359.5q0 -103 -11 -185
t-39 -161h642v-250zM1441 816q0 57 41 104t107 47q67 0 109 -46.5t42 -104.5q0 -55 -42 -101.5t-109 -46.5q-63 0 -105.5 44.5t-42.5 103.5z" />
    <glyph glyph-name="uni14CD" unicode="&#x14cd;" horiz-adv-x="2219" 
d="M1298 551q0 148 -69.5 227t-217.5 79q-141 0 -203.5 -79.5t-62.5 -219.5q0 -157 62.5 -232.5t211.5 -75.5h245q16 59 25 132.5t9 168.5zM2150 0h-1108q-298 0 -442.5 134.5t-144.5 408.5q0 251 140 402.5t419 151.5q265 0 404.5 -141.5t139.5 -359.5q0 -103 -11 -185
t-39 -161h642v-250zM860 1483q0 57 41 104t107 47q67 0 109 -46.5t42 -104.5q0 -55 -42 -101.5t-109 -46.5q-63 0 -105.5 44.5t-42.5 103.5zM46 817q0 57 41 104t107 47q67 0 109 -46.5t42 -104.5q0 -55 -42 -101.5t-109 -46.5q-63 0 -105.5 44.5t-42.5 103.5z" />
    <glyph glyph-name="uni14CE" unicode="&#x14ce;" horiz-adv-x="1879" 
d="M958 551q0 148 -69.5 227t-217.5 79q-141 0 -203.5 -79.5t-62.5 -219.5q0 -157 62.5 -232.5t211.5 -75.5h245q16 59 25 132.5t9 168.5zM1810 0h-1108q-298 0 -442.5 134.5t-144.5 408.5q0 251 140 402.5t419 151.5q265 0 404.5 -141.5t139.5 -359.5q0 -103 -11 -185
t-39 -161h642v-250zM1441 817q0 57 41 104t107 47q67 0 109 -46.5t42 -104.5q0 -55 -42 -101.5t-109 -46.5q-63 0 -105.5 44.5t-42.5 103.5zM530 1483q0 57 41 104t107 47q67 0 109 -46.5t42 -104.5q0 -55 -42 -101.5t-109 -46.5q-63 0 -105.5 44.5t-42.5 103.5z" />
    <glyph glyph-name="uni14CF" unicode="&#x14cf;" horiz-adv-x="1879" 
d="M958 551q0 148 -69.5 227t-217.5 79q-141 0 -203.5 -79.5t-62.5 -219.5q0 -157 62.5 -232.5t211.5 -75.5h245q16 59 25 132.5t9 168.5zM1810 0h-1108q-298 0 -442.5 134.5t-144.5 408.5q0 251 140 402.5t419 151.5q265 0 404.5 -141.5t139.5 -359.5q0 -103 -11 -185
t-39 -161h642v-250zM285 1484q0 57 41 104t107 47q67 0 109 -46.5t42 -104.5q0 -55 -42 -101.5t-109 -46.5q-63 0 -105.5 44.5t-42.5 103.5zM758 1481q0 57 41 104t107 47q67 0 109 -46.5t42 -104.5q0 -55 -42 -101.5t-109 -46.5q-63 0 -105.5 44.5t-42.5 103.5z" />
    <glyph glyph-name="uni14D0" unicode="&#x14d0;" horiz-adv-x="1252" 
d="M1154 854h-655q-236 0 -323 93t-87 266q0 135 96 251t327 116q225 0 321 -101.5t96 -216.5q0 -60 -13 -104t-38 -94h276v-210zM646 1064q18 24 33.5 58t15.5 97q0 83 -44.5 122t-138.5 39q-86 0 -124.5 -39.5t-38.5 -112.5q0 -90 39.5 -127t119.5 -37h138z" />
    <glyph glyph-name="uni14D1" unicode="&#x14d1;" horiz-adv-x="1142" 
d="M1047 1567v-406q0 -283 -110.5 -388t-370.5 -105q-250 0 -360.5 105t-110.5 384v410h257v-337q0 -202 63 -277t165 -75q108 0 160 81.5t52 311.5v296h255z" />
    <glyph glyph-name="uni14D2" unicode="&#x14d2;" horiz-adv-x="1252" 
d="M89 1064h276q-25 50 -38 94t-13 104q0 115 96 216.5t321 101.5q231 0 327 -116t96 -251q0 -173 -87 -266t-323 -93h-655v210zM735 1064q80 0 119.5 37t39.5 124q0 76 -38.5 115.5t-124.5 39.5q-94 0 -138.5 -39t-44.5 -119q0 -66 15.5 -100t33.5 -58h138z" />
    <glyph glyph-name="uni14D3" unicode="&#x14d3;" 
d="M1071 1080q307 0 454.5 -139t147.5 -412q0 -259 -153 -394t-453 -135h-129v250h158q147 0 217 73t70 214q0 149 -72 221t-225 72h-1017v250h1002z" />
    <glyph glyph-name="uni14D4" unicode="&#x14d4;" 
d="M1719 1080v-250h-1017q-153 0 -225 -72t-72 -221q0 -141 70 -214t217 -73h158v-250h-129q-300 0 -453 135t-153 394q0 273 147.5 412t454.5 139h1002zM464 1617q0 59 22 111t60.5 90.5t89.5 60.5t110 22q58 0 110 -22t90.5 -60.5t61 -90.5t22.5 -111t-22.5 -110t-61 -89
t-90.5 -60t-110 -22q-59 0 -110 22t-89.5 60t-60.5 89t-22 110zM639 1622q0 -30 8.5 -56.5t22.5 -46t33 -30.5t40 -11q24 0 44.5 11t35.5 30.5t23.5 46t8.5 56.5q0 28 -8.5 53t-23.5 43.5t-35.5 29.5t-44.5 11q-21 0 -40 -11t-33 -29.5t-22.5 -43.5t-8.5 -53z" />
    <glyph glyph-name="uni14D5" unicode="&#x14d5;" 
d="M1719 1080v-250h-1017q-153 0 -225 -72t-72 -221q0 -141 70 -214t217 -73h158v-250h-129q-300 0 -453 135t-153 394q0 273 147.5 412t454.5 139h1002z" />
    <glyph glyph-name="uni14D6" unicode="&#x14d6;" 
d="M1719 1080v-250h-1017q-153 0 -225 -72t-72 -221q0 -141 70 -214t217 -73h158v-250h-129q-300 0 -453 135t-153 394q0 273 147.5 412t454.5 139h1002zM525 1484q0 57 41 104t107 47q67 0 109 -46.5t42 -104.5q0 -55 -42 -101.5t-109 -46.5q-63 0 -105.5 44.5t-42.5 103.5
z" />
    <glyph glyph-name="uni14D7" unicode="&#x14d7;" 
d="M69 0v250h1017q153 0 225 72t72 221q0 141 -70 214t-217 73h-158v250h129q300 0 453 -135t153 -394q0 -273 -147.5 -412t-454.5 -139h-1002z" />
    <glyph glyph-name="uni14D8" unicode="&#x14d8;" 
d="M69 0v250h1017q153 0 225 72t72 221q0 141 -70 214t-217 73h-158v250h129q300 0 453 -135t153 -394q0 -273 -147.5 -412t-454.5 -139h-1002zM928 1484q0 57 41 104t107 47q67 0 109 -46.5t42 -104.5q0 -55 -42 -101.5t-109 -46.5q-63 0 -105.5 44.5t-42.5 103.5z" />
    <glyph glyph-name="uni14D9" unicode="&#x14d9;" 
d="M69 0v250h1017q153 0 225 72t72 221q0 141 -70 214t-217 73h-158v250h129q300 0 453 -135t153 -394q0 -273 -147.5 -412t-454.5 -139h-1002zM836 1484q0 57 41 104t107 47q67 0 109 -46.5t42 -104.5q0 -55 -42 -101.5t-109 -46.5q-63 0 -105.5 44.5t-42.5 103.5z
M1372 1486q0 57 41 104t107 47q67 0 109 -46.5t42 -104.5q0 -55 -42 -101.5t-109 -46.5q-63 0 -105.5 44.5t-42.5 103.5z" />
    <glyph glyph-name="uni14DA" unicode="&#x14da;" 
d="M717 0q-307 0 -454.5 139t-147.5 412q0 259 153 394t453 135h129v-250h-158q-147 0 -217 -73t-70 -214q0 -149 72 -221t225 -72h1017v-250h-1002z" />
    <glyph glyph-name="uni14DB" unicode="&#x14db;" 
d="M717 0q-307 0 -454.5 139t-147.5 412q0 259 153 394t453 135h129v-250h-158q-147 0 -217 -73t-70 -214q0 -149 72 -221t225 -72h1017v-250h-1002zM583 1484q0 57 41 104t107 47q67 0 109 -46.5t42 -104.5q0 -55 -42 -101.5t-109 -46.5q-63 0 -105.5 44.5t-42.5 103.5z
" />
    <glyph glyph-name="uni14DC" unicode="&#x14dc;" horiz-adv-x="2123" 
d="M1406 1080q307 0 454.5 -139t147.5 -412q0 -259 -153 -394t-453 -135h-129v250h158q147 0 217 73t70 214q0 149 -72 221t-225 72h-1017v250h1002zM46 817q0 57 41 104t107 47q67 0 109 -46.5t42 -104.5q0 -55 -42 -101.5t-109 -46.5q-63 0 -105.5 44.5t-42.5 103.5z" />
    <glyph glyph-name="uni14DD" unicode="&#x14dd;" horiz-adv-x="2123" 
d="M1071 1080q307 0 454.5 -139t147.5 -412q0 -259 -153 -394t-453 -135h-129v250h158q147 0 217 73t70 214q0 149 -72 221t-225 72h-1017v250h1002zM1779 816q0 57 41 104t107 47q67 0 109 -46.5t42 -104.5q0 -55 -42 -101.5t-109 -46.5q-63 0 -105.5 44.5t-42.5 103.5z
" />
    <glyph glyph-name="uni14DE" unicode="&#x14de;" horiz-adv-x="2106" 
d="M2037 1080v-250h-1017q-153 0 -225 -72t-72 -221q0 -141 70 -214t217 -73h158v-250h-129q-300 0 -453 135t-153 394q0 273 147.5 412t454.5 139h1002zM46 817q0 57 41 104t107 47q67 0 109 -46.5t42 -104.5q0 -55 -42 -101.5t-109 -46.5q-63 0 -105.5 44.5t-42.5 103.5z
" />
    <glyph glyph-name="uni14DF" unicode="&#x14df;" horiz-adv-x="2169" 
d="M1719 1080v-250h-1017q-153 0 -225 -72t-72 -221q0 -141 70 -214t217 -73h158v-250h-129q-300 0 -453 135t-153 394q0 273 147.5 412t454.5 139h1002zM1825 817q0 57 41 104t107 47q67 0 109 -46.5t42 -104.5q0 -55 -42 -101.5t-109 -46.5q-63 0 -105.5 44.5t-42.5 103.5
z" />
    <glyph glyph-name="uni14E0" unicode="&#x14e0;" horiz-adv-x="2106" 
d="M2037 1080v-250h-1017q-153 0 -225 -72t-72 -221q0 -141 70 -214t217 -73h158v-250h-129q-300 0 -453 135t-153 394q0 273 147.5 412t454.5 139h1002zM836 1483q0 57 41 104t107 47q67 0 109 -46.5t42 -104.5q0 -55 -42 -101.5t-109 -46.5q-63 0 -105.5 44.5t-42.5 103.5
zM46 817q0 57 41 104t107 47q67 0 109 -46.5t42 -104.5q0 -55 -42 -101.5t-109 -46.5q-63 0 -105.5 44.5t-42.5 103.5z" />
    <glyph glyph-name="uni14E1" unicode="&#x14e1;" horiz-adv-x="2167" 
d="M1719 1080v-250h-1017q-153 0 -225 -72t-72 -221q0 -141 70 -214t217 -73h158v-250h-129q-300 0 -453 135t-153 394q0 273 147.5 412t454.5 139h1002zM525 1483q0 57 41 104t107 47q67 0 109 -46.5t42 -104.5q0 -55 -42 -101.5t-109 -46.5q-63 0 -105.5 44.5t-42.5 103.5
zM1823 817q0 57 41 104t107 47q67 0 109 -46.5t42 -104.5q0 -55 -42 -101.5t-109 -46.5q-63 0 -105.5 44.5t-42.5 103.5z" />
    <glyph glyph-name="uni14E2" unicode="&#x14e2;" 
d="M69 0v250h1017q153 0 225 72t72 221q0 141 -70 214t-217 73h-158v250h129q300 0 453 -135t153 -394q0 -273 -147.5 -412t-454.5 -139h-1002zM123 815q0 57 41 104t107 47q67 0 109 -46.5t42 -104.5q0 -55 -42 -101.5t-109 -46.5q-63 0 -105.5 44.5t-42.5 103.5z" />
    <glyph glyph-name="uni14E3" unicode="&#x14e3;" horiz-adv-x="2123" 
d="M69 0v250h1017q153 0 225 72t72 221q0 141 -70 214t-217 73h-158v250h129q300 0 453 -135t153 -394q0 -273 -147.5 -412t-454.5 -139h-1002zM1779 817q0 57 41 104t107 47q67 0 109 -46.5t42 -104.5q0 -55 -42 -101.5t-109 -46.5q-63 0 -105.5 44.5t-42.5 103.5z" />
    <glyph glyph-name="uni14E4" unicode="&#x14e4;" 
d="M69 0v250h1017q153 0 225 72t72 221q0 141 -70 214t-217 73h-158v250h129q300 0 453 -135t153 -394q0 -273 -147.5 -412t-454.5 -139h-1002zM123 817q0 57 41 104t107 47q67 0 109 -46.5t42 -104.5q0 -55 -42 -101.5t-109 -46.5q-63 0 -105.5 44.5t-42.5 103.5zM920 1482
q0 57 41 104t107 47q67 0 109 -46.5t42 -104.5q0 -55 -42 -101.5t-109 -46.5q-63 0 -105.5 44.5t-42.5 103.5z" />
    <glyph glyph-name="uni14E5" unicode="&#x14e5;" horiz-adv-x="2122" 
d="M69 0v250h1017q153 0 225 72t72 221q0 141 -70 214t-217 73h-158v250h129q300 0 453 -135t153 -394q0 -273 -147.5 -412t-454.5 -139h-1002zM924 1483q0 57 41 104t107 47q67 0 109 -46.5t42 -104.5q0 -55 -42 -101.5t-109 -46.5q-63 0 -105.5 44.5t-42.5 103.5z
M1778 818q0 57 41 104t107 47q67 0 109 -46.5t42 -104.5q0 -55 -42 -101.5t-109 -46.5q-63 0 -105.5 44.5t-42.5 103.5z" />
    <glyph glyph-name="uni14E6" unicode="&#x14e6;" horiz-adv-x="2143" 
d="M1026 0q-307 0 -454.5 139t-147.5 412q0 259 153 394t453 135h129v-250h-158q-147 0 -217 -73t-70 -214q0 -149 72 -221t225 -72h1017v-250h-1002zM46 817q0 57 41 104t107 47q67 0 109 -46.5t42 -104.5q0 -55 -42 -101.5t-109 -46.5q-63 0 -105.5 44.5t-42.5 103.5z" />
    <glyph glyph-name="uni14E7" unicode="&#x14e7;" horiz-adv-x="1815" 
d="M717 0q-307 0 -454.5 139t-147.5 412q0 259 153 394t453 135h129v-250h-158q-147 0 -217 -73t-70 -214q0 -149 72 -221t225 -72h1017v-250h-1002zM1425 817q0 57 41 104t107 47q67 0 109 -46.5t42 -104.5q0 -55 -42 -101.5t-109 -46.5q-63 0 -105.5 44.5t-42.5 103.5z
" />
    <glyph glyph-name="uni14E8" unicode="&#x14e8;" horiz-adv-x="2112" 
d="M1041 0q-307 0 -454.5 139t-147.5 412q0 259 153 394t453 135h129v-250h-158q-147 0 -217 -73t-70 -214q0 -149 72 -221t225 -72h1017v-250h-1002zM927 1483q0 57 41 104t107 47q67 0 109 -46.5t42 -104.5q0 -55 -42 -101.5t-109 -46.5q-63 0 -105.5 44.5t-42.5 103.5z
M46 817q0 57 41 104t107 47q67 0 109 -46.5t42 -104.5q0 -55 -42 -101.5t-109 -46.5q-63 0 -105.5 44.5t-42.5 103.5z" />
    <glyph glyph-name="uni14E9" unicode="&#x14e9;" horiz-adv-x="1815" 
d="M717 0q-307 0 -454.5 139t-147.5 412q0 259 153 394t453 135h129v-250h-158q-147 0 -217 -73t-70 -214q0 -149 72 -221t225 -72h1017v-250h-1002zM609 1483q0 57 41 104t107 47q67 0 109 -46.5t42 -104.5q0 -55 -42 -101.5t-109 -46.5q-63 0 -105.5 44.5t-42.5 103.5z
M1425 817q0 57 41 104t107 47q67 0 109 -46.5t42 -104.5q0 -55 -42 -101.5t-109 -46.5q-63 0 -105.5 44.5t-42.5 103.5z" />
    <glyph glyph-name="uni14EA" unicode="&#x14ea;" horiz-adv-x="1134" 
d="M432 854q-142 0 -244 81t-102 272t105 275.5t354 84.5h85v-210h-80q-120 0 -162 -32.5t-42 -113.5q0 -76 42.5 -111.5t130.5 -35.5h519v-210h-606z" />
    <glyph glyph-name="uni14EB" unicode="&#x14eb;" horiz-adv-x="913" 
d="M790 1580h42v-196l-441 -80l441 -85v-187l-411 -96l411 -67v-202h-42l-692 154v224l436 78l-436 81v221z" />
    <glyph glyph-name="uni14EC" unicode="&#x14ec;" horiz-adv-x="1369" 
d="M1151 1587h46v-239l-725 -234l725 -223v-214l-729 -240l729 -212v-250h-42l-1055 350v233l666 225l-666 190v273z" />
    <glyph glyph-name="uni14ED" unicode="&#x14ed;" horiz-adv-x="1253" 
d="M399 1567q0 -183 28 -326t98 -244t182.5 -150t335.5 -49h89v-798h-275v548q-146 0 -298.5 72t-249 200t-141 316t-44.5 431h275z" />
    <glyph glyph-name="uni14EE" unicode="&#x14ee;" horiz-adv-x="1215" 
d="M1129 1567q0 -243 -44.5 -431t-141 -316t-249 -200t-298.5 -72v-548h-275v798h89q223 0 335.5 49t182.5 150t98 244t28 326h275zM692 1984q0 59 22 111t60.5 90.5t89.5 60.5t110 22q58 0 110 -22t90.5 -60.5t61 -90.5t22.5 -111t-22.5 -110t-61 -89t-90.5 -60t-110 -22
q-59 0 -110 22t-89.5 60t-60.5 89t-22 110zM867 1989q0 -30 8.5 -56.5t22.5 -46t33 -30.5t40 -11q24 0 44.5 11t35.5 30.5t23.5 46t8.5 56.5q0 28 -8.5 53t-23.5 43.5t-35.5 29.5t-44.5 11q-21 0 -40 -11t-33 -29.5t-22.5 -43.5t-8.5 -53z" />
    <glyph glyph-name="uni14EF" unicode="&#x14ef;" horiz-adv-x="1253" 
d="M1129 1567q0 -243 -44.5 -431t-141 -316t-249 -200t-298.5 -72v-548h-275v798h89q223 0 335.5 49t182.5 150t98 244t28 326h275z" />
    <glyph glyph-name="uni14F0" unicode="&#x14f0;" horiz-adv-x="1217" 
d="M836 1901q0 57 41 104t107 47q67 0 109 -46.5t42 -104.5q0 -55 -42 -101.5t-109 -46.5q-63 0 -105.5 44.5t-42.5 103.5zM1129 1567q0 -243 -44.5 -431t-141 -316t-249 -200t-298.5 -72v-548h-275v798h89q223 0 335.5 49t182.5 150t98 244t28 326h275z" />
    <glyph glyph-name="uni14F1" unicode="&#x14f1;" horiz-adv-x="1253" 
d="M124 0q0 243 44.5 431t141 316t249 200t298.5 72v548h275v-798h-89q-223 0 -335.5 -49t-182.5 -150t-98 -244t-28 -326h-275z" />
    <glyph glyph-name="uni14F2" unicode="&#x14f2;" horiz-adv-x="1228" 
d="M124 0q0 243 44.5 431t141 316t249 200t298.5 72v548h275v-798h-89q-223 0 -335.5 -49t-182.5 -150t-98 -244t-28 -326h-275zM846 1901q0 57 41 104t107 47q67 0 109 -46.5t42 -104.5q0 -55 -42 -101.5t-109 -46.5q-63 0 -105.5 44.5t-42.5 103.5z" />
    <glyph glyph-name="uni14F3" unicode="&#x14f3;" horiz-adv-x="1239" 
d="M124 0q0 243 44.5 431t141 316t249 200t298.5 72v548h275v-798h-89q-223 0 -335.5 -49t-182.5 -150t-98 -244t-28 -326h-275zM857 1901q0 57 41 104t107 47q67 0 109 -46.5t42 -104.5q0 -55 -42 -101.5t-109 -46.5q-63 0 -105.5 44.5t-42.5 103.5zM368 1901q0 57 41 104
t107 47q67 0 109 -46.5t42 -104.5q0 -55 -42 -101.5t-109 -46.5q-63 0 -105.5 44.5t-42.5 103.5z" />
    <glyph glyph-name="uni14F4" unicode="&#x14f4;" horiz-adv-x="1253" 
d="M854 0q0 183 -28 326t-98 244t-182.5 150t-335.5 49h-89v798h275v-548q146 0 298.5 -72t249 -200t141 -316t44.5 -431h-275z" />
    <glyph glyph-name="uni14F5" unicode="&#x14f5;" horiz-adv-x="1218" 
d="M820 0q0 183 -28 326t-98 244t-182.5 150t-335.5 49h-89v798h275v-548q146 0 298.5 -72t249 -200t141 -316t44.5 -431h-275zM82 1901q0 57 41 104t107 47q67 0 109 -46.5t42 -104.5q0 -55 -42 -101.5t-109 -46.5q-63 0 -105.5 44.5t-42.5 103.5z" />
    <glyph glyph-name="uni14F6" unicode="&#x14f6;" horiz-adv-x="1538" 
d="M684 1567q0 -183 28 -326t98 -244t182.5 -150t335.5 -49h89v-798h-275v548q-146 0 -298.5 72t-249 200t-141 316t-44.5 431h275zM46 816q0 57 41 104t107 47q67 0 109 -46.5t42 -104.5q0 -55 -42 -101.5t-109 -46.5q-63 0 -105.5 44.5t-42.5 103.5z" />
    <glyph glyph-name="uni14F7" unicode="&#x14f7;" horiz-adv-x="1585" 
d="M399 1567q0 -183 28 -326t98 -244t182.5 -150t335.5 -49h89v-798h-275v548q-146 0 -298.5 72t-249 200t-141 316t-44.5 431h275zM1241 816q0 57 41 104t107 47q67 0 109 -46.5t42 -104.5q0 -55 -42 -101.5t-109 -46.5q-63 0 -105.5 44.5t-42.5 103.5z" />
    <glyph glyph-name="uni14F8" unicode="&#x14f8;" horiz-adv-x="1575" 
d="M1454 1567q0 -243 -44.5 -431t-141 -316t-249 -200t-298.5 -72v-548h-275v798h89q223 0 335.5 49t182.5 150t98 244t28 326h275zM46 816q0 57 41 104t107 47q67 0 109 -46.5t42 -104.5q0 -55 -42 -101.5t-109 -46.5q-63 0 -105.5 44.5t-42.5 103.5z" />
    <glyph glyph-name="uni14F9" unicode="&#x14f9;" horiz-adv-x="1484" 
d="M1129 1567q0 -243 -44.5 -431t-141 -316t-249 -200t-298.5 -72v-548h-275v798h89q223 0 335.5 49t182.5 150t98 244t28 326h275zM1140 816q0 57 41 104t107 47q67 0 109 -46.5t42 -104.5q0 -55 -42 -101.5t-109 -46.5q-63 0 -105.5 44.5t-42.5 103.5z" />
    <glyph glyph-name="uni14FA" unicode="&#x14fa;" horiz-adv-x="1590" 
d="M1485 1567q0 -243 -44.5 -431t-141 -316t-249 -200t-298.5 -72v-548h-275v798h89q223 0 335.5 49t182.5 150t98 244t28 326h275zM1206 1901q0 57 41 104t107 47q67 0 109 -46.5t42 -104.5q0 -55 -42 -101.5t-109 -46.5q-63 0 -105.5 44.5t-42.5 103.5zM46 655
q0 57 41 104t107 47q67 0 109 -46.5t42 -104.5q0 -55 -42 -101.5t-109 -46.5q-63 0 -105.5 44.5t-42.5 103.5z" />
    <glyph glyph-name="uni14FB" unicode="&#x14fb;" horiz-adv-x="1484" 
d="M1129 1567q0 -243 -44.5 -431t-141 -316t-249 -200t-298.5 -72v-548h-275v798h89q223 0 335.5 49t182.5 150t98 244t28 326h275zM1140 817q0 57 41 104t107 47q67 0 109 -46.5t42 -104.5q0 -55 -42 -101.5t-109 -46.5q-63 0 -105.5 44.5t-42.5 103.5zM852 1901
q0 57 41 104t107 47q67 0 109 -46.5t42 -104.5q0 -55 -42 -101.5t-109 -46.5q-63 0 -105.5 44.5t-42.5 103.5z" />
    <glyph glyph-name="uni14FC" unicode="&#x14fc;" horiz-adv-x="1388" 
d="M100 1095q0 57 41 104t107 47q67 0 109 -46.5t42 -104.5q0 -55 -42 -101.5t-109 -46.5q-63 0 -105.5 44.5t-42.5 103.5zM164 0q0 243 44.5 431t141 316t249 200t298.5 72v548h275v-798h-89q-223 0 -335.5 -49t-182.5 -150t-98 -244t-28 -326h-275z" />
    <glyph glyph-name="uni14FD" unicode="&#x14fd;" horiz-adv-x="1676" 
d="M124 0q0 243 44.5 431t141 316t249 200t298.5 72v548h275v-798h-89q-223 0 -335.5 -49t-182.5 -150t-98 -244t-28 -326h-275zM1332 816q0 57 41 104t107 47q67 0 109 -46.5t42 -104.5q0 -55 -42 -101.5t-109 -46.5q-63 0 -105.5 44.5t-42.5 103.5z" />
    <glyph glyph-name="uni14FE" unicode="&#x14fe;" horiz-adv-x="1356" 
d="M161 0q0 243 44.5 431t141 316t249 200t298.5 72v548h275v-798h-89q-223 0 -335.5 -49t-182.5 -150t-98 -244t-28 -326h-275zM879 1901q0 57 41 104t107 47q67 0 109 -46.5t42 -104.5q0 -55 -42 -101.5t-109 -46.5q-63 0 -105.5 44.5t-42.5 103.5zM100 1095q0 57 41 104
t107 47q67 0 109 -46.5t42 -104.5q0 -55 -42 -101.5t-109 -46.5q-63 0 -105.5 44.5t-42.5 103.5z" />
    <glyph glyph-name="uni14FF" unicode="&#x14ff;" horiz-adv-x="1676" 
d="M124 0q0 243 44.5 431t141 316t249 200t298.5 72v548h275v-798h-89q-223 0 -335.5 -49t-182.5 -150t-98 -244t-28 -326h-275zM847 1901q0 57 41 104t107 47q67 0 109 -46.5t42 -104.5q0 -55 -42 -101.5t-109 -46.5q-63 0 -105.5 44.5t-42.5 103.5zM1332 817q0 57 41 104
t107 47q67 0 109 -46.5t42 -104.5q0 -55 -42 -101.5t-109 -46.5q-63 0 -105.5 44.5t-42.5 103.5z" />
    <glyph glyph-name="uni1500" unicode="&#x1500;" horiz-adv-x="1613" 
d="M1214 0q0 183 -28 326t-98 244t-182.5 150t-335.5 49h-89v798h275v-548q146 0 298.5 -72t249 -200t141 -316t44.5 -431h-275zM46 818q0 57 41 104t107 47q67 0 109 -46.5t42 -104.5q0 -55 -42 -101.5t-109 -46.5q-63 0 -105.5 44.5t-42.5 103.5z" />
    <glyph glyph-name="uni1501" unicode="&#x1501;" horiz-adv-x="1652" 
d="M854 0q0 183 -28 326t-98 244t-182.5 150t-335.5 49h-89v798h275v-548q146 0 298.5 -72t249 -200t141 -316t44.5 -431h-275zM1222 816q0 57 41 104t107 47q67 0 109 -46.5t42 -104.5q0 -55 -42 -101.5t-109 -46.5q-63 0 -105.5 44.5t-42.5 103.5z" />
    <glyph glyph-name="uni1502" unicode="&#x1502;" horiz-adv-x="1683" 
d="M1190 0q0 183 -28 326t-98 244t-182.5 150t-335.5 49h-89v798h275v-548q146 0 298.5 -72t249 -200t141 -316t44.5 -431h-275zM453 1901q0 57 41 104t107 47q67 0 109 -46.5t42 -104.5q0 -55 -42 -101.5t-109 -46.5q-63 0 -105.5 44.5t-42.5 103.5zM46 817q0 57 41 104
t107 47q67 0 109 -46.5t42 -104.5q0 -55 -42 -101.5t-109 -46.5q-63 0 -105.5 44.5t-42.5 103.5z" />
    <glyph glyph-name="uni1503" unicode="&#x1503;" horiz-adv-x="1527" 
d="M816 0q0 183 -28 326t-98 244t-182.5 150t-335.5 49h-89v798h275v-548q146 0 298.5 -72t249 -200t141 -316t44.5 -431h-275zM1183 817q0 57 41 104t107 47q67 0 109 -46.5t42 -104.5q0 -55 -42 -101.5t-109 -46.5q-63 0 -105.5 44.5t-42.5 103.5zM79 1901q0 57 41 104
t107 47q67 0 109 -46.5t42 -104.5q0 -55 -42 -101.5t-109 -46.5q-63 0 -105.5 44.5t-42.5 103.5z" />
    <glyph glyph-name="uni1504" unicode="&#x1504;" horiz-adv-x="1617" 
d="M1218 0q0 183 -28 326t-98 244t-182.5 150t-335.5 49h-89v798h275v-548q146 0 298.5 -72t249 -200t141 -316t44.5 -431h-275zM46 1102q0 57 41 104t107 47q67 0 109 -46.5t42 -104.5q0 -55 -42 -101.5t-109 -46.5q-63 0 -105.5 44.5t-42.5 103.5zM46 549q0 57 41 104
t107 47q67 0 109 -46.5t42 -104.5q0 -55 -42 -101.5t-109 -46.5q-63 0 -105.5 44.5t-42.5 103.5z" />
    <glyph glyph-name="uni1505" unicode="&#x1505;" horiz-adv-x="852" 
d="M522 668q0 121 -11 186t-46.5 118.5t-112.5 82t-204 28.5h-58v484h257v-274q91 -3 184 -45.5t145 -113t77 -175.5t25 -291h-256z" />
    <glyph glyph-name="uni1506" unicode="&#x1506;" horiz-adv-x="837" 
d="M320 1018q-96 0 -178 55.5t-82 203.5q0 158 109 231t253 73q81 0 155.5 -13t148.5 -40v-188q-54 18 -106.5 29.5t-121.5 11.5q-81 0 -129.5 -12t-48.5 -64q0 -56 30 -71.5t133 -15.5h5q158 0 223.5 -66t65.5 -219q0 -150 -108.5 -223t-252.5 -73q-81 0 -155 13t-148 40
v188q54 -18 106 -29.5t129 -11.5q74 0 121 14t48 79q0 51 -46 69.5t-135 18.5h-16z" />
    <glyph glyph-name="uni1507" unicode="&#x1507;" horiz-adv-x="852" 
d="M74 668q0 186 25 291t77 175.5t145 113t184 45.5v274h257v-484h-58q-127 0 -204 -28.5t-112.5 -82t-46.5 -118.5t-11 -186h-256z" />
    <glyph glyph-name="uni1508" unicode="&#x1508;" horiz-adv-x="1020" 
d="M377 1567q-25 -63 -25 -138q0 -77 42.5 -120.5t142.5 -43.5h387v-210h-479q-161 0 -257 83t-96 209q0 162 37 233z" />
    <glyph glyph-name="uni1509" unicode="&#x1509;" horiz-adv-x="854" 
d="M116 884q0 80 73 149t269 69q-61 96 -319 96h-47v369h260v-199q196 0 304 -124.5t108 -292.5q0 -149 -94 -216t-241 -67q-139 0 -226 55t-87 161zM360 900q0 -41 23.5 -53.5t56.5 -12.5q37 0 55 17.5t18 56.5q0 42 -21 69q-77 0 -104.5 -18.5t-27.5 -58.5z" />
    <glyph glyph-name="uni150A" unicode="&#x150a;" horiz-adv-x="854" 
d="M738 884q0 -106 -87 -161t-226 -55q-147 0 -241 67t-94 216q0 168 108 292.5t304 124.5v199h260v-369h-47q-258 0 -319 -96q196 0 269 -69t73 -149zM494 900q0 40 -27.5 58.5t-104.5 18.5q-21 -27 -21 -69q0 -39 18 -56.5t55 -17.5q33 0 56.5 12.5t23.5 53.5z" />
    <glyph glyph-name="uni150B" unicode="&#x150b;" horiz-adv-x="838" 
d="M64 1841q0 55 41 101.5t109 46.5q65 0 106.5 -46t41.5 -102q0 -58 -41.5 -104t-106.5 -46t-107.5 45t-42.5 105zM494 397q0 55 40.5 101t107.5 46q65 0 106.5 -45.5t41.5 -101.5q0 -58 -41.5 -103.5t-106.5 -45.5q-63 0 -105.5 44.5t-42.5 104.5zM522 668q0 121 -11 186
t-46.5 118.5t-112.5 82t-204 28.5h-58v484h257v-274q91 -3 184 -45.5t145 -113t77 -175.5t25 -291h-256z" />
    <glyph glyph-name="uni150C" unicode="&#x150c;" horiz-adv-x="2458" 
d="M64 1841q0 55 41 101.5t109 46.5q65 0 106.5 -46t41.5 -102q0 -58 -41.5 -104t-106.5 -46t-107.5 45t-42.5 105zM494 397q0 55 40.5 101t107.5 46q65 0 106.5 -45.5t41.5 -101.5q0 -58 -41.5 -103.5t-106.5 -45.5q-63 0 -105.5 44.5t-42.5 104.5zM522 668q0 121 -11 186
t-46.5 118.5t-112.5 82t-204 28.5h-58v484h257v-274q91 -3 184 -45.5t145 -113t77 -175.5t25 -291h-256zM2313 1581v-287l-1006 -501v-19l1008 -510v-279h-58l-1363 741v141l1368 714h51z" />
    <glyph glyph-name="uni150D" unicode="&#x150d;" horiz-adv-x="2342" 
d="M64 1841q0 55 41 101.5t109 46.5q65 0 106.5 -46t41.5 -102q0 -58 -41.5 -104t-106.5 -46t-107.5 45t-42.5 105zM494 397q0 55 40.5 101t107.5 46q65 0 106.5 -45.5t41.5 -101.5q0 -58 -41.5 -103.5t-106.5 -45.5q-63 0 -105.5 44.5t-42.5 104.5zM522 668q0 121 -11 186
t-46.5 118.5t-112.5 82t-204 28.5h-58v484h257v-274q91 -3 184 -45.5t145 -113t77 -175.5t25 -291h-256zM2210 1317h-233q-463 0 -602 -132.5t-139 -397.5q0 -289 134 -413t605 -124h235v-250h-260q-574 0 -789 177t-215 630q0 399 208 579.5t794 180.5h262v-250z" />
    <glyph glyph-name="uni150E" unicode="&#x150e;" horiz-adv-x="2164" 
d="M64 1841q0 55 41 101.5t109 46.5q65 0 106.5 -46t41.5 -102q0 -58 -41.5 -104t-106.5 -46t-107.5 45t-42.5 105zM494 397q0 55 40.5 101t107.5 46q65 0 106.5 -45.5t41.5 -101.5q0 -58 -41.5 -103.5t-106.5 -45.5q-63 0 -105.5 44.5t-42.5 104.5zM522 668q0 121 -11 186
t-46.5 118.5t-112.5 82t-204 28.5h-58v484h257v-274q91 -3 184 -45.5t145 -113t77 -175.5t25 -291h-256zM1278 1567v-506q166 36 282 36q199 0 344 -142t145 -451q0 -257 -135.5 -393t-393.5 -136q-242 0 -379.5 132.5t-137.5 427.5v1032h275zM1482 872q-102 0 -204 -21
v-305q0 -209 68.5 -270t176.5 -61t172 65.5t64 219.5q0 180 -64.5 276t-212.5 96z" />
    <glyph glyph-name="uni150F" unicode="&#x150f;" horiz-adv-x="2284" 
d="M64 1841q0 55 41 101.5t109 46.5q65 0 106.5 -46t41.5 -102q0 -58 -41.5 -104t-106.5 -46t-107.5 45t-42.5 105zM494 397q0 55 40.5 101t107.5 46q65 0 106.5 -45.5t41.5 -101.5q0 -58 -41.5 -103.5t-106.5 -45.5q-63 0 -105.5 44.5t-42.5 104.5zM522 668q0 121 -11 186
t-46.5 118.5t-112.5 82t-204 28.5h-58v484h257v-274q91 -3 184 -45.5t145 -113t77 -175.5t25 -291h-256zM1003 1567h275v-968q0 -215 71 -299.5t237 -84.5q155 0 237.5 71t82.5 315v96h275v-135q0 -299 -154.5 -443t-426.5 -144q-322 0 -459.5 159t-137.5 439v994z" />
    <glyph glyph-name="uni1510" unicode="&#x1510;" horiz-adv-x="1997" 
d="M879 1047q0 140 -49 222.5t-180 82.5q-124 0 -180 -92.5t-56 -280.5v-51l-275 -2v68q0 323 144 460.5t379 137.5q263 0 377 -142.5t115 -434.5v-491q0 -109 51 -209t181 -100q122 0 177.5 91.5t55.5 261.5v75h275v-54q0 -332 -133.5 -473t-373.5 -141q-268 0 -388 142.5
t-120 441.5v488z" />
    <glyph glyph-name="uni1511" unicode="&#x1511;" horiz-adv-x="1997" 
d="M1118 559q0 -299 -120 -441.5t-388 -142.5q-240 0 -373.5 141t-133.5 473v54h275v-75q0 -170 55.5 -261.5t177.5 -91.5q130 0 181 100t51 209v491q1 292 115 434.5t377 142.5q235 0 379 -137.5t144 -460.5v-68l-275 2v51q0 188 -56 280.5t-180 92.5q-131 0 -180 -82.5
t-49 -222.5v-488z" />
    <glyph glyph-name="uni1512" unicode="&#x1512;" horiz-adv-x="1997" 
d="M1118 559q0 -299 -120 -441.5t-388 -142.5q-240 0 -373.5 141t-133.5 473v54h275v-75q0 -170 55.5 -261.5t177.5 -91.5q130 0 181 100t51 209v491q1 292 115 434.5t377 142.5q235 0 379 -137.5t144 -460.5v-68l-275 2v51q0 188 -56 280.5t-180 92.5q-131 0 -180 -82.5
t-49 -222.5v-488zM1215 1901q0 57 41 104t107 47q67 0 109 -46.5t42 -104.5q0 -55 -42 -101.5t-109 -46.5q-63 0 -105.5 44.5t-42.5 103.5z" />
    <glyph glyph-name="uni1513" unicode="&#x1513;" horiz-adv-x="1408" 
d="M734 918q181 0 235 46.5t54 179.5q0 92 -74.5 132.5t-245.5 40.5h-471v250h484q322 0 459.5 -125.5t137.5 -330.5q0 -246 -141.5 -344.5t-394.5 -98.5h-114q-166 0 -222 -48t-56 -169q0 -117 91 -159t319 -42h385v-250h-451q-352 0 -493 117t-141 359q0 235 142.5 338.5
t367.5 103.5h129z" />
    <glyph glyph-name="uni1514" unicode="&#x1514;" horiz-adv-x="1408" 
d="M734 918q181 0 235 46.5t54 179.5q0 92 -74.5 132.5t-245.5 40.5h-471v250h484q322 0 459.5 -125.5t137.5 -330.5q0 -246 -141.5 -344.5t-394.5 -98.5h-114q-166 0 -222 -48t-56 -169q0 -117 91 -159t319 -42h385v-250h-451q-352 0 -493 117t-141 359q0 235 142.5 338.5
t367.5 103.5h129zM569 1901q0 57 41 104t107 47q67 0 109 -46.5t42 -104.5q0 -55 -42 -101.5t-109 -46.5q-63 0 -105.5 44.5t-42.5 103.5z" />
    <glyph glyph-name="uni1515" unicode="&#x1515;" horiz-adv-x="1408" 
d="M803 918q225 0 367.5 -103.5t142.5 -338.5q0 -242 -141 -359t-493 -117h-451v250h385q228 0 319 42t91 159q0 121 -56 169t-222 48h-114q-253 0 -394.5 98.5t-141.5 344.5q0 205 137.5 330.5t459.5 125.5h484v-250h-471q-171 0 -245.5 -40.5t-74.5 -132.5
q0 -133 54 -179.5t235 -46.5h129z" />
    <glyph glyph-name="uni1516" unicode="&#x1516;" horiz-adv-x="1408" 
d="M803 918q225 0 367.5 -103.5t142.5 -338.5q0 -242 -141 -359t-493 -117h-451v250h385q228 0 319 42t91 159q0 121 -56 169t-222 48h-114q-253 0 -394.5 98.5t-141.5 344.5q0 205 137.5 330.5t459.5 125.5h484v-250h-471q-171 0 -245.5 -40.5t-74.5 -132.5
q0 -133 54 -179.5t235 -46.5h129zM575 1901q0 57 41 104t107 47q67 0 109 -46.5t42 -104.5q0 -55 -42 -101.5t-109 -46.5q-63 0 -105.5 44.5t-42.5 103.5z" />
    <glyph glyph-name="uni1517" unicode="&#x1517;" horiz-adv-x="2378" 
d="M1260 1047q0 140 -49 222.5t-180 82.5q-124 0 -180 -92.5t-56 -280.5v-51l-275 -2v68q0 323 144 460.5t379 137.5q263 0 377 -142.5t115 -434.5v-491q0 -109 51 -209t181 -100q122 0 177.5 91.5t55.5 261.5v75h275v-54q0 -332 -133.5 -473t-373.5 -141q-268 0 -388 142.5
t-120 441.5v488zM46 817q0 57 41 104t107 47q67 0 109 -46.5t42 -104.5q0 -55 -42 -101.5t-109 -46.5q-63 0 -105.5 44.5t-42.5 103.5z" />
    <glyph glyph-name="uni1518" unicode="&#x1518;" horiz-adv-x="2377" 
d="M879 1047q0 140 -49 222.5t-180 82.5q-124 0 -180 -92.5t-56 -280.5v-51l-275 -2v68q0 323 144 460.5t379 137.5q263 0 377 -142.5t115 -434.5v-491q0 -109 51 -209t181 -100q122 0 177.5 91.5t55.5 261.5v75h275v-54q0 -332 -133.5 -473t-373.5 -141q-268 0 -388 142.5
t-120 441.5v488zM2033 817q0 57 41 104t107 47q67 0 109 -46.5t42 -104.5q0 -55 -42 -101.5t-109 -46.5q-63 0 -105.5 44.5t-42.5 103.5z" />
    <glyph glyph-name="uni1519" unicode="&#x1519;" horiz-adv-x="2378" 
d="M1499 559q0 -299 -120 -441.5t-388 -142.5q-240 0 -373.5 141t-133.5 473v54h275v-75q0 -170 55.5 -261.5t177.5 -91.5q130 0 181 100t51 209v491q1 292 115 434.5t377 142.5q235 0 379 -137.5t144 -460.5v-68l-275 2v51q0 188 -56 280.5t-180 92.5q-131 0 -180 -82.5
t-49 -222.5v-488zM46 817q0 57 41 104t107 47q67 0 109 -46.5t42 -104.5q0 -55 -42 -101.5t-109 -46.5q-63 0 -105.5 44.5t-42.5 103.5z" />
    <glyph glyph-name="uni151A" unicode="&#x151a;" horiz-adv-x="2377" 
d="M1118 559q0 -299 -120 -441.5t-388 -142.5q-240 0 -373.5 141t-133.5 473v54h275v-75q0 -170 55.5 -261.5t177.5 -91.5q130 0 181 100t51 209v491q1 292 115 434.5t377 142.5q235 0 379 -137.5t144 -460.5v-68l-275 2v51q0 188 -56 280.5t-180 92.5q-131 0 -180 -82.5
t-49 -222.5v-488zM2033 817q0 57 41 104t107 47q67 0 109 -46.5t42 -104.5q0 -55 -42 -101.5t-109 -46.5q-63 0 -105.5 44.5t-42.5 103.5z" />
    <glyph glyph-name="uni151B" unicode="&#x151b;" horiz-adv-x="2378" 
d="M1499 559q0 -299 -120 -441.5t-388 -142.5q-240 0 -373.5 141t-133.5 473v54h275v-75q0 -170 55.5 -261.5t177.5 -91.5q130 0 181 100t51 209v491q1 292 115 434.5t377 142.5q235 0 379 -137.5t144 -460.5v-68l-275 2v51q0 188 -56 280.5t-180 92.5q-131 0 -180 -82.5
t-49 -222.5v-488zM46 817q0 57 41 104t107 47q67 0 109 -46.5t42 -104.5q0 -55 -42 -101.5t-109 -46.5q-63 0 -105.5 44.5t-42.5 103.5zM1591 1901q0 57 41 104t107 47q67 0 109 -46.5t42 -104.5q0 -55 -42 -101.5t-109 -46.5q-63 0 -105.5 44.5t-42.5 103.5z" />
    <glyph glyph-name="uni151C" unicode="&#x151c;" horiz-adv-x="2377" 
d="M1118 559q0 -299 -120 -441.5t-388 -142.5q-240 0 -373.5 141t-133.5 473v54h275v-75q0 -170 55.5 -261.5t177.5 -91.5q130 0 181 100t51 209v491q1 292 115 434.5t377 142.5q235 0 379 -137.5t144 -460.5v-68l-275 2v51q0 188 -56 280.5t-180 92.5q-131 0 -180 -82.5
t-49 -222.5v-488zM2033 817q0 57 41 104t107 47q67 0 109 -46.5t42 -104.5q0 -55 -42 -101.5t-109 -46.5q-63 0 -105.5 44.5t-42.5 103.5zM1203 1901q0 57 41 104t107 47q67 0 109 -46.5t42 -104.5q0 -55 -42 -101.5t-109 -46.5q-63 0 -105.5 44.5t-42.5 103.5z" />
    <glyph glyph-name="uni151D" unicode="&#x151d;" horiz-adv-x="1743" 
d="M1069 918q181 0 235 46.5t54 179.5q0 92 -74.5 132.5t-245.5 40.5h-471v250h484q322 0 459.5 -125.5t137.5 -330.5q0 -246 -141.5 -344.5t-394.5 -98.5h-114q-166 0 -222 -48t-56 -169q0 -117 91 -159t319 -42h385v-250h-451q-352 0 -493 117t-141 359q0 235 142.5 338.5
t367.5 103.5h129zM46 817q0 57 41 104t107 47q67 0 109 -46.5t42 -104.5q0 -55 -42 -101.5t-109 -46.5q-63 0 -105.5 44.5t-42.5 103.5z" />
    <glyph glyph-name="uni151E" unicode="&#x151e;" horiz-adv-x="1722" 
d="M734 918q181 0 235 46.5t54 179.5q0 92 -74.5 132.5t-245.5 40.5h-471v250h484q322 0 459.5 -125.5t137.5 -330.5q0 -246 -141.5 -344.5t-394.5 -98.5h-114q-166 0 -222 -48t-56 -169q0 -117 91 -159t319 -42h385v-250h-451q-352 0 -493 117t-141 359q0 235 142.5 338.5
t367.5 103.5h129zM1378 817q0 57 41 104t107 47q67 0 109 -46.5t42 -104.5q0 -55 -42 -101.5t-109 -46.5q-63 0 -105.5 44.5t-42.5 103.5z" />
    <glyph glyph-name="uni151F" unicode="&#x151f;" horiz-adv-x="1743" 
d="M1069 918q181 0 235 46.5t54 179.5q0 92 -74.5 132.5t-245.5 40.5h-471v250h484q322 0 459.5 -125.5t137.5 -330.5q0 -246 -141.5 -344.5t-394.5 -98.5h-114q-166 0 -222 -48t-56 -169q0 -117 91 -159t319 -42h385v-250h-451q-352 0 -493 117t-141 359q0 235 142.5 338.5
t367.5 103.5h129zM46 817q0 57 41 104t107 47q67 0 109 -46.5t42 -104.5q0 -55 -42 -101.5t-109 -46.5q-63 0 -105.5 44.5t-42.5 103.5zM903 1901q0 57 41 104t107 47q67 0 109 -46.5t42 -104.5q0 -55 -42 -101.5t-109 -46.5q-63 0 -105.5 44.5t-42.5 103.5z" />
    <glyph glyph-name="uni1520" unicode="&#x1520;" horiz-adv-x="1722" 
d="M734 918q181 0 235 46.5t54 179.5q0 92 -74.5 132.5t-245.5 40.5h-471v250h484q322 0 459.5 -125.5t137.5 -330.5q0 -246 -141.5 -344.5t-394.5 -98.5h-114q-166 0 -222 -48t-56 -169q0 -117 91 -159t319 -42h385v-250h-451q-352 0 -493 117t-141 359q0 235 142.5 338.5
t367.5 103.5h129zM1378 817q0 57 41 104t107 47q67 0 109 -46.5t42 -104.5q0 -55 -42 -101.5t-109 -46.5q-63 0 -105.5 44.5t-42.5 103.5zM565 1901q0 57 41 104t107 47q67 0 109 -46.5t42 -104.5q0 -55 -42 -101.5t-109 -46.5q-63 0 -105.5 44.5t-42.5 103.5z" />
    <glyph glyph-name="uni1521" unicode="&#x1521;" horiz-adv-x="1743" 
d="M1138 918q225 0 367.5 -103.5t142.5 -338.5q0 -242 -141 -359t-493 -117h-451v250h385q228 0 319 42t91 159q0 121 -56 169t-222 48h-114q-253 0 -394.5 98.5t-141.5 344.5q0 205 137.5 330.5t459.5 125.5h484v-250h-471q-171 0 -245.5 -40.5t-74.5 -132.5
q0 -133 54 -179.5t235 -46.5h129zM46 817q0 57 41 104t107 47q67 0 109 -46.5t42 -104.5q0 -55 -42 -101.5t-109 -46.5q-63 0 -105.5 44.5t-42.5 103.5z" />
    <glyph glyph-name="uni1522" unicode="&#x1522;" horiz-adv-x="1722" 
d="M803 918q225 0 367.5 -103.5t142.5 -338.5q0 -242 -141 -359t-493 -117h-451v250h385q228 0 319 42t91 159q0 121 -56 169t-222 48h-114q-253 0 -394.5 98.5t-141.5 344.5q0 205 137.5 330.5t459.5 125.5h484v-250h-471q-171 0 -245.5 -40.5t-74.5 -132.5
q0 -133 54 -179.5t235 -46.5h129zM1378 817q0 57 41 104t107 47q67 0 109 -46.5t42 -104.5q0 -55 -42 -101.5t-109 -46.5q-63 0 -105.5 44.5t-42.5 103.5z" />
    <glyph glyph-name="uni1523" unicode="&#x1523;" horiz-adv-x="1743" 
d="M1138 918q225 0 367.5 -103.5t142.5 -338.5q0 -242 -141 -359t-493 -117h-451v250h385q228 0 319 42t91 159q0 121 -56 169t-222 48h-114q-253 0 -394.5 98.5t-141.5 344.5q0 205 137.5 330.5t459.5 125.5h484v-250h-471q-171 0 -245.5 -40.5t-74.5 -132.5
q0 -133 54 -179.5t235 -46.5h129zM46 817q0 57 41 104t107 47q67 0 109 -46.5t42 -104.5q0 -55 -42 -101.5t-109 -46.5q-63 0 -105.5 44.5t-42.5 103.5zM868 1901q0 57 41 104t107 47q67 0 109 -46.5t42 -104.5q0 -55 -42 -101.5t-109 -46.5q-63 0 -105.5 44.5t-42.5 103.5z
" />
    <glyph glyph-name="uni1524" unicode="&#x1524;" horiz-adv-x="1722" 
d="M803 918q225 0 367.5 -103.5t142.5 -338.5q0 -242 -141 -359t-493 -117h-451v250h385q228 0 319 42t91 159q0 121 -56 169t-222 48h-114q-253 0 -394.5 98.5t-141.5 344.5q0 205 137.5 330.5t459.5 125.5h484v-250h-471q-171 0 -245.5 -40.5t-74.5 -132.5
q0 -133 54 -179.5t235 -46.5h129zM1378 817q0 57 41 104t107 47q67 0 109 -46.5t42 -104.5q0 -55 -42 -101.5t-109 -46.5q-63 0 -105.5 44.5t-42.5 103.5zM553 1901q0 57 41 104t107 47q67 0 109 -46.5t42 -104.5q0 -55 -42 -101.5t-109 -46.5q-63 0 -105.5 44.5
t-42.5 103.5z" />
    <glyph glyph-name="uni1525" unicode="&#x1525;" horiz-adv-x="1290" 
d="M775 1128q0 -132 -80.5 -205t-262.5 -73q-194 0 -283 108.5t-89 252.5q0 81 14 155t43 148h230q-18 -59 -27.5 -116t-9.5 -116q0 -89 21.5 -155.5t84.5 -66.5q61 0 85 41t24 132v52q0 132 75.5 206.5t259.5 75.5q191 0 280.5 -108.5t89.5 -251.5q0 -81 -14 -155t-43 -148
h-230q18 59 27.5 116t9.5 116q0 88 -27 154t-85 67q-63 0 -78 -47.5t-15 -144.5v-37z" />
    <glyph glyph-name="uni1526" unicode="&#x1526;" horiz-adv-x="1254" 
d="M1139 748v-748h-275v499h-795v148l867 955l203 -160l-666 -694h666z" />
    <glyph glyph-name="uni1527" unicode="&#x1527;" horiz-adv-x="1286" 
d="M813 748l-666 694l203 160l867 -955v-148h-795v-499h-275v748h666zM58 1985q0 59 22 111t60.5 90.5t89.5 60.5t110 22q58 0 110 -22t90.5 -60.5t61 -90.5t22.5 -111t-22.5 -110t-61 -89t-90.5 -60t-110 -22q-59 0 -110 22t-89.5 60t-60.5 89t-22 110zM233 1990
q0 -30 8.5 -56.5t22.5 -46t33 -30.5t40 -11q24 0 44.5 11t35.5 30.5t23.5 46t8.5 56.5q0 28 -8.5 53t-23.5 43.5t-35.5 29.5t-44.5 11q-21 0 -40 -11t-33 -29.5t-22.5 -43.5t-8.5 -53z" />
    <glyph glyph-name="uni1528" unicode="&#x1528;" horiz-adv-x="1254" 
d="M781 748l-666 694l203 160l867 -955v-148h-795v-499h-275v748h666z" />
    <glyph glyph-name="uni1529" unicode="&#x1529;" horiz-adv-x="1254" 
d="M781 748l-666 694l203 160l867 -955v-148h-795v-499h-275v748h666zM156 1902q0 57 41 104t107 47q67 0 109 -46.5t42 -104.5q0 -55 -42 -101.5t-109 -46.5q-63 0 -105.5 44.5t-42.5 103.5z" />
    <glyph glyph-name="uni152A" unicode="&#x152a;" horiz-adv-x="1254" 
d="M473 769l666 -634l-203 -160l-867 895v148h795v549h275v-798h-666z" />
    <glyph glyph-name="uni152B" unicode="&#x152b;" horiz-adv-x="1218" 
d="M473 769l666 -634l-203 -160l-867 895v148h795v549h275v-798h-666zM843 1901q0 57 41 104t107 47q67 0 109 -46.5t42 -104.5q0 -55 -42 -101.5t-109 -46.5q-63 0 -105.5 44.5t-42.5 103.5z" />
    <glyph glyph-name="uni152C" unicode="&#x152c;" horiz-adv-x="1288" 
d="M473 769l666 -634l-203 -160l-867 895v148h795v549h275v-798h-666zM913 1901q0 57 41 104t107 47q67 0 109 -46.5t42 -104.5q0 -55 -42 -101.5t-109 -46.5q-63 0 -105.5 44.5t-42.5 103.5zM416 1901q0 57 41 104t107 47q67 0 109 -46.5t42 -104.5q0 -55 -42 -101.5
t-109 -46.5q-63 0 -105.5 44.5t-42.5 103.5z" />
    <glyph glyph-name="uni152D" unicode="&#x152d;" horiz-adv-x="1254" 
d="M115 769v798h275v-549h795v-148l-867 -895l-203 160l666 634h-666z" />
    <glyph glyph-name="uni152E" unicode="&#x152e;" horiz-adv-x="1212" 
d="M74 769v798h275v-549h795v-148l-867 -895l-203 160l666 634h-666zM74 1901q0 57 41 104t107 47q67 0 109 -46.5t42 -104.5q0 -55 -42 -101.5t-109 -46.5q-63 0 -105.5 44.5t-42.5 103.5z" />
    <glyph glyph-name="uni152F" unicode="&#x152f;" horiz-adv-x="1519" 
d="M1404 748v-748h-275v499h-795v148l867 955l203 -160l-666 -694h666zM46 817q0 57 41 104t107 47q67 0 109 -46.5t42 -104.5q0 -55 -42 -101.5t-109 -46.5q-63 0 -105.5 44.5t-42.5 103.5z" />
    <glyph glyph-name="uni1530" unicode="&#x1530;" horiz-adv-x="1588" 
d="M1139 748v-748h-275v499h-795v148l867 955l203 -160l-666 -694h666zM1244 817q0 57 41 104t107 47q67 0 109 -46.5t42 -104.5q0 -55 -42 -101.5t-109 -46.5q-63 0 -105.5 44.5t-42.5 103.5z" />
    <glyph glyph-name="uni1531" unicode="&#x1531;" horiz-adv-x="1589" 
d="M1116 748l-666 694l203 160l867 -955v-148h-795v-499h-275v748h666zM46 817q0 57 41 104t107 47q67 0 109 -46.5t42 -104.5q0 -55 -42 -101.5t-109 -46.5q-63 0 -105.5 44.5t-42.5 103.5z" />
    <glyph glyph-name="uni1532" unicode="&#x1532;" horiz-adv-x="1528" 
d="M781 748l-666 694l203 160l867 -955v-148h-795v-499h-275v748h666zM1184 817q0 57 41 104t107 47q67 0 109 -46.5t42 -104.5q0 -55 -42 -101.5t-109 -46.5q-63 0 -105.5 44.5t-42.5 103.5z" />
    <glyph glyph-name="uni1533" unicode="&#x1533;" horiz-adv-x="1589" 
d="M1116 748l-666 694l203 160l867 -955v-148h-795v-499h-275v748h666zM46 817q0 57 41 104t107 47q67 0 109 -46.5t42 -104.5q0 -55 -42 -101.5t-109 -46.5q-63 0 -105.5 44.5t-42.5 103.5zM508 1901q0 57 41 104t107 47q67 0 109 -46.5t42 -104.5q0 -55 -42 -101.5
t-109 -46.5q-63 0 -105.5 44.5t-42.5 103.5z" />
    <glyph glyph-name="uni1534" unicode="&#x1534;" horiz-adv-x="1528" 
d="M781 748l-666 694l203 160l867 -955v-148h-795v-499h-275v748h666zM1184 817q0 57 41 104t107 47q67 0 109 -46.5t42 -104.5q0 -55 -42 -101.5t-109 -46.5q-63 0 -105.5 44.5t-42.5 103.5zM176 1901q0 57 41 104t107 47q67 0 109 -46.5t42 -104.5q0 -55 -42 -101.5
t-109 -46.5q-63 0 -105.5 44.5t-42.5 103.5z" />
    <glyph glyph-name="uni1535" unicode="&#x1535;" horiz-adv-x="1579" 
d="M798 769l666 -634l-203 -160l-867 895v148h795v549h275v-798h-666zM46 817q0 57 41 104t107 47q67 0 109 -46.5t42 -104.5q0 -55 -42 -101.5t-109 -46.5q-63 0 -105.5 44.5t-42.5 103.5z" />
    <glyph glyph-name="uni1536" unicode="&#x1536;" horiz-adv-x="1588" 
d="M473 769l666 -634l-203 -160l-867 895v148h795v549h275v-798h-666zM1244 817q0 57 41 104t107 47q67 0 109 -46.5t42 -104.5q0 -55 -42 -101.5t-109 -46.5q-63 0 -105.5 44.5t-42.5 103.5z" />
    <glyph glyph-name="uni1537" unicode="&#x1537;" horiz-adv-x="1557" 
d="M798 769l666 -634l-203 -160l-867 895v148h795v549h275v-798h-666zM1184 1901q0 57 41 104t107 47q67 0 109 -46.5t42 -104.5q0 -55 -42 -101.5t-109 -46.5q-63 0 -105.5 44.5t-42.5 103.5zM46 817q0 57 41 104t107 47q67 0 109 -46.5t42 -104.5q0 -55 -42 -101.5
t-109 -46.5q-63 0 -105.5 44.5t-42.5 103.5z" />
    <glyph glyph-name="uni1538" unicode="&#x1538;" horiz-adv-x="1588" 
d="M473 769l666 -634l-203 -160l-867 895v148h795v549h275v-798h-666zM1244 817q0 57 41 104t107 47q67 0 109 -46.5t42 -104.5q0 -55 -42 -101.5t-109 -46.5q-63 0 -105.5 44.5t-42.5 103.5zM850 1901q0 57 41 104t107 47q67 0 109 -46.5t42 -104.5q0 -55 -42 -101.5
t-109 -46.5q-63 0 -105.5 44.5t-42.5 103.5z" />
    <glyph glyph-name="uni1539" unicode="&#x1539;" horiz-adv-x="1589" 
d="M450 769v798h275v-549h795v-148l-867 -895l-203 160l666 634h-666zM46 817q0 57 41 104t107 47q67 0 109 -46.5t42 -104.5q0 -55 -42 -101.5t-109 -46.5q-63 0 -105.5 44.5t-42.5 103.5z" />
    <glyph glyph-name="uni153A" unicode="&#x153a;" horiz-adv-x="1588" 
d="M115 769v798h275v-549h795v-148l-867 -895l-203 160l666 634h-666zM1244 816q0 57 41 104t107 47q67 0 109 -46.5t42 -104.5q0 -55 -42 -101.5t-109 -46.5q-63 0 -105.5 44.5t-42.5 103.5z" />
    <glyph glyph-name="uni153B" unicode="&#x153b;" horiz-adv-x="1589" 
d="M450 769v798h275v-549h795v-148l-867 -895l-203 160l666 634h-666zM46 817q0 57 41 104t107 47q67 0 109 -46.5t42 -104.5q0 -55 -42 -101.5t-109 -46.5q-63 0 -105.5 44.5t-42.5 103.5zM433 1901q0 57 41 104t107 47q67 0 109 -46.5t42 -104.5q0 -55 -42 -101.5
t-109 -46.5q-63 0 -105.5 44.5t-42.5 103.5z" />
    <glyph glyph-name="uni153C" unicode="&#x153c;" horiz-adv-x="1549" 
d="M77 769v798h275v-549h795v-148l-867 -895l-203 160l666 634h-666zM75 1901q0 57 41 104t107 47q67 0 109 -46.5t42 -104.5q0 -55 -42 -101.5t-109 -46.5q-63 0 -105.5 44.5t-42.5 103.5zM1205 817q0 57 41 104t107 47q67 0 109 -46.5t42 -104.5q0 -55 -42 -101.5
t-109 -46.5q-63 0 -105.5 44.5t-42.5 103.5z" />
    <glyph glyph-name="uni153D" unicode="&#x153d;" horiz-adv-x="1589" 
d="M450 769v798h275v-549h795v-148l-867 -895l-203 160l666 634h-666zM46 549q0 57 41 104t107 47q67 0 109 -46.5t42 -104.5q0 -55 -42 -101.5t-109 -46.5q-63 0 -105.5 44.5t-42.5 103.5zM46 1100q0 57 41 104t107 47q67 0 109 -46.5t42 -104.5q0 -55 -42 -101.5
t-109 -46.5q-63 0 -105.5 44.5t-42.5 103.5z" />
    <glyph glyph-name="uni153E" unicode="&#x153e;" horiz-adv-x="760" 
d="M73 1093v474h257v-292h381v-170l-466 -437l-172 138l353 287h-353z" />
    <glyph glyph-name="uni153F" unicode="&#x153f;" horiz-adv-x="1015" 
d="M1000 721v-52h-211l-87 540l-91 -540h-202l-104 503l-72 -503h-218v52l166 846h242l84 -533l87 533h239z" />
    <glyph glyph-name="uni1540" unicode="&#x1540;" horiz-adv-x="831" 
d="M50 838h237v242h257v-242h237v-200h-237v-240h-257v240h-237v200z" />
    <glyph glyph-name="uni1541" unicode="&#x1541;" horiz-adv-x="892" 
d="M25 397l281 351l-244 332h269l122 -191l113 191h269l-237 -328l269 -355h-281l-147 217l-133 -217h-281z" />
    <glyph glyph-name="uni1542" unicode="&#x1542;" horiz-adv-x="1928" 
d="M424 1080v-212q0 -340 81 -496.5t265 -156.5q174 0 268.5 155t94.5 467v243h692v-250h-417v-112q0 -283 -147 -513t-491 -230q-328 0 -474.5 204t-146.5 636v265h275z" />
    <glyph glyph-name="uni1543" unicode="&#x1543;" horiz-adv-x="1928" 
d="M1779 1080v-265q0 -432 -146.5 -636t-474.5 -204q-344 0 -491 230t-147 513v112h-417v250h692v-243q0 -312 94.5 -467t268.5 -155q184 0 265 156.5t81 496.5v212h275z" />
    <glyph glyph-name="uni1544" unicode="&#x1544;" horiz-adv-x="1928" 
d="M1504 0v212q0 332 -81 488.5t-265 156.5q-174 0 -268.5 -155t-94.5 -459v-243h-692v250h417v112q0 275 147 505t491 230q328 0 474.5 -204t146.5 -628v-265h-275z" />
    <glyph glyph-name="uni1545" unicode="&#x1545;" horiz-adv-x="1928" 
d="M149 0v265q0 424 146.5 628t474.5 204q344 0 491 -230t147 -505v-112h417v-250h-692v243q0 304 -94.5 459t-268.5 155q-184 0 -265 -156.5t-81 -488.5v-212h-275zM495 1615q0 59 22 111t60.5 90.5t89.5 60.5t110 22q58 0 110 -22t90.5 -60.5t61 -90.5t22.5 -111
t-22.5 -110t-61 -89t-90.5 -60t-110 -22q-59 0 -110 22t-89.5 60t-60.5 89t-22 110zM670 1620q0 -30 8.5 -56.5t22.5 -46t33 -30.5t40 -11q24 0 44.5 11t35.5 30.5t23.5 46t8.5 56.5q0 28 -8.5 53t-23.5 43.5t-35.5 29.5t-44.5 11q-21 0 -40 -11t-33 -29.5t-22.5 -43.5
t-8.5 -53z" />
    <glyph glyph-name="uni1546" unicode="&#x1546;" horiz-adv-x="1928" 
d="M149 0v265q0 424 146.5 628t474.5 204q344 0 491 -230t147 -505v-112h417v-250h-692v243q0 304 -94.5 459t-268.5 155q-184 0 -265 -156.5t-81 -488.5v-212h-275z" />
    <glyph glyph-name="uni1547" unicode="&#x1547;" horiz-adv-x="1928" 
d="M149 0v265q0 424 146.5 628t474.5 204q344 0 491 -230t147 -505v-112h417v-250h-692v243q0 304 -94.5 459t-268.5 155q-184 0 -265 -156.5t-81 -488.5v-212h-275zM627 1484q0 57 41 104t107 47q67 0 109 -46.5t42 -104.5q0 -55 -42 -101.5t-109 -46.5q-63 0 -105.5 44.5
t-42.5 103.5z" />
    <glyph glyph-name="uni1548" unicode="&#x1548;" horiz-adv-x="1339" 
d="M149 1567h342q420 0 582.5 -139.5t162.5 -359.5q0 -251 -212 -385.5t-541 -134.5h-59v-548h-275v798h241q287 0 421.5 56t134.5 214q0 133 -110.5 191t-334.5 58h-352v250z" />
    <glyph glyph-name="uni1549" unicode="&#x1549;" horiz-adv-x="1339" 
d="M149 1567h342q420 0 582.5 -139.5t162.5 -359.5q0 -251 -212 -385.5t-541 -134.5h-59v-548h-275v798h241q287 0 421.5 56t134.5 214q0 133 -110.5 191t-334.5 58h-352v250zM385 1901q0 57 41 104t107 47q67 0 109 -46.5t42 -104.5q0 -55 -42 -101.5t-109 -46.5
q-63 0 -105.5 44.5t-42.5 103.5z" />
    <glyph glyph-name="uni154A" unicode="&#x154a;" horiz-adv-x="1339" 
d="M149 250h352q224 0 334.5 58t110.5 191q0 158 -134.5 214t-421.5 56h-241v798h275v-548h59q329 0 541 -134.5t212 -385.5q0 -220 -162.5 -359.5t-582.5 -139.5h-342v250z" />
    <glyph glyph-name="uni154B" unicode="&#x154b;" horiz-adv-x="1339" 
d="M1190 1317h-352q-224 0 -334.5 -58t-110.5 -191q0 -158 134.5 -214t421.5 -56h241v-798h-275v548h-59q-329 0 -541 134.5t-212 385.5q0 220 162.5 359.5t582.5 139.5h342v-250z" />
    <glyph glyph-name="uni154C" unicode="&#x154c;" horiz-adv-x="1339" 
d="M1190 1317h-352q-224 0 -334.5 -58t-110.5 -191q0 -158 134.5 -214t421.5 -56h241v-798h-275v548h-59q-329 0 -541 134.5t-212 385.5q0 220 162.5 359.5t582.5 139.5h342v-250zM617 1901q0 57 41 104t107 47q67 0 109 -46.5t42 -104.5q0 -55 -42 -101.5t-109 -46.5
q-63 0 -105.5 44.5t-42.5 103.5z" />
    <glyph glyph-name="uni154D" unicode="&#x154d;" horiz-adv-x="1339" 
d="M1190 0h-342q-420 0 -582.5 139.5t-162.5 359.5q0 251 212 385.5t541 134.5h59v548h275v-798h-241q-287 0 -421.5 -56t-134.5 -214q0 -133 110.5 -191t334.5 -58h352v-250z" />
    <glyph glyph-name="uni154E" unicode="&#x154e;" horiz-adv-x="1669" 
d="M1520 1317h-352q-224 0 -334.5 -58t-110.5 -191q0 -158 134.5 -214t421.5 -56h241v-798h-275v548h-59q-329 0 -541 134.5t-212 385.5q0 220 162.5 359.5t582.5 139.5h342v-250zM937 1900q0 57 41 104t107 47q67 0 109 -46.5t42 -104.5q0 -55 -42 -101.5t-109 -46.5
q-63 0 -105.5 44.5t-42.5 103.5zM46 780q0 57 41 104t107 47q67 0 109 -46.5t42 -104.5q0 -55 -42 -101.5t-109 -46.5q-63 0 -105.5 44.5t-42.5 103.5z" />
    <glyph glyph-name="uni154F" unicode="&#x154f;" horiz-adv-x="1655" 
d="M1190 1317h-352q-224 0 -334.5 -58t-110.5 -191q0 -158 134.5 -214t421.5 -56h241v-798h-275v548h-59q-329 0 -541 134.5t-212 385.5q0 220 162.5 359.5t582.5 139.5h342v-250zM607 1900q0 57 41 104t107 47q67 0 109 -46.5t42 -104.5q0 -55 -42 -101.5t-109 -46.5
q-63 0 -105.5 44.5t-42.5 103.5zM1311 780q0 57 41 104t107 47q67 0 109 -46.5t42 -104.5q0 -55 -42 -101.5t-109 -46.5q-63 0 -105.5 44.5t-42.5 103.5z" />
    <glyph glyph-name="uni1550" unicode="&#x1550;" horiz-adv-x="826" 
d="M713 1367h-188q-124 0 -155.5 -28.5t-31.5 -78.5t35.5 -79.5t169.5 -29.5h177v-483h-257v283h-46q-157 0 -248 77.5t-91 232.5q0 154 91 230t293 76h251v-200z" />
    <glyph glyph-name="uni1551" unicode="&#x1551;" horiz-adv-x="913" 
d="M123.048 1580h-41.9971v-196l440.973 -80l-440.973 -85v-187l410.975 -96l-410.975 -67v-202h41.9971l691.958 154v224l-435.974 78l435.974 81v221z" />
    <glyph glyph-name="uni1552" unicode="&#x1552;" horiz-adv-x="1369" 
d="M218.07 1587h-45.9971v-239l724.956 -234l-724.956 -223v-214l728.955 -240l-728.955 -212v-250h41.9971l1054.94 350v233l-665.959 225l665.959 190v273z" />
    <glyph glyph-name="uni1553" unicode="&#x1553;" horiz-adv-x="1860" 
d="M383 1178q0 -73 18 -140t46 -134q115 0 213.5 64t98.5 208q0 80 -48 139.5t-133 59.5q-94 0 -144.5 -62.5t-50.5 -134.5zM695 -15l-416 658q-73 117 -124.5 263t-51.5 268q0 200 123.5 309t338.5 109q250 0 363 -121t113 -299q0 -199 -134 -314.5t-391 -115.5
q15 -33 39 -73l257 -419h25l633 1317h341v-63l-873 -1519h-243z" />
    <glyph glyph-name="uni1554" unicode="&#x1554;" horiz-adv-x="1860" 
d="M383 389q0 -72 50.5 -134.5t144.5 -62.5q85 0 133 59.5t48 139.5q0 144 -98.5 208t-213.5 64q-28 -67 -46 -134t-18 -140zM938 1587l873 -1524v-63h-341l-643 1322h-25l-247 -424q-24 -40 -39 -73q257 0 391 -115.5t134 -314.5q0 -178 -113 -299t-363 -121
q-215 0 -338.5 109t-123.5 309q0 122 51.5 268t124.5 263l416 663h243zM553 1984q0 59 22 111t60.5 90.5t89.5 60.5t110 22q58 0 110 -22t90.5 -60.5t61 -90.5t22.5 -111t-22.5 -110t-61 -89t-90.5 -60t-110 -22q-59 0 -110 22t-89.5 60t-60.5 89t-22 110zM728 1989
q0 -30 8.5 -56.5t22.5 -46t33 -30.5t40 -11q24 0 44.5 11t35.5 30.5t23.5 46t8.5 56.5q0 28 -8.5 53t-23.5 43.5t-35.5 29.5t-44.5 11q-21 0 -40 -11t-33 -29.5t-22.5 -43.5t-8.5 -53z" />
    <glyph glyph-name="uni1555" unicode="&#x1555;" horiz-adv-x="1860" 
d="M383 389q0 -72 50.5 -134.5t144.5 -62.5q85 0 133 59.5t48 139.5q0 144 -98.5 208t-213.5 64q-28 -67 -46 -134t-18 -140zM938 1587l873 -1524v-63h-341l-643 1322h-25l-247 -424q-24 -40 -39 -73q257 0 391 -115.5t134 -314.5q0 -178 -113 -299t-363 -121
q-215 0 -338.5 109t-123.5 309q0 122 51.5 268t124.5 263l416 663h243z" />
    <glyph glyph-name="uni1556" unicode="&#x1556;" horiz-adv-x="1860" 
d="M383 389q0 -72 50.5 -134.5t144.5 -62.5q85 0 133 59.5t48 139.5q0 144 -98.5 208t-213.5 64q-28 -67 -46 -134t-18 -140zM938 1587l873 -1524v-63h-341l-643 1322h-25l-247 -424q-24 -40 -39 -73q257 0 391 -115.5t134 -314.5q0 -178 -113 -299t-363 -121
q-215 0 -338.5 109t-123.5 309q0 122 51.5 268t124.5 263l416 663h243zM687 1901q0 57 41 104t107 47q67 0 109 -46.5t42 -104.5q0 -55 -42 -101.5t-109 -46.5q-63 0 -105.5 44.5t-42.5 103.5z" />
    <glyph glyph-name="uni1557" unicode="&#x1557;" horiz-adv-x="1889" 
d="M1792 834l-1517 -859h-65v292l1237 649v17l-370 218l-80 50q0 -183 -116.5 -314.5t-328.5 -131.5q-175 0 -297.5 113t-122.5 306q0 196 114.5 307t334.5 111q187 0 337 -74t275 -163l599 -371v-150zM595 1362q-79 0 -130 -46.5t-51 -126.5q0 -90 45.5 -143.5t117.5 -53.5
q62 0 118 29t81.5 95.5t25.5 182.5q-100 62 -207 63z" />
    <glyph glyph-name="uni1558" unicode="&#x1558;" horiz-adv-x="1889" 
d="M1792 834l-1517 -859h-65v292l1237 649v17l-370 218l-80 50q0 -183 -116.5 -314.5t-328.5 -131.5q-175 0 -297.5 113t-122.5 306q0 196 114.5 307t334.5 111q187 0 337 -74t275 -163l599 -371v-150zM595 1362q-79 0 -130 -46.5t-51 -126.5q0 -90 45.5 -143.5t117.5 -53.5
q62 0 118 29t81.5 95.5t25.5 182.5q-100 62 -207 63zM439 1901q0 57 41 104t107 47q67 0 109 -46.5t42 -104.5q0 -55 -42 -101.5t-109 -46.5q-63 0 -105.5 44.5t-42.5 103.5z" />
    <glyph glyph-name="uni1559" unicode="&#x1559;" horiz-adv-x="1889" 
d="M1294 1362q-107 -1 -207 -63q0 -116 25.5 -182.5t81.5 -95.5t118 -29q72 0 117.5 53.5t45.5 143.5q0 80 -51 126.5t-130 46.5zM97 984l599 371q125 89 275 163t337 74q220 0 334.5 -111t114.5 -307q0 -193 -122.5 -306t-297.5 -113q-212 0 -328.5 131.5t-116.5 314.5
l-80 -50l-370 -218v-17l1237 -649v-292h-65l-1517 859v150z" />
    <glyph glyph-name="uni155A" unicode="&#x155a;" horiz-adv-x="1889" 
d="M1170 1901q0 57 41 104t107 47q67 0 109 -46.5t42 -104.5q0 -55 -42 -101.5t-109 -46.5q-63 0 -105.5 44.5t-42.5 103.5zM1294 1362q-107 -1 -207 -63q0 -116 25.5 -182.5t81.5 -95.5t118 -29q72 0 117.5 53.5t45.5 143.5q0 80 -51 126.5t-130 46.5zM97 984l599 371
q125 89 275 163t337 74q220 0 334.5 -111t114.5 -307q0 -193 -122.5 -306t-297.5 -113q-212 0 -328.5 131.5t-116.5 314.5l-80 -50l-370 -218v-17l1237 -649v-292h-65l-1517 859v150z" />
    <glyph glyph-name="uni155B" unicode="&#x155b;" horiz-adv-x="2199" 
d="M1604 1362q-107 -1 -207 -63q0 -116 25.5 -182.5t81.5 -95.5t118 -29q72 0 117.5 53.5t45.5 143.5q0 80 -51 126.5t-130 46.5zM407 984l599 371q125 89 275 163t337 74q220 0 334.5 -111t114.5 -307q0 -193 -122.5 -306t-297.5 -113q-212 0 -328.5 131.5t-116.5 314.5
l-80 -50l-370 -218v-17l1237 -649v-292h-65l-1517 859v150zM1474 1900q0 57 41 104t107 47q67 0 109 -46.5t42 -104.5q0 -55 -42 -101.5t-109 -46.5q-63 0 -105.5 44.5t-42.5 103.5zM46 780q0 57 41 104t107 47q67 0 109 -46.5t42 -104.5q0 -55 -42 -101.5t-109 -46.5
q-63 0 -105.5 44.5t-42.5 103.5z" />
    <glyph glyph-name="uni155C" unicode="&#x155c;" horiz-adv-x="2177" 
d="M1294 1362q-107 -1 -207 -63q0 -116 25.5 -182.5t81.5 -95.5t118 -29q72 0 117.5 53.5t45.5 143.5q0 80 -51 126.5t-130 46.5zM97 984l599 371q125 89 275 163t337 74q220 0 334.5 -111t114.5 -307q0 -193 -122.5 -306t-297.5 -113q-212 0 -328.5 131.5t-116.5 314.5
l-80 -50l-370 -218v-17l1237 -649v-292h-65l-1517 859v150zM1159 1900q0 57 41 104t107 47q67 0 109 -46.5t42 -104.5q0 -55 -42 -101.5t-109 -46.5q-63 0 -105.5 44.5t-42.5 103.5zM1833 780q0 57 41 104t107 47q67 0 109 -46.5t42 -104.5q0 -55 -42 -101.5t-109 -46.5
q-63 0 -105.5 44.5t-42.5 103.5z" />
    <glyph glyph-name="uni155D" unicode="&#x155d;" horiz-adv-x="1206" 
d="M793 1423q-59 0 -103 -16q-6 -31 -6 -46q0 -31 24 -67t82 -36q59 0 86.5 23.5t27.5 53.5q0 43 -25 65.5t-86 22.5zM33 1297l406 189q204 94 374 94q152 0 226.5 -67t74.5 -169q0 -130 -84 -192t-207 -62q-134 0 -207.5 63t-73.5 146q0 32 9 59q-38 -13 -263 -113v-16
q66 -52 147.5 -99.5t172.5 -88.5t189.5 -74.5t200.5 -57.5v-243h-37l-928 538v93z" />
    <glyph glyph-name="uni155E" unicode="&#x155e;" horiz-adv-x="1948" 
d="M1182 1180q0 -236 -192 -345.5t-547 -109.5q0 -255 127.5 -382.5t383.5 -127.5q210 0 344 106t168.5 324.5t34.5 619.5v302h275v-346q0 -381 -38.5 -630t-229.5 -432.5t-555 -183.5q-274 0 -440.5 105.5t-237 230.5t-101 287.5t-30.5 345.5q0 316 128 482t422 166
q254 0 371 -117t117 -295zM683 1375q-124 0 -191.5 -103t-67.5 -346l1 -39q303 0 390.5 79t87.5 176q0 93 -55 163t-165 70z" />
    <glyph glyph-name="uni155F" unicode="&#x155f;" horiz-adv-x="1948" 
d="M1265 1375q-110 0 -165 -70t-55 -163q0 -97 87.5 -176t390.5 -79l1 39q0 243 -67.5 346t-191.5 103zM766 1180q0 178 117 295t371 117q294 0 422 -166t128 -482q0 -183 -30.5 -345.5t-101 -287.5t-237 -230.5t-440.5 -105.5q-364 0 -555 183.5t-229.5 432.5t-38.5 630
v346h275v-302q0 -401 34.5 -619.5t168.5 -324.5t344 -106q256 0 383.5 127.5t127.5 382.5q-355 0 -547 109.5t-192 345.5z" />
    <glyph glyph-name="uni1560" unicode="&#x1560;" horiz-adv-x="1948" 
d="M683 192q110 0 165 70t55 163q0 97 -87.5 176t-390.5 79l-1 -39q0 -243 67.5 -346t191.5 -103zM1182 387q0 -178 -117 -295t-371 -117q-294 0 -422 166t-128 482q0 183 30.5 345t101 287.5t237 231t440.5 105.5q364 0 555 -184t229.5 -432.5t38.5 -629.5v-346h-275v302
q0 401 -34.5 619t-168.5 324.5t-344 106.5q-256 0 -383.5 -128t-127.5 -382q355 0 547 -109.5t192 -345.5z" />
    <glyph glyph-name="uni1561" unicode="&#x1561;" horiz-adv-x="1948" 
d="M766 387q0 236 192 345.5t547 109.5q0 254 -127.5 382t-383.5 128q-210 0 -344 -106.5t-168.5 -324.5t-34.5 -619v-302h-275v346q0 381 38.5 629.5t229.5 432.5t555 184q274 0 440.5 -105.5t237 -231t101 -287.5t30.5 -345q0 -316 -128 -482t-422 -166q-254 0 -371 117
t-117 295zM1265 192q124 0 191.5 103t67.5 346l-1 39q-303 0 -390.5 -79t-87.5 -176q0 -93 55 -163t165 -70z" />
    </font>
</defs>
</svg>
